<?xml version="1.0" standalone="no"?><!DOCTYPE svg PUBLIC "-//W3C//DTD SVG 1.1//EN" "http://www.w3.org/Graphics/SVG/1.1/DTD/svg11.dtd"><svg width="100%" height="100%" viewBox="0 0 235 113" version="1.1" xmlns="http://www.w3.org/2000/svg" xmlns:xlink="http://www.w3.org/1999/xlink" xml:space="preserve" style="fill-rule:evenodd;clip-rule:evenodd;stroke-linejoin:round;stroke-miterlimit:1.41421;"><g transform="matrix(7.15311,0,0,5.36483,-3281.29,-2631.74)"><text x="465.998px" y="510.623px" style="font-family:Asgalt;font-size:11.746px;fill:#0b7184;">N<tspan x="471.253px " y="510.623px ">E</tspan></text><path d="M470.105,510.936l-0.193,0.106l-3.341,-4.455l0,4.316l-0.783,0l0,-6.382l0.192,-0.107l3.342,4.446l0,-4.307l0.783,0l0,6.383ZM469.647,509.898l0.038,0.05l0,-0.071l-0.038,0.021ZM466.208,505.569l0.032,-0.019l-0.032,-0.043l0,0.062Z" style="fill:#0b7184;"/><path d="M474.358,505.476l-2.532,0l0,1.785l1.805,0l0,0.923l-1.805,0l0,1.796l2.532,0l0,0.923l-3.315,0l0,-6.35l3.315,0l0,0.923Z" style="fill:#0b7184;"/></g><g transform="matrix(7.15311,0,0,5.36483,-3173.02,-2631.74)"><text x="465.998px" y="510.623px" style="font-family:Asgalt;font-size:11.746px;fill:#0b7184;">U<tspan x="470.251px " y="510.623px ">S</tspan></text><path d="M469.103,509.193l-0.001,0.023l0,0.023l-0.001,0.023l-0.001,0.023l-0.002,0.022l-0.001,0.023l-0.002,0.022l-0.003,0.023l-0.002,0.022l-0.003,0.023l-0.003,0.022l-0.003,0.022l-0.003,0.022l-0.004,0.022l-0.004,0.022l-0.004,0.022l-0.005,0.022l-0.005,0.021l-0.005,0.022l-0.005,0.021l-0.006,0.021l-0.005,0.021l-0.006,0.021l-0.007,0.021l-0.006,0.021l-0.007,0.021l-0.007,0.02l-0.008,0.021l-0.007,0.02l-0.008,0.02l-0.008,0.02l-0.008,0.02l-0.009,0.019l-0.009,0.02l-0.009,0.019l-0.009,0.019l-0.009,0.02l-0.01,0.018l-0.01,0.019l-0.01,0.019l-0.011,0.018l-0.01,0.019l-0.011,0.018l-0.011,0.018l-0.011,0.018l-0.012,0.017l-0.012,0.018l-0.012,0.017l-0.012,0.017l-0.012,0.017l-0.013,0.017l-0.012,0.017l-0.013,0.017l-0.013,0.016l-0.014,0.016l-0.013,0.016l-0.014,0.016l-0.014,0.016l-0.014,0.016l-0.015,0.015l-0.014,0.016l-0.015,0.015l-0.015,0.015l-0.015,0.015l-0.015,0.015l-0.015,0.014l-0.016,0.015l-0.015,0.014l-0.016,0.013l-0.016,0.014l-0.015,0.013l-0.016,0.013l-0.016,0.013l-0.016,0.013l-0.017,0.012l-0.016,0.012l-0.016,0.012l-0.017,0.012l-0.016,0.011l-0.017,0.011l-0.017,0.011l-0.017,0.011l-0.017,0.01l-0.017,0.011l-0.017,0.01l-0.017,0.009l-0.018,0.01l-0.017,0.009l-0.017,0.009l-0.018,0.009l-0.018,0.009l-0.018,0.008l-0.017,0.008l-0.018,0.008l-0.018,0.007l-0.019,0.008l-0.018,0.007l-0.018,0.007l-0.018,0.006l-0.019,0.007l-0.018,0.006l-0.019,0.006l-0.019,0.006l-0.018,0.005l-0.019,0.005l-0.019,0.005l-0.019,0.005l-0.019,0.005l-0.019,0.004l-0.02,0.004l-0.019,0.004l-0.019,0.003l-0.02,0.004l-0.019,0.003l-0.02,0.003l-0.019,0.002l-0.02,0.003l-0.02,0.002l-0.02,0.002l-0.02,0.001l-0.02,0.002l-0.02,0.001l-0.02,0.001l-0.02,0.001l-0.021,0.001l-0.02,0l-0.021,0l-0.02,0l-0.02,0l-0.021,-0.001l-0.02,-0.001l-0.02,-0.001l-0.02,-0.001l-0.02,-0.002l-0.02,-0.001l-0.02,-0.002l-0.02,-0.002l-0.02,-0.003l-0.019,-0.002l-0.02,-0.003l-0.019,-0.003l-0.02,-0.004l-0.019,-0.003l-0.019,-0.004l-0.02,-0.004l-0.019,-0.004l-0.019,-0.005l-0.019,-0.005l-0.019,-0.005l-0.019,-0.005l-0.018,-0.005l-0.019,-0.006l-0.019,-0.006l-0.018,-0.006l-0.019,-0.007l-0.018,-0.006l-0.018,-0.007l-0.019,-0.007l-0.018,-0.008l-0.018,-0.007l-0.018,-0.008l-0.017,-0.008l-0.018,-0.008l-0.018,-0.009l-0.018,-0.009l-0.017,-0.009l-0.017,-0.009l-0.018,-0.01l-0.017,-0.009l-0.017,-0.01l-0.017,-0.011l-0.017,-0.01l-0.017,-0.011l-0.017,-0.011l-0.017,-0.011l-0.016,-0.011l-0.017,-0.012l-0.016,-0.012l-0.016,-0.012l-0.017,-0.012l-0.016,-0.013l-0.016,-0.013l-0.016,-0.013l-0.015,-0.013l-0.016,-0.014l-0.016,-0.013l-0.015,-0.014l-0.016,-0.015l-0.015,-0.014l-0.015,-0.015l-0.015,-0.015l-0.015,-0.015l-0.015,-0.015l-0.014,-0.016l-0.015,-0.015l-0.014,-0.016l-0.014,-0.016l-0.014,-0.016l-0.013,-0.016l-0.014,-0.016l-0.013,-0.016l-0.013,-0.017l-0.012,-0.017l-0.013,-0.017l-0.012,-0.017l-0.012,-0.017l-0.012,-0.017l-0.012,-0.018l-0.012,-0.017l-0.011,-0.018l-0.011,-0.018l-0.011,-0.018l-0.01,-0.019l-0.011,-0.018l-0.01,-0.019l-0.01,-0.019l-0.01,-0.018l-0.009,-0.02l-0.009,-0.019l-0.009,-0.019l-0.009,-0.02l-0.009,-0.019l-0.008,-0.02l-0.008,-0.02l-0.008,-0.02l-0.008,-0.02l-0.007,-0.021l-0.007,-0.02l-0.007,-0.021l-0.006,-0.021l-0.007,-0.021l-0.006,-0.021l-0.006,-0.021l-0.005,-0.021l-0.005,-0.021l-0.005,-0.022l-0.005,-0.021l-0.005,-0.022l-0.004,-0.022l-0.004,-0.022l-0.004,-0.022l-0.003,-0.022l-0.003,-0.022l-0.003,-0.022l-0.003,-0.023l-0.003,-0.022l-0.002,-0.023l-0.002,-0.022l-0.001,-0.023l-0.002,-0.022l-0.001,-0.023l-0.001,-0.023l0,-0.023l-0.001,-0.023l0,-0.022l0,-4.618l0.783,0l0,4.616l0,0.021l0.001,0.019l0.001,0.019l0.001,0.019l0.002,0.018l0.002,0.018l0.003,0.018l0.003,0.018l0.004,0.017l0.004,0.017l0.004,0.017l0.005,0.017l0.005,0.017l0.006,0.016l0.006,0.017l0.006,0.016l0.008,0.017l0.007,0.016l0.008,0.017l0.009,0.016l0.009,0.017l0.01,0.016l0.01,0.017l0.011,0.016l0.012,0.017l0.012,0.016l0.013,0.017l0.013,0.016l0.014,0.017l0.015,0.016l0.015,0.017l0.016,0.016l0.017,0.016l0.016,0.016l0.017,0.015l0.017,0.015l0.018,0.014l0.017,0.013l0.018,0.013l0.017,0.013l0.018,0.012l0.019,0.011l0.018,0.011l0.019,0.011l0.019,0.009l0.019,0.01l0.019,0.009l0.02,0.008l0.02,0.008l0.02,0.008l0.02,0.007l0.021,0.006l0.021,0.006l0.021,0.006l0.022,0.005l0.021,0.004l0.023,0.004l0.022,0.004l0.023,0.003l0.023,0.002l0.023,0.002l0.023,0.001l0.024,0.001l0.024,0l0.013,0l0.012,0l0.012,0l0.012,-0.001l0.011,0l0.012,-0.001l0.012,-0.001l0.011,-0.001l0.012,-0.001l0.011,-0.001l0.012,-0.002l0.011,-0.001l0.011,-0.002l0.011,-0.002l0.011,-0.002l0.011,-0.002l0.011,-0.002l0.011,-0.002l0.011,-0.003l0.011,-0.002l0.01,-0.003l0.011,-0.003l0.011,-0.002l0.01,-0.004l0.01,-0.003l0.011,-0.003l0.01,-0.004l0.01,-0.003l0.01,-0.004l0.01,-0.004l0.01,-0.004l0.01,-0.004l0.01,-0.004l0.01,-0.004l0.009,-0.004l0.01,-0.005l0.01,-0.005l0.009,-0.005l0.01,-0.004l0.009,-0.005l0.009,-0.006l0.01,-0.005l0.009,-0.005l0.009,-0.006l0.009,-0.006l0.009,-0.005l0.009,-0.006l0.01,-0.006l0.008,-0.007l0.009,-0.006l0.009,-0.006l0.009,-0.007l0.009,-0.007l0.008,-0.006l0.009,-0.007l0.009,-0.007l0.008,-0.008l0.009,-0.007l0.008,-0.007l0.009,-0.008l0.008,-0.008l0.008,-0.008l0.009,-0.008l0.008,-0.008l0.008,-0.008l0.008,-0.008l0.008,-0.008l0.007,-0.009l0.008,-0.008l0.007,-0.008l0.007,-0.008l0.007,-0.009l0.007,-0.008l0.006,-0.008l0.007,-0.008l0.006,-0.009l0.006,-0.008l0.006,-0.008l0.006,-0.009l0.006,-0.008l0.005,-0.008l0.006,-0.008l0.005,-0.009l0.005,-0.008l0.005,-0.008l0.005,-0.008l0.005,-0.009l0.004,-0.008l0.004,-0.008l0.005,-0.008l0.004,-0.008l0.004,-0.009l0.004,-0.008l0.003,-0.008l0.004,-0.008l0.003,-0.009l0.004,-0.008l0.003,-0.008l0.003,-0.008l0.003,-0.009l0.003,-0.008l0.003,-0.008l0.002,-0.009l0.003,-0.008l0.002,-0.008l0.003,-0.009l0.002,-0.008l0.002,-0.009l0.002,-0.008l0.002,-0.009l0.002,-0.009l0.002,-0.008l0.001,-0.009l0.002,-0.009l0.001,-0.009l0.001,-0.009l0.002,-0.009l0.001,-0.009l0.001,-0.009l0.001,-0.009l0,-0.009l0.001,-0.01l0.001,-0.009l0,-0.01l0.001,-0.009l0,-0.01l0,-0.01l0,-0.011l0,-4.616l0.783,0l0,4.618l0,0.022Z" style="fill:#0b7184;"/><path d="M473.356,504.553l0,0.923l-1.563,0l-0.014,0l-0.013,0l-0.014,0l-0.013,0.001l-0.013,0.001l-0.013,0l-0.013,0.001l-0.012,0.001l-0.013,0.002l-0.013,0.001l-0.012,0.002l-0.013,0.001l-0.012,0.002l-0.012,0.002l-0.013,0.002l-0.012,0.002l-0.012,0.003l-0.012,0.002l-0.012,0.003l-0.012,0.003l-0.011,0.002l-0.012,0.004l-0.012,0.003l-0.011,0.003l-0.012,0.004l-0.011,0.003l-0.011,0.004l-0.012,0.004l-0.011,0.004l-0.011,0.004l-0.011,0.004l-0.011,0.005l-0.011,0.004l-0.011,0.005l-0.011,0.005l-0.01,0.005l-0.011,0.005l-0.01,0.005l-0.011,0.005l-0.01,0.006l-0.011,0.006l-0.01,0.005l-0.01,0.006l-0.01,0.006l-0.011,0.006l-0.01,0.007l-0.01,0.006l-0.01,0.007l-0.009,0.007l-0.01,0.006l-0.01,0.007l-0.01,0.008l-0.009,0.007l-0.01,0.007l-0.01,0.008l-0.009,0.008l-0.01,0.007l-0.009,0.008l-0.009,0.008l-0.01,0.009l-0.009,0.008l-0.009,0.009l-0.009,0.008l-0.009,0.009l-0.009,0.009l-0.009,0.009l-0.009,0.009l-0.008,0.009l-0.008,0.009l-0.008,0.009l-0.008,0.009l-0.008,0.009l-0.007,0.009l-0.008,0.009l-0.007,0.009l-0.007,0.009l-0.007,0.009l-0.006,0.009l-0.007,0.009l-0.006,0.009l-0.006,0.009l-0.006,0.009l-0.006,0.009l-0.006,0.009l-0.005,0.01l-0.005,0.009l-0.006,0.009l-0.005,0.009l-0.005,0.009l-0.004,0.009l-0.005,0.009l-0.004,0.009l-0.005,0.009l-0.004,0.009l-0.004,0.01l-0.004,0.009l-0.003,0.009l-0.004,0.009l-0.004,0.009l-0.003,0.01l-0.003,0.009l-0.003,0.009l-0.003,0.009l-0.003,0.01l-0.003,0.009l-0.003,0.01l-0.002,0.009l-0.002,0.009l-0.003,0.01l-0.002,0.01l-0.002,0.009l-0.002,0.01l-0.002,0.01l-0.001,0.01l-0.002,0.01l-0.001,0.01l-0.002,0.01l-0.001,0.01l-0.001,0.01l-0.001,0.01l-0.001,0.011l-0.001,0.01l0,0.011l-0.001,0.011l0,0.01l-0.001,0.011l0,0.011l0,0.012l0,0.022l0.001,0.021l0.001,0.022l0.002,0.021l0.002,0.02l0.003,0.021l0.003,0.02l0.003,0.02l0.004,0.019l0.005,0.019l0.005,0.02l0.005,0.019l0.006,0.018l0.006,0.019l0.007,0.019l0.008,0.018l0.008,0.019l0.008,0.018l0.009,0.019l0.01,0.018l0.01,0.019l0.011,0.018l0.012,0.019l0.012,0.018l0.013,0.018l0.013,0.019l0.014,0.018l0.015,0.019l0.016,0.018l0.016,0.018l0.017,0.018l0.018,0.019l0.018,0.017l0.019,0.018l0.018,0.016l0.019,0.016l0.019,0.016l0.019,0.015l0.02,0.014l0.02,0.014l0.02,0.013l0.02,0.013l0.02,0.012l0.021,0.012l0.021,0.011l0.021,0.01l0.021,0.01l0.022,0.009l0.022,0.009l0.022,0.009l0.023,0.007l0.022,0.007l0.024,0.007l0.023,0.006l0.024,0.006l0.024,0.005l0.024,0.004l0.025,0.004l0.025,0.003l0.025,0.003l0.025,0.002l0.026,0.001l0.027,0.001l0.013,0l0.014,0l0.631,0l0.025,0.002l0.021,0.001l0.021,0.002l0.02,0.002l0.021,0.002l0.02,0.002l0.021,0.003l0.02,0.003l0.02,0.003l0.021,0.003l0.02,0.003l0.02,0.004l0.02,0.004l0.019,0.004l0.02,0.005l0.02,0.004l0.019,0.005l0.02,0.005l0.019,0.005l0.02,0.006l0.019,0.006l0.019,0.006l0.019,0.006l0.019,0.006l0.019,0.007l0.019,0.007l0.018,0.007l0.019,0.007l0.018,0.008l0.019,0.008l0.018,0.008l0.018,0.008l0.019,0.009l0.018,0.008l0.018,0.009l0.017,0.01l0.018,0.009l0.018,0.01l0.017,0.01l0.018,0.01l0.017,0.01l0.018,0.011l0.017,0.011l0.017,0.011l0.017,0.011l0.017,0.012l0.016,0.012l0.017,0.012l0.017,0.012l0.016,0.012l0.016,0.013l0.016,0.013l0.017,0.013l0.016,0.014l0.015,0.013l0.016,0.014l0.016,0.014l0.016,0.015l0.015,0.014l0.015,0.015l0.016,0.015l0.015,0.015l0.015,0.016l0.014,0.015l0.015,0.016l0.015,0.016l0.014,0.016l0.014,0.017l0.014,0.016l0.014,0.016l0.013,0.017l0.014,0.017l0.013,0.017l0.013,0.017l0.012,0.017l0.013,0.017l0.012,0.018l0.012,0.017l0.012,0.018l0.012,0.018l0.011,0.018l0.011,0.018l0.011,0.018l0.011,0.019l0.011,0.019l0.01,0.018l0.01,0.019l0.01,0.019l0.01,0.019l0.01,0.02l0.009,0.019l0.009,0.02l0.009,0.019l0.008,0.02l0.009,0.02l0.008,0.02l0.008,0.021l0.007,0.02l0.008,0.021l0.007,0.02l0.007,0.021l0.006,0.021l0.007,0.021l0.006,0.021l0.006,0.021l0.006,0.022l0.005,0.021l0.005,0.022l0.005,0.021l0.005,0.022l0.004,0.022l0.004,0.022l0.004,0.022l0.004,0.022l0.003,0.022l0.004,0.023l0.002,0.022l0.003,0.023l0.002,0.022l0.003,0.023l0.001,0.022l0.002,0.023l0.001,0.023l0.002,0.023l0,0.023l0.001,0.023l0,0.023l0.001,0.023l-0.001,0.023l0,0.023l-0.001,0.023l0,0.023l-0.002,0.022l-0.001,0.023l-0.002,0.023l-0.001,0.023l-0.003,0.022l-0.002,0.023l-0.003,0.022l-0.002,0.023l-0.004,0.022l-0.003,0.022l-0.004,0.022l-0.004,0.022l-0.004,0.022l-0.004,0.022l-0.005,0.022l-0.005,0.022l-0.005,0.021l-0.005,0.022l-0.006,0.021l-0.006,0.021l-0.006,0.021l-0.007,0.021l-0.006,0.021l-0.007,0.021l-0.007,0.021l-0.008,0.02l-0.007,0.021l-0.008,0.02l-0.008,0.02l-0.009,0.02l-0.008,0.02l-0.009,0.02l-0.009,0.019l-0.009,0.02l-0.01,0.019l-0.01,0.019l-0.01,0.019l-0.01,0.019l-0.01,0.019l-0.011,0.018l-0.011,0.019l-0.011,0.018l-0.011,0.018l-0.011,0.018l-0.012,0.018l-0.012,0.018l-0.012,0.018l-0.012,0.017l-0.013,0.017l-0.012,0.018l-0.013,0.017l-0.013,0.017l-0.014,0.016l-0.013,0.017l-0.014,0.016l-0.014,0.017l-0.014,0.016l-0.014,0.016l-0.015,0.016l-0.015,0.016l-0.014,0.016l-0.015,0.015l-0.015,0.015l-0.016,0.015l-0.015,0.015l-0.015,0.015l-0.016,0.014l-0.016,0.014l-0.016,0.014l-0.015,0.014l-0.016,0.013l-0.017,0.013l-0.016,0.013l-0.016,0.013l-0.016,0.012l-0.017,0.013l-0.017,0.012l-0.016,0.012l-0.017,0.011l-0.017,0.011l-0.017,0.012l-0.017,0.01l-0.018,0.011l-0.017,0.01l-0.018,0.011l-0.017,0.01l-0.018,0.009l-0.018,0.01l-0.017,0.009l-0.018,0.009l-0.018,0.009l-0.019,0.008l-0.018,0.009l-0.018,0.008l-0.019,0.007l-0.018,0.008l-0.019,0.007l-0.018,0.008l-0.019,0.006l-0.019,0.007l-0.019,0.007l-0.019,0.006l-0.019,0.006l-0.019,0.006l-0.02,0.005l-0.019,0.005l-0.02,0.005l-0.019,0.005l-0.02,0.005l-0.02,0.004l-0.019,0.004l-0.02,0.004l-0.02,0.004l-0.02,0.003l-0.021,0.004l-0.02,0.003l-0.02,0.002l-0.021,0.003l-0.02,0.002l-0.021,0.002l-0.02,0.002l-0.021,0.002l-0.021,0.002l-0.025,0.001l-2.383,0l0,-0.923l2.29,0l0.014,0l0.013,0l0.014,0l0.013,-0.001l0.013,0l0.013,-0.001l0.012,-0.001l0.013,-0.001l0.013,-0.001l0.013,-0.002l0.012,-0.001l0.013,-0.002l0.012,-0.002l0.012,-0.002l0.013,-0.002l0.012,-0.002l0.012,-0.002l0.012,-0.003l0.012,-0.003l0.012,-0.002l0.011,-0.003l0.012,-0.003l0.012,-0.004l0.011,-0.003l0.012,-0.003l0.011,-0.004l0.011,-0.004l0.012,-0.004l0.011,-0.004l0.011,-0.004l0.011,-0.004l0.011,-0.004l0.011,-0.005l0.011,-0.005l0.01,-0.005l0.011,-0.004l0.011,-0.006l0.01,-0.005l0.011,-0.005l0.01,-0.006l0.011,-0.005l0.01,-0.006l0.01,-0.006l0.01,-0.006l0.011,-0.006l0.01,-0.007l0.01,-0.006l0.01,-0.007l0.009,-0.006l0.01,-0.007l0.01,-0.007l0.01,-0.007l0.009,-0.008l0.01,-0.007l0.01,-0.008l0.009,-0.007l0.01,-0.008l0.009,-0.008l0.009,-0.008l0.01,-0.009l0.009,-0.008l0.009,-0.009l0.009,-0.008l0.009,-0.009l0.009,-0.009l0.009,-0.009l0.009,-0.009l0.008,-0.009l0.008,-0.009l0.008,-0.009l0.008,-0.009l0.008,-0.009l0.007,-0.009l0.008,-0.009l0.007,-0.009l0.007,-0.009l0.007,-0.009l0.006,-0.009l0.007,-0.009l0.006,-0.009l0.006,-0.009l0.006,-0.009l0.006,-0.009l0.006,-0.009l0.005,-0.009l0.005,-0.009l0.006,-0.009l0.005,-0.01l0.004,-0.009l0.005,-0.009l0.005,-0.009l0.004,-0.009l0.005,-0.009l0.004,-0.009l0.004,-0.009l0.004,-0.009l0.003,-0.01l0.004,-0.009l0.004,-0.009l0.003,-0.009l0.003,-0.01l0.003,-0.009l0.003,-0.009l0.003,-0.01l0.003,-0.009l0.002,-0.009l0.003,-0.01l0.002,-0.009l0.003,-0.01l0.002,-0.009l0.002,-0.01l0.002,-0.01l0.002,-0.01l0.001,-0.01l0.002,-0.009l0.001,-0.01l0.002,-0.01l0.001,-0.011l0.001,-0.01l0.001,-0.01l0.001,-0.011l0.001,-0.01l0,-0.011l0.001,-0.01l0,-0.011l0.001,-0.011l0,-0.011l0,-0.011l0,-0.011l0,-0.011l-0.001,-0.011l0,-0.011l-0.001,-0.011l0,-0.011l-0.001,-0.01l-0.001,-0.01l-0.001,-0.011l-0.001,-0.01l-0.001,-0.01l-0.002,-0.01l-0.001,-0.01l-0.002,-0.01l-0.001,-0.01l-0.002,-0.01l-0.002,-0.01l-0.002,-0.009l-0.002,-0.01l-0.003,-0.009l-0.002,-0.01l-0.003,-0.009l-0.002,-0.01l-0.003,-0.009l-0.003,-0.01l-0.003,-0.009l-0.003,-0.009l-0.003,-0.009l-0.003,-0.01l-0.004,-0.009l-0.004,-0.009l-0.003,-0.009l-0.004,-0.009l-0.004,-0.009l-0.004,-0.01l-0.005,-0.009l-0.004,-0.009l-0.005,-0.009l-0.005,-0.009l-0.004,-0.009l-0.005,-0.009l-0.006,-0.009l-0.005,-0.009l-0.005,-0.009l-0.006,-0.009l-0.006,-0.01l-0.006,-0.009l-0.006,-0.009l-0.006,-0.009l-0.007,-0.009l-0.006,-0.009l-0.007,-0.009l-0.007,-0.009l-0.007,-0.009l-0.008,-0.009l-0.007,-0.009l-0.008,-0.009l-0.008,-0.009l-0.008,-0.009l-0.008,-0.009l-0.008,-0.009l-0.009,-0.009l-0.009,-0.009l-0.009,-0.009l-0.009,-0.008l-0.009,-0.009l-0.009,-0.009l-0.009,-0.008l-0.01,-0.008l-0.009,-0.009l-0.009,-0.007l-0.01,-0.008l-0.009,-0.008l-0.01,-0.008l-0.01,-0.007l-0.009,-0.007l-0.01,-0.007l-0.01,-0.007l-0.01,-0.007l-0.009,-0.007l-0.01,-0.007l-0.01,-0.006l-0.01,-0.006l-0.011,-0.007l-0.01,-0.006l-0.01,-0.006l-0.01,-0.005l-0.011,-0.006l-0.01,-0.005l-0.011,-0.006l-0.01,-0.005l-0.011,-0.005l-0.011,-0.005l-0.01,-0.005l-0.011,-0.005l-0.011,-0.004l-0.011,-0.005l-0.011,-0.004l-0.011,-0.004l-0.011,-0.004l-0.012,-0.004l-0.011,-0.004l-0.011,-0.003l-0.012,-0.004l-0.011,-0.003l-0.012,-0.003l-0.012,-0.003l-0.011,-0.003l-0.012,-0.003l-0.012,-0.003l-0.012,-0.002l-0.012,-0.003l-0.012,-0.002l-0.013,-0.002l-0.012,-0.002l-0.012,-0.002l-0.013,-0.001l-0.012,-0.002l-0.013,-0.001l-0.013,-0.001l-0.013,-0.002l-0.012,-0.001l-0.013,0l-0.013,-0.001l-0.013,0l-0.014,-0.001l-0.013,0l-0.014,0l-0.837,0l0,-0.033l-0.004,-0.001l-0.02,-0.003l-0.02,-0.004l-0.02,-0.004l-0.019,-0.004l-0.02,-0.004l-0.02,-0.005l-0.019,-0.005l-0.02,-0.005l-0.019,-0.005l-0.02,-0.006l-0.019,-0.005l-0.019,-0.006l-0.019,-0.007l-0.019,-0.006l-0.019,-0.007l-0.019,-0.007l-0.018,-0.007l-0.019,-0.007l-0.019,-0.008l-0.018,-0.007l-0.018,-0.009l-0.019,-0.008l-0.018,-0.008l-0.018,-0.009l-0.018,-0.009l-0.018,-0.009l-0.017,-0.01l-0.018,-0.01l-0.018,-0.01l-0.017,-0.01l-0.017,-0.01l-0.018,-0.011l-0.017,-0.011l-0.017,-0.011l-0.017,-0.011l-0.017,-0.012l-0.016,-0.011l-0.017,-0.012l-0.017,-0.013l-0.016,-0.012l-0.016,-0.013l-0.017,-0.013l-0.016,-0.013l-0.016,-0.014l-0.016,-0.013l-0.015,-0.014l-0.016,-0.014l-0.016,-0.014l-0.015,-0.015l-0.015,-0.015l-0.016,-0.015l-0.015,-0.015l-0.015,-0.016l-0.015,-0.015l-0.014,-0.016l-0.015,-0.016l-0.014,-0.016l-0.014,-0.016l-0.014,-0.017l-0.014,-0.016l-0.013,-0.017l-0.014,-0.017l-0.013,-0.016l-0.013,-0.018l-0.012,-0.017l-0.013,-0.017l-0.012,-0.017l-0.012,-0.018l-0.012,-0.018l-0.012,-0.018l-0.011,-0.018l-0.011,-0.018l-0.012,-0.018l-0.01,-0.019l-0.011,-0.018l-0.01,-0.019l-0.011,-0.019l-0.009,-0.019l-0.01,-0.019l-0.01,-0.019l-0.009,-0.02l-0.009,-0.02l-0.009,-0.019l-0.008,-0.02l-0.009,-0.02l-0.008,-0.02l-0.008,-0.021l-0.007,-0.02l-0.008,-0.02l-0.007,-0.021l-0.007,-0.021l-0.007,-0.021l-0.006,-0.021l-0.006,-0.021l-0.006,-0.021l-0.006,-0.022l-0.005,-0.021l-0.005,-0.022l-0.005,-0.021l-0.005,-0.022l-0.004,-0.022l-0.005,-0.022l-0.003,-0.022l-0.004,-0.022l-0.003,-0.022l-0.004,-0.023l-0.003,-0.022l-0.002,-0.022l-0.003,-0.023l-0.002,-0.023l-0.002,-0.022l-0.001,-0.023l-0.002,-0.023l-0.001,-0.023l-0.001,-0.022l0,-0.023l-0.001,-0.023l0,-0.023l0,-0.024l0.001,-0.023l0,-0.023l0.001,-0.022l0.001,-0.023l0.002,-0.023l0.001,-0.023l0.002,-0.022l0.002,-0.023l0.003,-0.023l0.002,-0.022l0.003,-0.022l0.004,-0.023l0.003,-0.022l0.004,-0.022l0.003,-0.022l0.005,-0.022l0.004,-0.022l0.005,-0.022l0.005,-0.021l0.005,-0.022l0.005,-0.021l0.006,-0.022l0.006,-0.021l0.006,-0.021l0.006,-0.021l0.007,-0.021l0.007,-0.021l0.007,-0.02l0.008,-0.021l0.007,-0.02l0.008,-0.021l0.008,-0.02l0.009,-0.02l0.008,-0.02l0.009,-0.019l0.009,-0.02l0.009,-0.019l0.01,-0.02l0.01,-0.019l0.009,-0.019l0.011,-0.019l0.01,-0.019l0.011,-0.018l0.01,-0.019l0.012,-0.018l0.011,-0.018l0.011,-0.018l0.012,-0.018l0.012,-0.018l0.012,-0.017l0.012,-0.018l0.013,-0.017l0.012,-0.017l0.013,-0.017l0.013,-0.017l0.014,-0.017l0.013,-0.017l0.014,-0.016l0.014,-0.017l0.014,-0.016l0.014,-0.016l0.015,-0.016l0.014,-0.016l0.015,-0.015l0.015,-0.016l0.015,-0.015l0.016,-0.015l0.015,-0.015l0.015,-0.014l0.016,-0.015l0.016,-0.014l0.015,-0.014l0.016,-0.013l0.016,-0.014l0.016,-0.013l0.017,-0.013l0.016,-0.013l0.016,-0.012l0.017,-0.012l0.017,-0.013l0.016,-0.011l0.017,-0.012l0.017,-0.011l0.017,-0.011l0.017,-0.011l0.018,-0.011l0.017,-0.01l0.017,-0.01l0.018,-0.01l0.018,-0.01l0.017,-0.01l0.018,-0.009l0.018,-0.009l0.018,-0.009l0.018,-0.008l0.019,-0.008l0.018,-0.008l0.018,-0.008l0.019,-0.008l0.019,-0.007l0.018,-0.007l0.019,-0.007l0.019,-0.007l0.019,-0.006l0.019,-0.007l0.019,-0.006l0.019,-0.005l0.02,-0.006l0.019,-0.005l0.02,-0.005l0.019,-0.005l0.02,-0.005l0.02,-0.004l0.019,-0.004l0.02,-0.004l0.02,-0.004l0.02,-0.003l0.021,-0.003l0.02,-0.003l0.02,-0.003l0.021,-0.003l0.02,-0.002l0.021,-0.002l0.02,-0.002l0.021,-0.002l0.021,-0.001l0.025,-0.002l1.656,0Z" style="fill:#0b7184;"/></g><path d="M146.247,75.017l6.535,0l-14.003,16.804l13.07,16.805l-6.535,0l-9.336,-12.137l-11.203,12.137l-6.535,0l14.004,-15.871l-14.938,-17.738c0,0 5.725,6.273 12.137,6.535c1.299,0.053 5.601,6.535 5.601,6.535l11.203,-13.07Z" style="fill:#0b7184;"/><g transform="matrix(7.15311,0,0,5.36483,-3324.38,-2668.04)"><text x="465.998px" y="510.623px" style="font-family:Asgalt;font-size:11.746px;fill:#00b424;">P<tspan x="470.262px 474.515px " y="510.623px 510.623px ">EA</tspan></text><path d="M467.451,504.553l0.02,0l0.021,0.001l0.02,0l0.02,0.001l0.02,0.001l0.02,0.001l0.02,0.002l0.019,0.002l0.02,0.001l0.02,0.003l0.019,0.002l0.02,0.003l0.019,0.003l0.02,0.003l0.019,0.003l0.019,0.004l0.02,0.003l0.019,0.004l0.019,0.005l0.019,0.004l0.019,0.005l0.018,0.005l0.019,0.005l0.019,0.006l0.018,0.005l0.019,0.006l0.018,0.006l0.019,0.007l0.018,0.006l0.018,0.007l0.018,0.008l0.018,0.007l0.018,0.007l0.018,0.008l0.018,0.008l0.018,0.009l0.017,0.008l0.018,0.009l0.017,0.009l0.018,0.009l0.017,0.01l0.017,0.01l0.017,0.01l0.017,0.01l0.017,0.01l0.017,0.011l0.016,0.011l0.017,0.011l0.017,0.012l0.016,0.011l0.016,0.012l0.017,0.012l0.016,0.013l0.016,0.012l0.016,0.013l0.016,0.013l0.016,0.013l0.015,0.014l0.016,0.014l0.015,0.014l0.016,0.014l0.015,0.014l0.015,0.015l0.015,0.015l0.015,0.015l0.015,0.015l0.014,0.016l0.015,0.015l0.014,0.016l0.014,0.016l0.013,0.016l0.014,0.016l0.013,0.016l0.014,0.016l0.012,0.017l0.013,0.017l0.013,0.016l0.012,0.017l0.012,0.018l0.012,0.017l0.012,0.017l0.011,0.018l0.012,0.018l0.011,0.018l0.01,0.018l0.011,0.018l0.01,0.018l0.011,0.019l0.01,0.018l0.009,0.019l0.01,0.019l0.009,0.019l0.009,0.02l0.009,0.019l0.008,0.02l0.009,0.019l0.008,0.02l0.008,0.02l0.007,0.02l0.008,0.021l0.007,0.02l0.006,0.021l0.007,0.02l0.006,0.021l0.007,0.021l0.005,0.021l0.006,0.021l0.005,0.021l0.005,0.022l0.005,0.021l0.005,0.022l0.004,0.022l0.004,0.021l0.004,0.022l0.003,0.022l0.003,0.022l0.003,0.022l0.003,0.023l0.002,0.022l0.003,0.022l0.002,0.023l0.001,0.022l0.002,0.023l0.001,0.022l0.001,0.023l0,0.023l0.001,0.023l0,0.022l0,0.023l-0.001,0.023l0,0.023l-0.001,0.023l-0.001,0.022l-0.002,0.023l-0.001,0.022l-0.002,0.023l-0.003,0.022l-0.002,0.022l-0.003,0.022l-0.003,0.023l-0.003,0.022l-0.003,0.022l-0.004,0.022l-0.004,0.021l-0.004,0.022l-0.005,0.022l-0.005,0.021l-0.005,0.021l-0.005,0.022l-0.006,0.021l-0.005,0.021l-0.007,0.021l-0.006,0.021l-0.007,0.02l-0.006,0.021l-0.007,0.02l-0.008,0.021l-0.007,0.02l-0.008,0.02l-0.008,0.02l-0.009,0.019l-0.008,0.02l-0.009,0.019l-0.009,0.02l-0.009,0.019l-0.01,0.019l-0.009,0.018l-0.01,0.019l-0.011,0.019l-0.01,0.018l-0.011,0.018l-0.01,0.018l-0.011,0.018l-0.012,0.018l-0.011,0.018l-0.012,0.017l-0.012,0.017l-0.012,0.017l-0.012,0.017l-0.013,0.017l-0.013,0.017l-0.012,0.017l-0.014,0.016l-0.013,0.016l-0.014,0.016l-0.013,0.016l-0.014,0.016l-0.014,0.016l-0.015,0.015l-0.014,0.016l-0.015,0.015l-0.015,0.015l-0.015,0.015l-0.015,0.015l-0.015,0.014l-0.016,0.014l-0.015,0.014l-0.016,0.014l-0.015,0.013l-0.016,0.014l-0.016,0.013l-0.016,0.013l-0.016,0.012l-0.016,0.013l-0.017,0.012l-0.016,0.012l-0.016,0.011l-0.017,0.012l-0.017,0.011l-0.016,0.011l-0.017,0.011l-0.017,0.01l-0.017,0.01l-0.017,0.01l-0.017,0.01l-0.017,0.009l-0.018,0.01l-0.017,0.009l-0.018,0.009l-0.017,0.008l-0.018,0.009l-0.018,0.008l-0.018,0.007l-0.018,0.008l-0.018,0.007l-0.018,0.008l-0.018,0.006l-0.018,0.007l-0.019,0.006l-0.018,0.007l-0.019,0.006l-0.018,0.005l-0.019,0.006l-0.019,0.005l-0.018,0.005l-0.019,0.005l-0.019,0.004l-0.019,0.005l-0.019,0.004l-0.02,0.003l-0.019,0.004l-0.019,0.003l-0.02,0.003l-0.019,0.003l-0.02,0.003l-0.019,0.002l-0.02,0.002l-0.02,0.002l-0.019,0.002l-0.02,0.002l-0.02,0.001l-0.02,0.001l-0.02,0.001l-0.02,0l-0.021,0.001l-0.02,0l-0.76,0l0,-0.923l0.76,0l0.012,0l0.012,0l0.012,0l0.011,-0.001l0.012,0l0.012,-0.001l0.011,-0.001l0.011,-0.001l0.012,-0.001l0.011,-0.001l0.011,-0.002l0.011,-0.001l0.012,-0.002l0.011,-0.002l0.01,-0.002l0.011,-0.002l0.011,-0.002l0.011,-0.002l0.01,-0.003l0.011,-0.002l0.011,-0.003l0.01,-0.003l0.01,-0.003l0.011,-0.003l0.01,-0.003l0.01,-0.003l0.01,-0.004l0.01,-0.003l0.01,-0.004l0.01,-0.004l0.01,-0.004l0.01,-0.004l0.01,-0.004l0.009,-0.004l0.01,-0.005l0.01,-0.004l0.009,-0.005l0.01,-0.005l0.009,-0.005l0.009,-0.005l0.01,-0.005l0.009,-0.005l0.009,-0.005l0.009,-0.006l0.01,-0.006l0.009,-0.005l0.009,-0.006l0.009,-0.006l0.008,-0.007l0.009,-0.006l0.009,-0.006l0.009,-0.007l0.009,-0.007l0.008,-0.006l0.009,-0.007l0.009,-0.008l0.008,-0.007l0.009,-0.007l0.008,-0.008l0.008,-0.007l0.009,-0.008l0.008,-0.008l0.008,-0.008l0.009,-0.008l0.008,-0.008l0.008,-0.009l0.008,-0.008l0.007,-0.008l0.008,-0.008l0.007,-0.008l0.007,-0.009l0.007,-0.008l0.007,-0.008l0.006,-0.009l0.007,-0.008l0.006,-0.008l0.006,-0.008l0.006,-0.009l0.006,-0.008l0.006,-0.008l0.005,-0.008l0.006,-0.009l0.005,-0.008l0.005,-0.008l0.005,-0.008l0.005,-0.009l0.005,-0.008l0.004,-0.008l0.004,-0.008l0.005,-0.008l0.004,-0.009l0.004,-0.008l0.004,-0.008l0.003,-0.008l0.004,-0.009l0.003,-0.008l0.004,-0.008l0.003,-0.008l0.003,-0.009l0.003,-0.008l0.003,-0.008l0.003,-0.009l0.002,-0.008l0.003,-0.008l0.002,-0.009l0.003,-0.008l0.002,-0.009l0.002,-0.008l0.002,-0.009l0.002,-0.008l0.002,-0.009l0.002,-0.009l0.001,-0.008l0.002,-0.009l0.001,-0.009l0.001,-0.009l0.002,-0.009l0.001,-0.009l0.001,-0.009l0.001,-0.009l0,-0.01l0.001,-0.009l0.001,-0.009l0,-0.01l0.001,-0.01l0,-0.009l0,-0.01l0,-0.01l0,-0.01l0,-0.01l0,-0.01l-0.001,-0.009l0,-0.01l-0.001,-0.009l-0.001,-0.009l0,-0.01l-0.001,-0.009l-0.001,-0.009l-0.001,-0.009l-0.002,-0.009l-0.001,-0.009l-0.001,-0.009l-0.002,-0.008l-0.001,-0.009l-0.002,-0.009l-0.002,-0.008l-0.002,-0.009l-0.002,-0.008l-0.002,-0.009l-0.002,-0.008l-0.002,-0.008l-0.003,-0.009l-0.002,-0.008l-0.003,-0.008l-0.003,-0.008l-0.003,-0.008l-0.003,-0.009l-0.003,-0.008l-0.003,-0.008l-0.003,-0.008l-0.004,-0.008l-0.003,-0.008l-0.004,-0.008l-0.004,-0.009l-0.004,-0.008l-0.004,-0.008l-0.004,-0.008l-0.004,-0.008l-0.005,-0.008l-0.005,-0.008l-0.004,-0.008l-0.005,-0.008l-0.005,-0.008l-0.005,-0.008l-0.006,-0.009l-0.005,-0.008l-0.006,-0.008l-0.006,-0.008l-0.006,-0.008l-0.006,-0.008l-0.006,-0.008l-0.007,-0.008l-0.006,-0.008l-0.007,-0.009l-0.007,-0.008l-0.007,-0.008l-0.007,-0.008l-0.008,-0.008l-0.007,-0.008l-0.008,-0.008l-0.008,-0.008l-0.008,-0.008l-0.008,-0.008l-0.008,-0.008l-0.009,-0.008l-0.008,-0.007l-0.009,-0.008l-0.008,-0.007l-0.009,-0.007l-0.008,-0.008l-0.009,-0.007l-0.008,-0.006l-0.009,-0.007l-0.009,-0.007l-0.009,-0.006l-0.008,-0.007l-0.009,-0.006l-0.009,-0.006l-0.009,-0.006l-0.009,-0.006l-0.009,-0.005l-0.009,-0.006l-0.009,-0.005l-0.01,-0.006l-0.009,-0.005l-0.009,-0.005l-0.01,-0.005l-0.009,-0.005l-0.01,-0.005l-0.009,-0.004l-0.01,-0.005l-0.009,-0.004l-0.01,-0.004l-0.01,-0.004l-0.01,-0.004l-0.01,-0.004l-0.01,-0.004l-0.01,-0.004l-0.01,-0.003l-0.01,-0.004l-0.01,-0.003l-0.011,-0.003l-0.01,-0.003l-0.01,-0.003l-0.011,-0.003l-0.01,-0.002l-0.011,-0.003l-0.011,-0.002l-0.01,-0.002l-0.011,-0.003l-0.011,-0.002l-0.011,-0.001l-0.011,-0.002l-0.011,-0.002l-0.011,-0.001l-0.012,-0.002l-0.011,-0.001l-0.011,-0.001l-0.012,-0.001l-0.011,-0.001l-0.012,-0.001l-0.012,0l-0.011,-0.001l-0.012,0l-0.012,0l-0.012,0l-0.88,0l0,5.427l-0.783,0l0,-6.35l1.663,0Z" style="fill:#00b424;"/><path d="M473.367,504.553l0,0.923l-2.532,0l0,1.785l1.805,0l0,0.923l-1.805,0l0,1.796l2.532,0l0,0.923l-3.315,0l0,-6.35l3.315,0Z" style="fill:#00b424;"/><path d="M478.414,510.782l-0.06,0.121l-0.731,0l-1.302,-4.135l-1.292,4.135l-0.73,0l-0.061,-0.12l1.979,-6.345l0.207,-0.001l1.99,6.345ZM476.293,505.648l0.056,0l-0.028,-0.089l-0.028,0.089Z" style="fill:#00b424;"/></g><path d="M14.71,36.913c0,0 33.749,-7.681 36.471,-9.342c12.547,-7.661 16.811,-11.665 27.36,-23.437c5.777,-6.447 10.878,3.694 13.099,9.866c2.445,6.793 6.883,22.061 14.595,37.153c4.321,8.456 14.819,22.636 23.503,28.123c0.294,0.187 -5.995,0.458 -12.354,-6.575c-5.95,-6.582 -14.448,-17.887 -20.494,-31.706c-5.429,-12.409 -12.276,-21.688 -16.252,-22.838c-2.699,-0.781 -4.817,-0.152 -8.113,1.808c-3.401,2.022 -9.924,5.461 -17.768,10.231c-3.404,2.07 -13.679,3.995 -18.073,4.403c-10.56,0.983 -9.021,1.565 -21.974,2.314Z" style="fill:#00b424;"/><path d="M113.089,58.366c0,0 2.93,-1.654 6.684,-5.634c11.661,-12.362 11.497,-19.895 10.915,-19.09c-4.995,6.914 -10.934,15.377 -20.284,20.781c-0.219,0.127 2.685,3.943 2.685,3.943Z" style="fill:#00c12b;"/><path d="M103.441,56.499l0,16.805l6.535,0l0,-6.535c0,0 -3.392,-3.351 -6.535,-10.27Z" style="fill:#00c12b;"/><path d="M102.508,36.894l7.395,0.136c0,0 0.071,16.714 0.073,16.668c0,0 -3.908,-5.376 -7.468,-16.804Z" style="fill:#0b7184;"/><path d="M114.807,59.062c0,0 14.119,-8.585 18.56,-26.862c0.011,-0.049 4.393,-3.864 5.308,-4.601c6.197,-4.995 7.121,-5.999 10.297,0.334c4.746,9.464 9.939,13.222 14.768,16.559c4.627,3.198 16.583,-9.106 19.327,-2.155c8.977,22.74 22.458,31.313 22.458,31.313c0,0 -10.677,-0.298 -24.738,-24.369c-3.023,-5.176 -11.368,2.362 -16.257,-0.005c-11.614,-5.622 -14.984,-12.652 -20.337,-14.161c-1.934,-0.546 -3.654,-0.288 -5.562,0.539c-3.905,1.693 -4.297,4.16 -5.662,6.39c-6.835,11.168 -18.162,17.018 -18.162,17.018Z" style="fill:#0b7184;"/></svg>