<?xml version="1.0" standalone="no"?><!DOCTYPE svg PUBLIC "-//W3C//DTD SVG 1.1//EN" "http://www.w3.org/Graphics/SVG/1.1/DTD/svg11.dtd"><svg width="100%" height="100%" viewBox="0 0 1050 600" version="1.1" xmlns="http://www.w3.org/2000/svg" xmlns:xlink="http://www.w3.org/1999/xlink" xml:space="preserve" style="fill-rule:evenodd;clip-rule:evenodd;stroke-linejoin:round;stroke-miterlimit:1.41421;"><rect id="Back" x="-44.5" y="-42.5" width="1136" height="683" style="fill:#1a1a1a;"/><rect id="Back1" x="-44.5" y="-42.5" width="1136" height="683" style="fill:#1a1a1a;"/><g><text x="264.547px" y="169.446px" style="font-family:Asgalt;font-size:66.667px;fill:#fff;stroke-width:1.25px;stroke:#d9d9d9;">F<tspan x="288.687px 311.639px 334.591px 358.605px 383.557px 407.321px 424.026px 446.728px 470.867px 495.007px " y="169.446px 169.446px 169.446px 169.446px 169.446px 169.446px 169.446px 169.446px 169.446px 169.446px ">ounder CEO</tspan></text><path d="M437.146,133.805l-4.849,-1.22l-11.224,44.61l4.849,1.22l11.224,-44.61Z" style="fill:#1da34a;stroke-width:1.42px;stroke-linejoin:miter;stroke:#1da34a;"/><text x="77.282px" y="116.705px" style="font-family:Asgalt;font-size:75px;fill:#1da34a;stroke-width:1.25px;stroke-linejoin:miter;stroke:#1da34a;">K<tspan x="109.078px 140.874px 172.67px 204.466px 238.019px 265.176px 292.332px 319.489px 346.716px 372.256px 404.052px 431.209px 464.762px 491.919px " y="116.705px 116.705px 116.705px 116.705px 116.705px 116.705px 116.705px 116.705px 116.705px 116.705px 116.705px 116.705px 116.705px 116.705px ">ARANDEEP SINGH</tspan></text></g><g><path d="M-37.5,301.5c0,0 60.504,0.344 105,-5c36.888,-4.43 57.543,5.707 94,5c36.457,-0.707 76.978,-6.186 109,-6c32.022,0.186 58.654,-3.784 97,-2c38.346,1.784 49.901,2.935 94,0c44.099,-2.935 54.748,1.707 89,-2c31.094,-3.365 57.055,-18.963 109.192,-19.15" style="fill:none;stroke-width:4.71px;stroke-linejoin:miter;stroke:#1da34a;"/><path d="M893.5,324.5c0,0 17.52,9.994 56.475,-1c14.126,-3.987 31.381,-4.243 48.968,-10c17.132,-5.608 45.085,-16.75 90.557,-15" style="fill:none;stroke-width:4.71px;stroke-linejoin:miter;stroke:#2a7184;"/><g><text x="675.152px" y="383.464px" style="font-family:Asgalt;font-size:94.457px;fill:#0b7184;stroke-width:4.5px;stroke-linejoin:miter;stroke-miterlimit:9;stroke:#0b7184;">N<tspan x="731.496px " y="383.464px ">E</tspan></text><text x="837.438px" y="383.464px" style="font-family:Asgalt;font-size:94.457px;fill:#0b7184;stroke-width:4.5px;stroke-linejoin:miter;stroke:#0b7184;">U<tspan x="883.041px " y="383.464px ">S</tspan></text><path d="M816.358,334.517l9.795,0l-20.99,25.189l19.591,25.188l-9.796,0l-13.993,-18.191l-16.793,18.191l-9.795,0l20.99,-23.789l-22.39,-26.588c0,0 8.581,9.403 18.192,9.796c1.948,0.079 8.396,9.795 8.396,9.795l16.793,-19.591Z" style="fill:#0b7184;"/><text x="610.566px" y="329.054px" style="font-family:Asgalt;font-size:94.457px;fill:#00b424;stroke-width:4.17px;stroke-linejoin:miter;stroke:#00b424;">P<tspan x="656.287px 701.889px " y="329.054px 329.054px ">EA</tspan></text><path d="M619.193,277.402c0,0 50.588,-11.513 54.667,-14.003c18.808,-11.483 25.199,-17.484 41.011,-35.131c8.659,-9.663 16.305,5.538 19.635,14.789c3.664,10.182 10.317,33.068 21.877,55.69c6.476,12.674 22.212,33.929 35.228,42.154c0.442,0.28 -8.985,0.687 -18.517,-9.856c-8.92,-9.865 -21.657,-26.811 -30.719,-47.524c-8.138,-18.601 -18.402,-32.509 -24.361,-34.233c-4.046,-1.171 -7.22,-0.228 -12.161,2.71c-5.098,3.031 -14.875,8.186 -26.633,15.336c-5.102,3.102 -20.503,5.988 -27.09,6.6c-15.829,1.472 -13.522,2.346 -32.937,3.468Z" style="fill:#0aa22c;"/><path d="M766.656,309.558c0,0 4.392,-2.479 10.019,-8.445c17.479,-18.53 17.232,-29.82 16.36,-28.614c-7.486,10.364 -16.39,23.049 -30.404,31.15c-0.329,0.19 4.025,5.909 4.025,5.909Z" style="fill:#00c12b;"/><path d="M752.195,306.76l0,25.189l9.795,0l0,-9.796c0,0 -5.085,-5.022 -9.795,-15.393Z" style="fill:#00c12b;"/><path d="M750.795,277.374l11.085,0.203c0,0 0.107,25.054 0.11,24.985c0,0 -5.858,-8.058 -11.195,-25.188Z" style="fill:#00b424;"/><path d="M769.231,310.601c0,0 21.163,-12.867 27.819,-40.263c0.018,-0.074 6.586,-5.792 7.957,-6.897c9.289,-7.488 10.674,-8.992 15.434,0.501c7.114,14.185 14.898,19.818 22.137,24.821c6.935,4.793 24.857,-13.65 28.97,-3.231c13.455,34.085 33.662,45.587 33.662,45.587c0,0 -16.004,0.902 -37.079,-35.178c-4.532,-7.759 -17.042,3.54 -24.37,-0.008c-17.408,-8.427 -22.459,-18.964 -30.483,-21.227c-2.899,-0.818 -5.477,-0.43 -8.336,0.809c-5.854,2.538 -6.441,6.235 -8.487,9.578c-10.247,16.74 -27.224,25.508 -27.224,25.508Z" style="fill:#0b7184;"/></g></g><g><text x="117.282px" y="390.966px" style="font-family:Asgalt;font-size:50px;fill:#d9d9d9;">k<tspan x="140.234px 163.124px 173.705px 197.719px 222.671px 245.623px 288.319px 313.333px 337.098px 362.049px 385.001px 409.016px 432.78px 458.294px 481.246px 504.136px 514.905px 538.419px 561.371px " y="390.966px 390.966px 390.966px 390.966px 390.966px 390.966px 390.966px 390.966px 390.966px 390.966px 390.966px 390.966px 390.966px 390.966px 390.966px 390.966px 390.966px 390.966px 390.966px ">singh@peaknexus.com</tspan></text><path d="M87.252,361.566l14.938,7.717l0,15.434l-14.938,7.717l-14.939,-7.717l0,-15.434l14.939,-7.717Z" style="fill:#1da34a;"/></g><g><text x="118.282px" y="463.966px" style="font-family:Asgalt;font-size:50px;fill:#d9d9d9;">5<tspan x="142.421px 166.561px 190.7px 201.468px 225.608px 249.747px 273.949px 284.717px 308.857px 332.996px 357.198px " y="463.966px 463.966px 463.966px 463.966px 463.966px 463.966px 463.966px 463.966px 463.966px 463.966px 463.966px ">16.439.3290</tspan></text><path d="M87.252,432.566l14.938,7.717l0,15.434l-14.938,7.717l-14.939,-7.717l0,-15.434l14.939,-7.717Z" style="fill:#1da34a;"/></g><g><path d="M87.252,498.577l14.938,7.717l0,15.434l-14.938,7.716l-14.939,-7.716l0,-15.434l14.939,-7.717Z" style="fill:#1da34a;"/><text x="118.282px" y="525.977px" style="font-family:Asgalt;font-size:50px;fill:#d9d9d9;">w<tspan x="147.42px 176.558px 205.695px 216.464px 241.478px 265.242px 290.194px 313.146px 337.16px 360.925px 386.439px 409.391px 432.281px 443.049px 466.564px 489.516px " y="525.977px 525.977px 525.977px 525.977px 525.977px 525.977px 525.977px 525.977px 525.977px 525.977px 525.977px 525.977px 525.977px 525.977px 525.977px 525.977px ">ww.peaknexus.com</tspan></text></g><g><path d="M87.252,498.577l14.938,7.717l0,15.434l-14.938,7.716l-14.939,-7.716l0,-15.434l14.939,-7.717Z" style="fill:#1da34a;"/></g></svg>