<?xml version="1.0" standalone="no"?><!DOCTYPE svg PUBLIC "-//W3C//DTD SVG 1.1//EN" "http://www.w3.org/Graphics/SVG/1.1/DTD/svg11.dtd"><svg width="100%" height="100%" viewBox="0 0 1125 675" version="1.1" xmlns="http://www.w3.org/2000/svg" xmlns:xlink="http://www.w3.org/1999/xlink" xml:space="preserve" style="fill-rule:evenodd;clip-rule:evenodd;stroke-linejoin:round;stroke-miterlimit:1.41421;"><rect id="Back" x="-7" y="-5" width="1136" height="683" style="fill:#080808;"/><g><text x="254.895px" y="186.946px" style="font-family:Asgalt;font-size:46.875px;fill:#d9d9d9;stroke-width:0.83px;stroke:#a6a6a6;">F<tspan x="277.526px 299.044px 320.561px 343.075px 366.467px 388.746px 404.406px 425.689px 448.32px 470.951px " y="186.946px 186.946px 186.946px 186.946px 186.946px 186.946px 186.946px 186.946px 186.946px 186.946px ">ounder CEO</tspan></text><path d="M420.677,151.305l-4.849,-1.22l-11.223,44.61l4.849,1.22l11.223,-44.61Z" style="fill:#1da34a;stroke-width:1.42px;stroke-linejoin:miter;stroke:#1da34a;"/><text x="100.813px" y="134.205px" style="font-family:Asgalt;font-size:50px;fill:#1da34a;stroke-width:0.83px;stroke-linejoin:miter;stroke:#1da34a;">K<tspan x="129.077px 157.34px 185.603px 213.866px 243.691px 267.83px 291.969px 316.109px 340.31px 363.013px 391.276px 415.415px 445.24px 469.38px " y="134.205px 134.205px 134.205px 134.205px 134.205px 134.205px 134.205px 134.205px 134.205px 134.205px 134.205px 134.205px 134.205px 134.205px ">ARANDEEP SINGH</tspan></text></g><g><path d="M0,339c0,0 60.504,0.344 105,-5c36.888,-4.43 57.543,5.707 94,5c36.457,-0.707 76.978,-6.186 109,-6c32.022,0.186 58.654,-3.784 97,-2c38.346,1.784 49.901,2.935 94,0c44.099,-2.935 54.748,1.707 89,-2c31.094,-3.365 57.055,-18.963 109.192,-19.15" style="fill:none;stroke-width:4.71px;stroke-linejoin:miter;stroke:#1da34a;"/><path d="M931,362c0,0 15.52,8.994 54.475,-2c14.126,-3.987 35.758,-6.896 52.968,-12c21.269,-6.308 37.334,-13.75 88.557,-12" style="fill:none;stroke-width:4.71px;stroke-linejoin:miter;stroke:#2a7184;"/><g><text x="712.652px" y="420.964px" style="font-family:Asgalt;font-size:94.457px;fill:#0b7184;stroke-width:4.5px;stroke-linejoin:miter;stroke-miterlimit:9;stroke:#0b7184;">N<tspan x="768.996px " y="420.964px ">E</tspan></text><text x="874.938px" y="420.964px" style="font-family:Asgalt;font-size:94.457px;fill:#0b7184;stroke-width:4.5px;stroke-linejoin:miter;stroke:#0b7184;">U<tspan x="920.541px " y="420.964px ">S</tspan></text><path d="M853.858,372.017l9.795,0l-20.99,25.189l19.591,25.188l-9.796,0l-13.993,-18.191l-16.793,18.191l-9.795,0l20.99,-23.789l-22.39,-26.588c0,0 8.581,9.403 18.192,9.796c1.948,0.079 8.396,9.795 8.396,9.795l16.793,-19.591Z" style="fill:#0b7184;"/><text x="648.066px" y="366.554px" style="font-family:Asgalt;font-size:94.457px;fill:#00b424;stroke-width:4.17px;stroke-linejoin:miter;stroke:#00b424;">P<tspan x="693.787px 739.389px " y="366.554px 366.554px ">EA</tspan></text><path d="M656.693,314.902c0,0 50.588,-11.513 54.667,-14.003c18.808,-11.483 25.199,-17.484 41.011,-35.131c8.659,-9.663 16.305,5.538 19.635,14.789c3.664,10.182 10.317,33.068 21.877,55.69c6.476,12.674 22.212,33.929 35.228,42.154c0.442,0.28 -8.985,0.687 -18.517,-9.856c-8.92,-9.865 -21.657,-26.811 -30.719,-47.524c-8.138,-18.601 -18.402,-32.509 -24.361,-34.233c-4.046,-1.171 -7.22,-0.228 -12.161,2.71c-5.098,3.031 -14.875,8.186 -26.633,15.336c-5.102,3.102 -20.503,5.988 -27.09,6.6c-15.829,1.472 -13.522,2.346 -32.937,3.468Z" style="fill:#0aa22c;"/><path d="M804.156,347.058c0,0 4.392,-2.479 10.019,-8.445c17.479,-18.53 17.232,-29.82 16.36,-28.614c-7.486,10.364 -16.39,23.049 -30.404,31.15c-0.329,0.19 4.025,5.909 4.025,5.909Z" style="fill:#00c12b;"/><path d="M789.695,344.26l0,25.189l9.795,0l0,-9.796c0,0 -5.085,-5.022 -9.795,-15.393Z" style="fill:#00c12b;"/><path d="M788.295,314.874l11.085,0.203c0,0 0.107,25.054 0.11,24.985c0,0 -5.858,-8.058 -11.195,-25.188Z" style="fill:#00b424;"/><path d="M806.731,348.101c0,0 21.163,-12.867 27.819,-40.263c0.018,-0.074 6.586,-5.792 7.957,-6.897c9.289,-7.488 10.674,-8.992 15.434,0.501c7.114,14.185 14.898,19.818 22.137,24.821c6.935,4.793 24.857,-13.65 28.97,-3.231c13.455,34.085 33.662,45.587 33.662,45.587c0,0 -16.004,0.902 -37.079,-35.178c-4.532,-7.759 -17.042,3.54 -24.37,-0.008c-17.408,-8.427 -22.459,-18.964 -30.483,-21.227c-2.899,-0.818 -5.477,-0.43 -8.336,0.809c-5.854,2.538 -6.441,6.235 -8.487,9.578c-10.247,16.74 -27.224,25.508 -27.224,25.508Z" style="fill:#0b7184;"/></g></g><g><g><text x="145.782px" y="431.466px" style="font-family:Asgalt;font-size:46.875px;fill:#d9d9d9;">k<tspan x="167.3px 188.759px 198.679px 221.192px 244.584px 266.102px 306.129px 329.58px 351.859px 375.251px 396.769px 419.282px 441.562px 465.481px 486.999px 508.458px 518.553px 540.598px 562.116px " y="431.466px 431.466px 431.466px 431.466px 431.466px 431.466px 431.466px 431.466px 431.466px 431.466px 431.466px 431.466px 431.466px 431.466px 431.466px 431.466px 431.466px 431.466px 431.466px ">singh@peaknexus.com</tspan></text><path d="M115.752,406.066l14.938,7.717l0,15.434l-14.938,7.717l-14.939,-7.717l0,-15.434l14.939,-7.717Z" style="fill:#2a7184;"/></g><g><text x="146.782px" y="504.466px" style="font-family:Asgalt;font-size:46.875px;fill:#d9d9d9;">5<tspan x="169.413px 192.043px 214.674px 224.769px 247.4px 270.031px 292.72px 302.815px 325.446px 348.076px 370.766px " y="504.466px 504.466px 504.466px 504.466px 504.466px 504.466px 504.466px 504.466px 504.466px 504.466px 504.466px ">16.439.3290</tspan></text><path d="M115.752,477.066l14.938,7.717l0,15.434l-14.938,7.717l-14.939,-7.717l0,-15.434l14.939,-7.717Z" style="fill:#2a7184;"/></g><g><path d="M115.752,543.077l14.938,7.717l0,15.434l-14.938,7.716l-14.939,-7.716l0,-15.434l14.939,-7.717Z" style="fill:#2a7184;"/><text x="146.782px" y="566.477px" style="font-family:Asgalt;font-size:46.875px;fill:#d9d9d9;">w<tspan x="174.099px 201.415px 228.732px 238.827px 262.278px 284.557px 307.949px 329.467px 351.981px 374.26px 398.179px 419.697px 441.156px 451.251px 473.296px 494.814px " y="566.477px 566.477px 566.477px 566.477px 566.477px 566.477px 566.477px 566.477px 566.477px 566.477px 566.477px 566.477px 566.477px 566.477px 566.477px 566.477px ">ww.peaknexus.com</tspan></text></g></g></svg>