<?xml version="1.0" standalone="no"?><!DOCTYPE svg PUBLIC "-//W3C//DTD SVG 1.1//EN" "http://www.w3.org/Graphics/SVG/1.1/DTD/svg11.dtd"><svg width="100%" height="100%" viewBox="0 0 270 162" version="1.1" xmlns="http://www.w3.org/2000/svg" xmlns:xlink="http://www.w3.org/1999/xlink" xml:space="preserve" style="fill-rule:evenodd;clip-rule:evenodd;stroke-linejoin:round;stroke-miterlimit:1.41421;"><rect id="Back" x="-1.68" y="-1.2" width="272.64" height="163.92" style="fill:#080808;"/><g><text x="79.868px" y="48.467px" style="font-family:Asgalt;font-size:10.5px;fill:#d9d9d9;stroke-width:0.3px;stroke:#d9d9d9;">F<tspan x="84.937px 89.757px 94.577px 99.62px 104.86px 109.85px 113.358px 118.126px 123.195px 128.264px " y="48.467px 48.467px 48.467px 48.467px 48.467px 48.467px 48.467px 48.467px 48.467px 48.467px ">ounder CEO</tspan></text><path d="M116.529,41.113l-1.164,-0.293l-2.694,10.707l1.164,0.293l2.694,-10.707Z" style="fill:#1da34a;stroke-width:0.34px;stroke-linejoin:miter;stroke:#1da34a;"/><text x="27.548px" y="37.009px" style="font-family:Asgalt;font-size:13.5px;fill:#1da34a;stroke-width:0.34px;stroke-linejoin:miter;stroke:#1da34a;">K<tspan x="35.179px 42.81px 50.441px 58.072px 66.125px 72.642px 79.16px 85.677px 92.212px 98.341px 105.973px 112.49px 120.543px 127.061px " y="37.009px 37.009px 37.009px 37.009px 37.009px 37.009px 37.009px 37.009px 37.009px 37.009px 37.009px 37.009px 37.009px 37.009px ">ARANDEEP SINGH</tspan></text></g><g><path d="M0,81.36c0,0 14.521,0.082 25.2,-1.2c8.853,-1.063 13.81,1.37 22.56,1.2c8.75,-0.17 18.475,-1.485 26.16,-1.44c7.685,0.045 14.077,-0.908 23.28,-0.48c9.203,0.428 11.976,0.705 22.56,0c10.584,-0.705 13.139,0.41 21.36,-0.48c7.463,-0.808 13.693,-4.551 26.206,-4.596" style="fill:none;stroke-width:1.13px;stroke-linejoin:miter;stroke:#b3b3b3;"/><path d="M223.44,86.88c0,0 4.205,2.399 13.554,-0.24c3.39,-0.957 7.531,-1.018 11.752,-2.4c4.112,-1.346 10.821,-4.02 21.734,-3.6" style="fill:none;stroke-width:1.13px;stroke-linejoin:miter;stroke:#b3b3b3;"/><g><text x="172.845px" y="99.638px" style="font-family:Asgalt;font-size:21.278px;fill:#b3b3b3;stroke-width:1.01px;stroke-linejoin:miter;stroke-miterlimit:9;stroke:#b3b3b3;">N<tspan x="185.538px " y="99.638px ">E</tspan></text><text x="209.403px" y="99.638px" style="font-family:Asgalt;font-size:21.278px;fill:#b3b3b3;stroke-width:1.01px;stroke-linejoin:miter;stroke:#b3b3b3;">U<tspan x="219.676px " y="99.638px ">S</tspan></text><path d="M204.655,88.612l2.206,0l-4.728,5.674l4.413,5.674l-2.207,0l-3.152,-4.098l-3.783,4.098l-2.207,0l4.729,-5.359l-5.044,-5.989c0,0 1.933,2.118 4.098,2.206c0.439,0.018 1.892,2.207 1.892,2.207l3.783,-4.413Z" style="fill:#b3b3b3;stroke-width:0.24px;stroke:#b3b3b3;"/><text x="158.296px" y="87.381px" style="font-family:Asgalt;font-size:21.278px;fill:#b3b3b3;stroke-width:0.96px;stroke-linejoin:miter;stroke:#b3b3b3;">P<tspan x="168.595px 178.868px " y="87.381px 87.381px ">EA</tspan></text><path d="M161.439,75.025c0,0 10.196,-1.873 11.115,-2.434c4.237,-2.587 5.677,-3.939 9.239,-7.914c1.95,-2.177 3.673,1.247 4.423,3.331c0.825,2.294 2.324,7.45 4.928,12.546c1.459,2.855 5.004,7.643 7.936,9.496c0.099,0.063 -2.024,0.154 -4.171,-2.221c-2.01,-2.222 -4.879,-6.039 -6.921,-10.705c-1.833,-4.191 -4.145,-7.324 -5.487,-7.712c-0.912,-0.264 -1.627,-0.051 -2.74,0.61c-1.148,0.683 -3.351,1.844 -6,3.455c-1.149,0.699 -4.618,1.349 -6.102,1.487c-3.566,0.332 -1.846,-0.192 -6.22,0.061Z" style="fill:#b3b3b3;stroke-width:0.24px;stroke:#b3b3b3;"/><path d="M193.458,82.989c0,0 0.99,-0.558 2.257,-1.902c3.938,-4.175 3.882,-6.718 3.686,-6.446c-1.687,2.334 -3.692,5.192 -6.849,7.017c-0.075,0.043 0.906,1.331 0.906,1.331Z" style="fill:#b3b3b3;stroke-width:0.24px;stroke:#b3b3b3;"/><path d="M190.201,82.359l0,5.674l2.206,0l0,-2.207c0,0 -1.145,-1.131 -2.206,-3.467Z" style="fill:#b3b3b3;stroke-width:0.24px;stroke:#b3b3b3;"/><path d="M189.885,75.739l2.497,0.046c0,0 0.024,5.643 0.025,5.628c0,0 -1.319,-1.815 -2.522,-5.674Z" style="fill:#b3b3b3;stroke-width:0.24px;stroke:#b3b3b3;"/><path d="M194.038,83.224c0,0 4.768,-2.899 6.267,-9.07c0.004,-0.017 1.484,-1.305 1.793,-1.554c2.092,-1.687 2.404,-2.025 3.477,0.113c1.602,3.195 3.355,4.464 4.986,5.591c1.563,1.08 5.575,-3.064 6.526,-0.727c3.746,9.203 9.743,9.853 9.743,9.853c0,0 -5.347,2.122 -10.513,-7.509c-0.956,-1.783 -3.838,0.798 -5.489,-0.001c-3.922,-1.899 -5.06,-4.272 -6.867,-4.782c-0.653,-0.184 -1.234,-0.097 -1.878,0.182c-1.319,0.572 -1.451,1.405 -1.912,2.158c-2.308,3.771 -6.133,5.746 -6.133,5.746Z" style="fill:#b3b3b3;stroke-width:0.24px;stroke:#b3b3b3;"/></g></g><g><text x="37.148px" y="102.112px" style="font-family:Asgalt;font-size:10.5px;fill:#d9d9d9;stroke-width:0.3px;stroke:#d9d9d9;">k<tspan x="41.968px 46.774px 48.997px 54.04px 59.279px 64.099px 73.065px 78.318px 83.309px 88.549px 93.369px 98.412px 103.402px 108.76px 113.58px 118.387px 120.648px 125.586px 130.406px " y="102.112px 102.112px 102.112px 102.112px 102.112px 102.112px 102.112px 102.112px 102.112px 102.112px 102.112px 102.112px 102.112px 102.112px 102.112px 102.112px 102.112px 102.112px 102.112px ">singh@peaknexus.com</tspan></text><path d="M29.94,95.776l3.586,1.852l0,3.704l-3.586,1.852l-3.585,-1.852l0,-3.704l3.585,-1.852Z" style="fill:#2a7184;"/></g><g><text x="37.388px" y="119.632px" style="font-family:Asgalt;font-size:10.5px;fill:#d9d9d9;stroke-width:0.3px;stroke:#d9d9d9;">5<tspan x="42.457px 47.526px 52.595px 54.857px 59.926px 64.995px 70.078px 72.339px 77.408px 82.478px 87.56px " y="119.632px 119.632px 119.632px 119.632px 119.632px 119.632px 119.632px 119.632px 119.632px 119.632px 119.632px ">16.439.3290</tspan></text><path d="M29.94,112.816l3.586,1.852l0,3.704l-3.586,1.852l-3.585,-1.852l0,-3.704l3.585,-1.852Z" style="fill:#2a7184;"/></g><g><path d="M29.94,128.659l3.586,1.852l0,3.704l-3.586,1.852l-3.585,-1.852l0,-3.704l3.585,-1.852Z" style="fill:#2a7184;"/><text x="37.388px" y="134.514px" style="font-family:Asgalt;font-size:10.5px;fill:#d9d9d9;stroke-width:0.3px;stroke-linejoin:miter;stroke:#d9d9d9;">w<tspan x="43.507px 49.626px 55.744px 58.006px 63.259px 68.249px 73.489px 78.309px 83.352px 88.343px 93.701px 98.521px 103.327px 105.589px 110.527px 115.347px " y="134.514px 134.514px 134.514px 134.514px 134.514px 134.514px 134.514px 134.514px 134.514px 134.514px 134.514px 134.514px 134.514px 134.514px 134.514px 134.514px ">ww.peaknexus.com</tspan></text></g></svg>