<?xml version="1.0" standalone="no"?><!DOCTYPE svg PUBLIC "-//W3C//DTD SVG 1.1//EN" "http://www.w3.org/Graphics/SVG/1.1/DTD/svg11.dtd"><svg width="100%" height="100%" viewBox="0 0 270 162" version="1.1" xmlns="http://www.w3.org/2000/svg" xmlns:xlink="http://www.w3.org/1999/xlink" xml:space="preserve" style="fill-rule:evenodd;clip-rule:evenodd;stroke-linejoin:round;stroke-miterlimit:1.41421;"><rect id="Back" x="-1.68" y="-1.2" width="272.64" height="163.92" style="fill:#1a1a1a;"/><g><text x="36.668px" y="48.467px" style="font-family:Asgalt;font-size:10.5px;fill:#d9d9d9;stroke-width:0.3px;stroke:#d9d9d9;">F<tspan x="41.737px 46.557px 51.377px 56.42px 61.66px 66.65px 70.158px 74.926px 79.995px 85.064px " y="48.467px 48.467px 48.467px 48.467px 48.467px 48.467px 48.467px 48.467px 48.467px 48.467px ">ounder CEO</tspan></text><path d="M73.329,41.113l-1.164,-0.293l-2.694,10.707l1.164,0.293l2.694,-10.707Z" style="fill:#1da34a;stroke-width:0.34px;stroke-linejoin:miter;stroke:#1da34a;"/><text x="27.548px" y="37.009px" style="font-family:Asgalt;font-size:13.5px;fill:#1da34a;stroke-width:0.5px;stroke-linejoin:miter;stroke:#1da34a;">K<tspan x="35.179px 42.81px 50.441px 58.072px 66.125px 72.642px 79.16px 85.677px 92.212px 98.341px 105.973px 112.49px 120.543px 127.061px " y="37.009px 37.009px 37.009px 37.009px 37.009px 37.009px 37.009px 37.009px 37.009px 37.009px 37.009px 37.009px 37.009px 37.009px ">ARANDEEP SINGH</tspan></text></g><g><path d="M0,81.36c0,0 14.521,0.082 25.2,-1.2c8.853,-1.063 13.81,1.37 22.56,1.2c8.75,-0.17 18.475,-1.485 26.16,-1.44c7.685,0.045 14.077,-0.908 23.28,-0.48c9.203,0.428 11.976,0.705 22.56,0c10.584,-0.705 13.139,0.41 21.36,-0.48c7.463,-0.808 13.693,-4.551 26.206,-4.596" style="fill:none;stroke-width:1.13px;stroke-linejoin:miter;stroke:#1da34a;"/><path d="M223.44,86.88c0,0 4.205,2.399 13.554,-0.24c3.39,-0.957 7.531,-1.018 11.752,-2.4c4.112,-1.346 10.821,-4.02 21.734,-3.6" style="fill:none;stroke-width:1.13px;stroke-linejoin:miter;stroke:#2a7184;"/><g><text x="171.036px" y="101.031px" style="font-family:Asgalt;font-size:22.67px;fill:#0b7184;stroke-width:1.08px;stroke-linejoin:miter;stroke-miterlimit:9;stroke:#0b7184;">N<tspan x="184.559px " y="101.031px ">E</tspan></text><text x="209.985px" y="101.031px" style="font-family:Asgalt;font-size:22.67px;fill:#0b7184;stroke-width:1.08px;stroke-linejoin:miter;stroke:#0b7184;">U<tspan x="220.93px " y="101.031px ">S</tspan></text><path d="M204.926,89.284l2.351,0l-5.038,6.045l4.702,6.046l-2.351,0l-3.358,-4.366l-4.031,4.366l-2.351,0l5.038,-5.71l-5.373,-6.381c0,0 2.059,2.257 4.366,2.351c0.467,0.019 2.015,2.351 2.015,2.351l4.03,-4.702Z" style="fill:#0b7184;"/><text x="155.536px" y="87.973px" style="font-family:Asgalt;font-size:22.67px;fill:#00b424;stroke-width:1px;stroke-linejoin:miter;stroke:#00b424;">P<tspan x="166.509px 177.453px " y="87.973px 87.973px ">EA</tspan></text><path d="M157.606,75.576c0,0 12.141,-2.763 13.12,-3.36c4.514,-2.756 6.048,-4.196 9.843,-8.432c2.078,-2.319 3.913,1.329 4.712,3.55c0.88,2.443 2.476,7.936 5.251,13.365c1.554,3.042 5.331,8.143 8.455,10.117c0.106,0.067 -2.157,0.165 -4.444,-2.365c-2.141,-2.368 -5.198,-6.435 -7.373,-11.406c-1.953,-4.464 -4.416,-7.802 -5.847,-8.216c-0.971,-0.281 -1.732,-0.055 -2.918,0.65c-1.224,0.728 -3.57,1.965 -6.392,3.681c-1.225,0.745 -4.921,1.437 -6.502,1.584c-3.799,0.354 -3.245,0.563 -7.905,0.832Z" style="fill:#0aa22c;"/><path d="M192.997,83.294c0,0 1.054,-0.595 2.405,-2.027c4.195,-4.447 4.136,-7.157 3.926,-6.867c-1.796,2.487 -3.933,5.531 -7.296,7.476c-0.079,0.045 0.965,1.418 0.965,1.418Z" style="fill:#00c12b;"/><path d="M189.527,82.622l0,6.046l2.351,0l0,-2.351c0,0 -1.221,-1.205 -2.351,-3.695Z" style="fill:#00c12b;"/><path d="M189.191,75.57l2.66,0.049c0,0 0.026,6.012 0.027,5.996c0,0 -1.406,-1.934 -2.687,-6.045Z" style="fill:#00b424;"/><path d="M193.615,83.544c0,0 5.08,-3.088 6.677,-9.663c0.004,-0.018 1.581,-1.39 1.91,-1.655c2.229,-1.797 2.561,-2.158 3.704,0.12c1.707,3.404 3.575,4.756 5.313,5.957c1.664,1.15 5.965,-3.276 6.952,-0.775c3.23,8.18 8.079,10.941 8.079,10.941c0,0 -3.841,0.216 -8.899,-8.443c-1.087,-1.862 -4.09,0.849 -5.848,-0.002c-4.178,-2.023 -5.391,-4.551 -7.316,-5.095c-0.696,-0.196 -1.315,-0.103 -2.001,0.195c-1.405,0.609 -1.546,1.496 -2.037,2.298c-2.459,4.018 -6.534,6.122 -6.534,6.122Z" style="fill:#0b7184;"/></g></g><g><text x="37.148px" y="102.112px" style="font-family:Asgalt;font-size:10.5px;fill:#d9d9d9;stroke-width:0.3px;stroke:#d9d9d9;">k<tspan x="41.968px 46.774px 48.997px 54.04px 59.279px 64.099px 73.065px 78.318px 83.309px 88.549px 93.369px 98.412px 103.402px 108.76px 113.58px 118.387px 120.648px 125.586px 130.406px " y="102.112px 102.112px 102.112px 102.112px 102.112px 102.112px 102.112px 102.112px 102.112px 102.112px 102.112px 102.112px 102.112px 102.112px 102.112px 102.112px 102.112px 102.112px 102.112px ">singh@peaknexus.com</tspan></text><path d="M29.94,95.776l3.586,1.852l0,3.704l-3.586,1.852l-3.585,-1.852l0,-3.704l3.585,-1.852Z" style="fill:#1da34a;"/></g><g><text x="37.388px" y="119.632px" style="font-family:Asgalt;font-size:10.5px;fill:#d9d9d9;stroke-width:0.3px;stroke:#d9d9d9;">5<tspan x="42.457px 47.526px 52.595px 54.857px 59.926px 64.995px 70.078px 72.339px 77.408px 82.478px 87.56px " y="119.632px 119.632px 119.632px 119.632px 119.632px 119.632px 119.632px 119.632px 119.632px 119.632px 119.632px ">16.439.3290</tspan></text><path d="M29.94,112.816l3.586,1.852l0,3.704l-3.586,1.852l-3.585,-1.852l0,-3.704l3.585,-1.852Z" style="fill:#1da34a;"/></g><g><path d="M29.94,128.659l3.586,1.852l0,3.704l-3.586,1.852l-3.585,-1.852l0,-3.704l3.585,-1.852Z" style="fill:#1da34a;"/><text x="37.388px" y="134.514px" style="font-family:Asgalt;font-size:10.5px;fill:#d9d9d9;stroke-width:0.3px;stroke-linejoin:miter;stroke:#d9d9d9;">w<tspan x="43.507px 49.626px 55.744px 58.006px 63.259px 68.249px 73.489px 78.309px 83.352px 88.343px 93.701px 98.521px 103.327px 105.589px 110.527px 115.347px " y="134.514px 134.514px 134.514px 134.514px 134.514px 134.514px 134.514px 134.514px 134.514px 134.514px 134.514px 134.514px 134.514px 134.514px 134.514px 134.514px ">ww.peaknexus.com</tspan></text></g><path d="M29.94,42.256l3.586,1.852l0,3.704l-3.586,1.852l-3.585,-1.852l0,-3.704l3.585,-1.852Z" style="fill:#2a7184;"/></svg>