<?xml version="1.0" standalone="no"?><!DOCTYPE svg PUBLIC "-//W3C//DTD SVG 1.1//EN" "http://www.w3.org/Graphics/SVG/1.1/DTD/svg11.dtd"><svg width="100%" height="100%" viewBox="0 0 252 144" version="1.1" xmlns="http://www.w3.org/2000/svg" xmlns:xlink="http://www.w3.org/1999/xlink" xml:space="preserve" style="fill-rule:evenodd;clip-rule:evenodd;stroke-linejoin:round;stroke-miterlimit:1.41421;"><rect id="Back" x="-10.68" y="-10.2" width="272.64" height="163.92" style="fill:#1a1a1a;"/><g><text x="63.491px" y="39.467px" style="font-family:Asgalt;font-size:12px;fill:#d9d9d9;stroke-width:0.3px;stroke:#d9d9d9;">F<tspan x="69.285px 74.793px 80.302px 86.065px 92.054px 97.757px 101.766px 107.215px 113.008px 118.802px " y="39.467px 39.467px 39.467px 39.467px 39.467px 39.467px 39.467px 39.467px 39.467px 39.467px ">ounder CEO</tspan></text><path d="M104.915,32.113l-1.164,-0.293l-2.693,10.707l1.163,0.293l2.694,-10.707Z" style="fill:#1da34a;stroke-width:0.34px;stroke-linejoin:miter;stroke:#1da34a;"/><text x="18.548px" y="28.009px" style="font-family:Asgalt;font-size:13.5px;fill:#1da34a;stroke-width:0.5px;stroke-linejoin:miter;stroke:#1da34a;">K<tspan x="26.179px 33.81px 41.441px 49.072px 57.125px 63.642px 70.16px 76.677px 83.212px 89.341px 96.973px 103.49px 111.543px 118.061px " y="28.009px 28.009px 28.009px 28.009px 28.009px 28.009px 28.009px 28.009px 28.009px 28.009px 28.009px 28.009px 28.009px 28.009px ">ARANDEEP SINGH</tspan></text></g><g><path d="M-9,72.36c0,0 14.521,0.082 25.2,-1.2c8.853,-1.063 13.81,1.37 22.56,1.2c8.75,-0.17 18.475,-1.485 26.16,-1.44c7.685,0.045 14.077,-0.908 23.28,-0.48c9.203,0.428 11.976,0.705 22.56,0c10.584,-0.705 13.139,0.41 21.36,-0.48c7.463,-0.808 13.693,-4.551 26.206,-4.596" style="fill:none;stroke-width:1.13px;stroke-linejoin:miter;stroke:#1da34a;"/><path d="M214.44,77.88c0,0 4.205,2.399 13.554,-0.24c3.39,-0.957 7.531,-1.018 11.752,-2.4c4.112,-1.346 10.821,-4.02 21.734,-3.6" style="fill:none;stroke-width:1.13px;stroke-linejoin:miter;stroke:#2a7184;"/><g><text x="162.036px" y="92.031px" style="font-family:Asgalt;font-size:22.67px;fill:#0b7184;stroke-width:1.08px;stroke-linejoin:miter;stroke-miterlimit:9;stroke:#0b7184;">N<tspan x="175.559px " y="92.031px ">E</tspan></text><text x="200.985px" y="92.031px" style="font-family:Asgalt;font-size:22.67px;fill:#0b7184;stroke-width:1.08px;stroke-linejoin:miter;stroke:#0b7184;">U<tspan x="211.93px " y="92.031px ">S</tspan></text><path d="M195.926,80.284l2.351,0l-5.038,6.045l4.702,6.046l-2.351,0l-3.358,-4.366l-4.031,4.366l-2.351,0l5.038,-5.71l-5.373,-6.381c0,0 2.059,2.257 4.366,2.351c0.467,0.019 2.015,2.351 2.015,2.351l4.03,-4.702Z" style="fill:#0b7184;"/><text x="146.536px" y="78.973px" style="font-family:Asgalt;font-size:22.67px;fill:#00b424;stroke-width:1px;stroke-linejoin:miter;stroke:#00b424;">P<tspan x="157.509px 168.453px " y="78.973px 78.973px ">EA</tspan></text><path d="M148.606,66.576c0,0 12.141,-2.763 13.12,-3.36c4.514,-2.756 6.048,-4.196 9.843,-8.432c2.078,-2.319 3.913,1.329 4.712,3.55c0.88,2.443 2.476,7.936 5.251,13.365c1.554,3.042 5.331,8.143 8.455,10.117c0.106,0.067 -2.157,0.165 -4.444,-2.365c-2.141,-2.368 -5.198,-6.435 -7.373,-11.406c-1.953,-4.464 -4.416,-7.802 -5.847,-8.216c-0.971,-0.281 -1.732,-0.055 -2.918,0.65c-1.224,0.728 -3.57,1.965 -6.392,3.681c-1.225,0.745 -4.921,1.437 -6.502,1.584c-3.799,0.354 -3.245,0.563 -7.905,0.832Z" style="fill:#0aa22c;"/><path d="M183.997,74.294c0,0 1.054,-0.595 2.405,-2.027c4.195,-4.447 4.136,-7.157 3.926,-6.867c-1.796,2.487 -3.933,5.531 -7.296,7.476c-0.079,0.045 0.965,1.418 0.965,1.418Z" style="fill:#00c12b;"/><path d="M180.527,73.622l0,6.046l2.351,0l0,-2.351c0,0 -1.221,-1.205 -2.351,-3.695Z" style="fill:#00c12b;"/><path d="M180.191,66.57l2.66,0.049c0,0 0.026,6.012 0.027,5.996c0,0 -1.406,-1.934 -2.687,-6.045Z" style="fill:#00b424;"/><path d="M184.615,74.544c0,0 5.08,-3.088 6.677,-9.663c0.004,-0.018 1.581,-1.39 1.91,-1.655c2.229,-1.797 2.561,-2.158 3.704,0.12c1.707,3.404 3.575,4.756 5.313,5.957c1.664,1.15 5.965,-3.276 6.952,-0.775c3.23,8.18 8.079,10.941 8.079,10.941c0,0 -3.841,0.216 -8.899,-8.443c-1.087,-1.862 -4.09,0.849 -5.848,-0.002c-4.178,-2.023 -5.391,-4.551 -7.316,-5.095c-0.696,-0.196 -1.315,-0.103 -2.001,0.195c-1.405,0.609 -1.546,1.496 -2.037,2.298c-2.459,4.018 -6.534,6.122 -6.534,6.122Z" style="fill:#0b7184;"/></g></g><g><text x="28.148px" y="93.112px" style="font-family:Asgalt;font-size:12px;fill:#d9d9d9;stroke-width:0.2px;stroke:#d9d9d9;">k<tspan x="33.656px 39.15px 41.689px 47.453px 53.441px 58.95px 69.197px 75.2px 80.903px 86.892px 92.4px 98.164px 103.867px 109.991px 115.499px 120.993px 123.577px 129.221px 134.729px " y="93.112px 93.112px 93.112px 93.112px 93.112px 93.112px 93.112px 93.112px 93.112px 93.112px 93.112px 93.112px 93.112px 93.112px 93.112px 93.112px 93.112px 93.112px 93.112px ">singh@peaknexus.com</tspan></text><path d="M20.94,86.776l3.586,1.852l0,3.704l-3.586,1.852l-3.585,-1.852l0,-3.704l3.585,-1.852Z" style="fill:#1da34a;"/></g><g><text x="28.388px" y="110.632px" style="font-family:Asgalt;font-size:12px;fill:#d9d9d9;stroke-width:0.2px;stroke:#d9d9d9;">5<tspan x="34.181px 39.975px 45.768px 48.352px 54.146px 59.939px 65.748px 68.332px 74.126px 79.919px 85.728px " y="110.632px 110.632px 110.632px 110.632px 110.632px 110.632px 110.632px 110.632px 110.632px 110.632px 110.632px ">16.439.3290</tspan></text><path d="M20.94,103.816l3.586,1.852l0,3.704l-3.586,1.852l-3.585,-1.852l0,-3.704l3.585,-1.852Z" style="fill:#1da34a;"/></g><g><path d="M20.94,119.659l3.586,1.852l0,3.704l-3.586,1.852l-3.585,-1.852l0,-3.704l3.585,-1.852Z" style="fill:#1da34a;"/><text x="28.388px" y="125.514px" style="font-family:Asgalt;font-size:12px;fill:#fff;stroke-width:0.2px;stroke-linejoin:miter;stroke:#d9d9d9;">w<tspan x="35.381px 42.374px 49.367px 51.951px 57.955px 63.658px 69.647px 75.155px 80.919px 86.622px 92.745px 98.254px 103.747px 106.332px 111.975px 117.484px " y="125.514px 125.514px 125.514px 125.514px 125.514px 125.514px 125.514px 125.514px 125.514px 125.514px 125.514px 125.514px 125.514px 125.514px 125.514px 125.514px ">ww.peaknexus.com</tspan></text></g></svg>