<?xml version="1.0" standalone="no"?><!DOCTYPE svg PUBLIC "-//W3C//DTD SVG 1.1//EN" "http://www.w3.org/Graphics/SVG/1.1/DTD/svg11.dtd"><svg width="100%" height="100%" viewBox="0 0 291 150" version="1.1" xmlns="http://www.w3.org/2000/svg" xmlns:xlink="http://www.w3.org/1999/xlink" xml:space="preserve" style="fill-rule:evenodd;clip-rule:evenodd;stroke-linejoin:round;stroke-miterlimit:1.41421;"><g><path d="M140.174,82.228c0,0 25.202,-8.527 57.461,-34.531c7.803,-6.291 8.967,-7.554 12.966,0.421c5.977,11.916 12.516,16.649 18.597,20.851c5.826,4.027 20.481,-11.297 24.337,-2.713c6.431,14.315 19.883,34.315 30.808,43.222c0.593,0.484 -15.267,-3.132 -33.678,-34.478c-3.823,-6.509 -14.316,2.974 -20.473,-0.007c-14.624,-7.08 -18.868,-15.931 -25.609,-17.832c-7.423,-2.094 -12.34,5.214 -29.066,13.537c-16.047,7.985 -26.217,18.639 -35.343,11.53Z" style="fill:#00cd26;"/><path d="M4.956,68.627c0,0 26.4,-7.762 53.054,-28.438c12.13,-9.41 24.632,-22.966 35.335,-35.916c5.861,-7.091 11.036,4.064 13.29,10.853c4.97,14.973 34.471,72.791 66.638,89.176c9.484,4.83 -30.406,-7.259 -57.312,-52.481c-6.793,-11.417 -15.511,-28.795 -19.542,-30.069c-7.562,-2.389 -17.309,12.903 -32.94,23.298c-25.651,17.057 -42.331,23.336 -58.523,23.577Z" style="fill:#0089ec;"/></g><g><g transform="matrix(7.66202,0,0,5.74652,-3565.7,-2827.21)"><text x="465.998px" y="510.623px" style="font-family:Asgalt;font-size:11.746px;fill:#00cd3a;">P<tspan x="469.851px 473.693px 478.262px " y="510.623px 510.623px 510.623px ">EAK</tspan></text><path d="M467.471,504.538l0.021,0l0.02,0.001l0.02,0l0.02,0.001l0.02,0.002l0.02,0.001l0.02,0.002l0.02,0.002l0.02,0.002l0.02,0.002l0.019,0.003l0.02,0.003l0.019,0.003l0.02,0.003l0.019,0.004l0.019,0.004l0.02,0.004l0.019,0.004l0.019,0.005l0.019,0.005l0.019,0.005l0.019,0.005l0.018,0.005l0.019,0.006l0.019,0.006l0.018,0.006l0.019,0.007l0.018,0.006l0.018,0.007l0.019,0.007l0.018,0.008l0.018,0.008l0.018,0.007l0.018,0.009l0.018,0.008l0.017,0.009l0.018,0.008l0.017,0.01l0.018,0.009l0.017,0.009l0.018,0.01l0.017,0.01l0.017,0.011l0.017,0.01l0.017,0.011l0.017,0.011l0.016,0.011l0.017,0.012l0.017,0.011l0.016,0.012l0.017,0.013l0.016,0.012l0.016,0.013l0.016,0.013l0.016,0.013l0.016,0.013l0.016,0.014l0.015,0.014l0.016,0.014l0.015,0.014l0.016,0.015l0.015,0.014l0.015,0.015l0.015,0.016l0.015,0.015l0.015,0.015l0.014,0.016l0.014,0.016l0.014,0.016l0.014,0.016l0.014,0.016l0.013,0.016l0.014,0.017l0.013,0.017l0.013,0.016l0.012,0.017l0.013,0.018l0.012,0.017l0.012,0.017l0.012,0.018l0.011,0.018l0.012,0.018l0.011,0.018l0.011,0.018l0.01,0.018l0.011,0.019l0.01,0.019l0.01,0.018l0.01,0.019l0.01,0.02l0.009,0.019l0.009,0.019l0.009,0.02l0.009,0.02l0.008,0.02l0.008,0.02l0.008,0.02l0.008,0.02l0.007,0.021l0.007,0.021l0.007,0.02l0.007,0.021l0.006,0.021l0.007,0.021l0.005,0.022l0.006,0.021l0.005,0.022l0.006,0.021l0.004,0.022l0.005,0.022l0.004,0.022l0.004,0.022l0.004,0.022l0.004,0.022l0.003,0.022l0.003,0.023l0.003,0.022l0.002,0.023l0.002,0.022l0.002,0.023l0.002,0.023l0.001,0.023l0.002,0.022l0,0.023l0.001,0.023l0,0.023l0.001,0.023l-0.001,0.024l0,0.023l-0.001,0.023l0,0.022l-0.002,0.023l-0.001,0.023l-0.002,0.023l-0.002,0.023l-0.002,0.022l-0.002,0.023l-0.003,0.022l-0.003,0.023l-0.003,0.022l-0.004,0.022l-0.004,0.022l-0.004,0.022l-0.004,0.022l-0.005,0.022l-0.004,0.022l-0.006,0.021l-0.005,0.022l-0.006,0.021l-0.005,0.021l-0.007,0.022l-0.006,0.021l-0.007,0.021l-0.007,0.02l-0.007,0.021l-0.007,0.02l-0.008,0.021l-0.008,0.02l-0.008,0.02l-0.008,0.02l-0.009,0.02l-0.009,0.019l-0.009,0.02l-0.009,0.019l-0.01,0.019l-0.01,0.019l-0.01,0.019l-0.01,0.019l-0.011,0.019l-0.01,0.018l-0.011,0.018l-0.011,0.018l-0.012,0.018l-0.011,0.018l-0.012,0.018l-0.012,0.017l-0.012,0.017l-0.013,0.017l-0.012,0.017l-0.013,0.017l-0.013,0.017l-0.014,0.017l-0.013,0.016l-0.014,0.016l-0.014,0.016l-0.014,0.016l-0.014,0.016l-0.014,0.016l-0.015,0.015l-0.015,0.015l-0.015,0.016l-0.015,0.015l-0.015,0.014l-0.016,0.015l-0.015,0.014l-0.016,0.014l-0.015,0.014l-0.016,0.014l-0.016,0.013l-0.016,0.013l-0.016,0.013l-0.016,0.013l-0.016,0.012l-0.017,0.012l-0.016,0.012l-0.017,0.012l-0.017,0.012l-0.016,0.011l-0.017,0.011l-0.017,0.011l-0.017,0.01l-0.017,0.011l-0.017,0.01l-0.018,0.009l-0.017,0.01l-0.018,0.009l-0.017,0.009l-0.018,0.009l-0.017,0.009l-0.018,0.008l-0.018,0.008l-0.018,0.008l-0.018,0.008l-0.018,0.007l-0.019,0.008l-0.018,0.007l-0.018,0.006l-0.019,0.007l-0.018,0.006l-0.019,0.006l-0.019,0.006l-0.018,0.005l-0.019,0.005l-0.019,0.005l-0.019,0.005l-0.019,0.005l-0.019,0.004l-0.02,0.004l-0.019,0.004l-0.019,0.004l-0.02,0.003l-0.019,0.003l-0.02,0.003l-0.019,0.003l-0.02,0.002l-0.02,0.002l-0.02,0.002l-0.02,0.002l-0.02,0.001l-0.02,0.002l-0.02,0.001l-0.02,0l-0.02,0.001l-0.021,0l-0.02,0l-0.772,0l0,-0.954l0.772,0l0.012,0l0.012,0l0.011,0l0.012,-0.001l0.011,0l0.012,-0.001l0.011,-0.001l0.012,-0.001l0.011,-0.001l0.011,-0.001l0.011,-0.002l0.011,-0.001l0.011,-0.002l0.011,-0.001l0.011,-0.002l0.011,-0.002l0.01,-0.003l0.011,-0.002l0.01,-0.002l0.011,-0.003l0.01,-0.002l0.011,-0.003l0.01,-0.003l0.01,-0.003l0.01,-0.003l0.01,-0.003l0.01,-0.004l0.01,-0.003l0.01,-0.004l0.01,-0.004l0.01,-0.004l0.009,-0.004l0.01,-0.004l0.01,-0.004l0.009,-0.004l0.01,-0.005l0.009,-0.005l0.009,-0.004l0.01,-0.005l0.009,-0.005l0.009,-0.005l0.009,-0.005l0.009,-0.006l0.009,-0.005l0.009,-0.006l0.009,-0.006l0.009,-0.005l0.009,-0.006l0.009,-0.007l0.009,-0.006l0.008,-0.006l0.009,-0.007l0.009,-0.006l0.008,-0.007l0.009,-0.007l0.008,-0.007l0.009,-0.007l0.008,-0.007l0.008,-0.008l0.009,-0.007l0.008,-0.008l0.008,-0.008l0.009,-0.008l0.008,-0.008l0.008,-0.008l0.008,-0.008l0.007,-0.008l0.008,-0.008l0.007,-0.008l0.007,-0.008l0.007,-0.009l0.007,-0.008l0.007,-0.008l0.006,-0.008l0.007,-0.008l0.006,-0.008l0.006,-0.008l0.006,-0.008l0.006,-0.009l0.005,-0.008l0.006,-0.008l0.005,-0.008l0.005,-0.008l0.005,-0.008l0.005,-0.008l0.004,-0.008l0.005,-0.008l0.004,-0.008l0.005,-0.008l0.004,-0.008l0.004,-0.008l0.004,-0.008l0.004,-0.008l0.003,-0.008l0.004,-0.008l0.003,-0.009l0.003,-0.008l0.004,-0.008l0.003,-0.008l0.003,-0.008l0.002,-0.008l0.003,-0.008l0.003,-0.008l0.002,-0.008l0.002,-0.008l0.003,-0.008l0.002,-0.009l0.002,-0.008l0.002,-0.008l0.002,-0.009l0.002,-0.008l0.001,-0.008l0.002,-0.009l0.001,-0.008l0.002,-0.009l0.001,-0.009l0.001,-0.008l0.001,-0.009l0.001,-0.009l0.001,-0.009l0.001,-0.009l0,-0.009l0.001,-0.01l0,-0.009l0.001,-0.009l0,-0.01l0,-0.009l0,-0.01l0,-0.01l0,-0.009l0,-0.01l-0.001,-0.009l0,-0.009l-0.001,-0.01l0,-0.009l-0.001,-0.009l-0.001,-0.009l-0.001,-0.009l-0.001,-0.008l-0.001,-0.009l-0.001,-0.009l-0.002,-0.008l-0.001,-0.009l-0.002,-0.008l-0.001,-0.008l-0.002,-0.009l-0.002,-0.008l-0.002,-0.008l-0.002,-0.008l-0.002,-0.009l-0.002,-0.008l-0.003,-0.008l-0.002,-0.008l-0.003,-0.008l-0.002,-0.008l-0.003,-0.008l-0.003,-0.008l-0.003,-0.008l-0.003,-0.008l-0.004,-0.007l-0.003,-0.008l-0.003,-0.008l-0.004,-0.008l-0.004,-0.008l-0.004,-0.008l-0.004,-0.008l-0.004,-0.008l-0.004,-0.008l-0.004,-0.008l-0.005,-0.007l-0.005,-0.008l-0.004,-0.008l-0.005,-0.008l-0.005,-0.008l-0.006,-0.008l-0.005,-0.008l-0.006,-0.008l-0.005,-0.008l-0.006,-0.008l-0.006,-0.008l-0.006,-0.008l-0.007,-0.008l-0.006,-0.008l-0.007,-0.008l-0.007,-0.008l-0.007,-0.008l-0.007,-0.008l-0.007,-0.008l-0.007,-0.008l-0.008,-0.008l-0.008,-0.007l-0.008,-0.008l-0.008,-0.008l-0.008,-0.008l-0.008,-0.008l-0.009,-0.007l-0.008,-0.008l-0.008,-0.007l-0.009,-0.007l-0.008,-0.007l-0.009,-0.007l-0.008,-0.007l-0.009,-0.006l-0.008,-0.007l-0.009,-0.006l-0.009,-0.007l-0.009,-0.006l-0.008,-0.006l-0.009,-0.006l-0.009,-0.005l-0.009,-0.006l-0.009,-0.006l-0.009,-0.005l-0.009,-0.005l-0.01,-0.005l-0.009,-0.005l-0.009,-0.005l-0.009,-0.005l-0.01,-0.005l-0.009,-0.004l-0.01,-0.005l-0.009,-0.004l-0.01,-0.004l-0.009,-0.004l-0.01,-0.004l-0.01,-0.004l-0.01,-0.004l-0.01,-0.003l-0.01,-0.004l-0.01,-0.003l-0.01,-0.003l-0.01,-0.004l-0.01,-0.003l-0.011,-0.002l-0.01,-0.003l-0.01,-0.003l-0.011,-0.002l-0.011,-0.003l-0.01,-0.002l-0.011,-0.002l-0.011,-0.002l-0.011,-0.002l-0.01,-0.002l-0.011,-0.001l-0.011,-0.002l-0.012,-0.001l-0.011,-0.001l-0.011,-0.001l-0.011,-0.001l-0.012,-0.001l-0.011,-0.001l-0.012,-0.001l-0.012,0l-0.011,0l-0.012,-0.001l-0.012,0l-0.868,0l0,5.428l-0.807,0l0,-6.382l1.675,0l0.02,0.001Z" style="fill:#00cd3a;"/><path d="M472.968,505.491l-2.532,0l0,1.755l1.805,0l0,0.954l-1.805,0l0,1.765l2.532,0l0,0.954l-3.339,0l0,-6.382l3.339,0l0,0.954Z" style="fill:#00cd3a;"/><path d="M477.607,510.791l-0.063,0.128l-0.751,0l-1.294,-4.11l-1.284,4.11l-0.751,0l-0.063,-0.127l1.988,-6.377l0.218,0l2,6.376ZM475.491,505.626l0.016,0l-0.008,-0.026l-0.008,0.026Z" style="fill:#00cd3a;"/><path d="M480.028,507.728l2.187,2.92l-0.084,0.271l-0.791,0l-2.036,-2.719l-0.458,0l0,2.719l-0.806,0l0,-6.382l0.806,0l0,2.709l0.458,0l2.037,-2.709l0.79,0l0.084,0.271l-2.187,2.92Z" style="fill:#00cd3a;"/></g><g transform="matrix(7.66202,0,0,5.74652,-3446.57,-2786.33)"><text x="465.998px" y="510.623px" style="font-family:Asgalt;font-size:11.746px;fill:#0089ec;">N<tspan x="470.842px 474.684px 479.704px 483.546px " y="510.623px 510.623px 510.623px 510.623px ">EXUS</tspan></text><path d="M470.117,510.954l-0.204,0.112l-3.33,-4.44l0,4.293l-0.807,0l0,-6.416l0.203,-0.113l3.331,4.43l0,-4.283l0.807,0l0,6.417ZM469.673,509.909l0,0l0,-0.001l0,0.001Z" style="fill:#0089ec;"/><path d="M473.959,504.537l0,0.955l-2.532,0l0,1.753l1.805,0l0,0.955l-1.805,0l0,1.764l2.532,0l0,0.955l-3.339,0l0,-6.382l3.339,0Z" style="fill:#0089ec;"/><path d="M476.72,506.936l1.504,-2.399l0.776,0l0.083,0.238l-1.864,2.965l1.842,2.942l-0.083,0.237l-0.776,0l-1.482,-2.366l-1.481,2.366l-0.776,0l-0.083,-0.237l1.842,-2.942l-1.864,-2.965l0.083,-0.238l0.776,0l1.503,2.399Z" style="fill:#0089ec;"/><path d="M482.821,509.193l-0.001,0.024l0,0.023l-0.001,0.023l-0.001,0.023l-0.002,0.023l-0.001,0.023l-0.002,0.022l-0.002,0.023l-0.003,0.023l-0.003,0.022l-0.003,0.023l-0.003,0.022l-0.003,0.023l-0.004,0.022l-0.004,0.022l-0.005,0.022l-0.004,0.022l-0.005,0.022l-0.005,0.022l-0.005,0.021l-0.006,0.022l-0.006,0.021l-0.006,0.021l-0.007,0.021l-0.006,0.021l-0.007,0.021l-0.007,0.021l-0.008,0.021l-0.007,0.02l-0.008,0.02l-0.008,0.021l-0.009,0.02l-0.008,0.02l-0.009,0.019l-0.009,0.02l-0.01,0.019l-0.009,0.02l-0.01,0.019l-0.01,0.019l-0.011,0.018l-0.01,0.019l-0.011,0.019l-0.011,0.018l-0.011,0.018l-0.011,0.018l-0.012,0.018l-0.012,0.018l-0.012,0.017l-0.012,0.017l-0.012,0.018l-0.013,0.017l-0.013,0.017l-0.013,0.016l-0.013,0.017l-0.014,0.016l-0.013,0.017l-0.014,0.016l-0.014,0.016l-0.015,0.015l-0.014,0.016l-0.015,0.016l-0.015,0.015l-0.015,0.015l-0.015,0.015l-0.015,0.015l-0.016,0.015l-0.015,0.014l-0.016,0.014l-0.015,0.014l-0.016,0.013l-0.016,0.014l-0.016,0.013l-0.016,0.013l-0.016,0.013l-0.017,0.012l-0.016,0.012l-0.017,0.012l-0.016,0.012l-0.017,0.012l-0.017,0.011l-0.017,0.011l-0.017,0.011l-0.017,0.01l-0.017,0.01l-0.017,0.011l-0.018,0.009l-0.017,0.01l-0.018,0.009l-0.017,0.009l-0.018,0.009l-0.018,0.009l-0.018,0.008l-0.018,0.008l-0.018,0.008l-0.018,0.008l-0.018,0.007l-0.018,0.008l-0.019,0.006l-0.018,0.007l-0.019,0.007l-0.018,0.006l-0.019,0.006l-0.019,0.006l-0.019,0.005l-0.019,0.005l-0.019,0.005l-0.019,0.005l-0.019,0.005l-0.019,0.004l-0.02,0.004l-0.019,0.004l-0.02,0.003l-0.019,0.004l-0.02,0.003l-0.02,0.003l-0.019,0.002l-0.02,0.003l-0.02,0.002l-0.02,0.002l-0.02,0.002l-0.02,0.001l-0.021,0.001l-0.02,0.001l-0.02,0.001l-0.021,0.001l-0.02,0l-0.021,0l-0.02,0l-0.021,0l-0.02,-0.001l-0.02,-0.001l-0.021,-0.001l-0.02,-0.001l-0.02,-0.001l-0.02,-0.002l-0.02,-0.002l-0.02,-0.002l-0.02,-0.003l-0.02,-0.002l-0.019,-0.003l-0.02,-0.003l-0.019,-0.004l-0.02,-0.003l-0.019,-0.004l-0.02,-0.004l-0.019,-0.004l-0.019,-0.005l-0.019,-0.005l-0.019,-0.005l-0.019,-0.005l-0.019,-0.005l-0.019,-0.006l-0.019,-0.006l-0.018,-0.006l-0.019,-0.007l-0.018,-0.007l-0.019,-0.006l-0.018,-0.008l-0.018,-0.007l-0.018,-0.008l-0.019,-0.008l-0.018,-0.008l-0.017,-0.008l-0.018,-0.009l-0.018,-0.009l-0.018,-0.009l-0.017,-0.009l-0.018,-0.01l-0.017,-0.009l-0.017,-0.011l-0.017,-0.01l-0.017,-0.01l-0.017,-0.011l-0.017,-0.011l-0.017,-0.011l-0.017,-0.012l-0.017,-0.012l-0.016,-0.012l-0.016,-0.012l-0.017,-0.012l-0.016,-0.013l-0.016,-0.013l-0.016,-0.013l-0.016,-0.014l-0.016,-0.013l-0.016,-0.014l-0.015,-0.014l-0.016,-0.014l-0.015,-0.015l-0.015,-0.015l-0.016,-0.015l-0.015,-0.015l-0.014,-0.015l-0.015,-0.016l-0.015,-0.016l-0.014,-0.015l-0.014,-0.016l-0.014,-0.016l-0.013,-0.017l-0.014,-0.016l-0.013,-0.017l-0.013,-0.016l-0.013,-0.017l-0.013,-0.017l-0.012,-0.018l-0.012,-0.017l-0.012,-0.017l-0.012,-0.018l-0.012,-0.018l-0.011,-0.018l-0.011,-0.018l-0.011,-0.018l-0.011,-0.019l-0.011,-0.019l-0.01,-0.018l-0.01,-0.019l-0.01,-0.019l-0.009,-0.02l-0.01,-0.019l-0.009,-0.02l-0.009,-0.019l-0.008,-0.02l-0.009,-0.02l-0.008,-0.02l-0.008,-0.021l-0.007,-0.02l-0.008,-0.021l-0.007,-0.021l-0.007,-0.021l-0.007,-0.021l-0.006,-0.021l-0.006,-0.021l-0.006,-0.021l-0.006,-0.022l-0.005,-0.021l-0.005,-0.022l-0.005,-0.022l-0.005,-0.022l-0.004,-0.022l-0.004,-0.022l-0.004,-0.022l-0.003,-0.023l-0.003,-0.022l-0.003,-0.023l-0.003,-0.022l-0.003,-0.023l-0.002,-0.023l-0.002,-0.022l-0.001,-0.023l-0.002,-0.023l-0.001,-0.023l-0.001,-0.023l-0.001,-0.023l0,-0.024l0,-0.022l0,-4.634l0.807,0l0,4.632l0,0.021l0.001,0.018l0.001,0.019l0.001,0.018l0.002,0.018l0.002,0.017l0.003,0.018l0.003,0.017l0.003,0.017l0.004,0.016l0.005,0.017l0.004,0.016l0.005,0.016l0.006,0.016l0.006,0.016l0.006,0.017l0.007,0.016l0.007,0.016l0.008,0.016l0.009,0.016l0.009,0.016l0.009,0.016l0.01,0.016l0.011,0.016l0.011,0.017l0.012,0.016l0.013,0.016l0.013,0.016l0.014,0.016l0.014,0.017l0.016,0.016l0.015,0.016l0.017,0.016l0.016,0.016l0.017,0.014l0.017,0.015l0.017,0.014l0.017,0.013l0.017,0.013l0.018,0.012l0.018,0.012l0.018,0.011l0.018,0.011l0.018,0.01l0.019,0.01l0.019,0.01l0.019,0.009l0.019,0.008l0.02,0.008l0.02,0.007l0.02,0.007l0.021,0.007l0.02,0.006l0.021,0.005l0.022,0.005l0.021,0.004l0.022,0.004l0.022,0.004l0.023,0.003l0.022,0.002l0.023,0.002l0.024,0.001l0.023,0.001l0.024,0l0.012,0l0.012,0l0.012,0l0.012,-0.001l0.012,0l0.011,-0.001l0.012,-0.001l0.011,-0.001l0.012,-0.001l0.011,-0.001l0.012,-0.002l0.011,-0.001l0.011,-0.002l0.011,-0.002l0.011,-0.002l0.011,-0.002l0.011,-0.002l0.01,-0.002l0.011,-0.002l0.011,-0.003l0.01,-0.003l0.011,-0.002l0.01,-0.003l0.01,-0.003l0.01,-0.004l0.011,-0.003l0.01,-0.003l0.01,-0.004l0.01,-0.003l0.01,-0.004l0.01,-0.004l0.009,-0.004l0.01,-0.004l0.01,-0.004l0.009,-0.005l0.01,-0.004l0.009,-0.005l0.01,-0.005l0.009,-0.005l0.009,-0.005l0.01,-0.005l0.009,-0.005l0.009,-0.005l0.009,-0.006l0.009,-0.005l0.009,-0.006l0.009,-0.006l0.009,-0.006l0.009,-0.006l0.008,-0.006l0.009,-0.007l0.009,-0.006l0.009,-0.007l0.008,-0.006l0.009,-0.007l0.008,-0.007l0.009,-0.007l0.008,-0.008l0.008,-0.007l0.009,-0.007l0.008,-0.008l0.008,-0.008l0.008,-0.008l0.008,-0.008l0.008,-0.008l0.008,-0.008l0.008,-0.008l0.007,-0.008l0.008,-0.008l0.007,-0.008l0.007,-0.009l0.007,-0.008l0.006,-0.008l0.007,-0.008l0.006,-0.008l0.007,-0.008l0.006,-0.008l0.005,-0.009l0.006,-0.008l0.006,-0.008l0.005,-0.008l0.005,-0.008l0.006,-0.008l0.005,-0.008l0.004,-0.008l0.005,-0.008l0.005,-0.008l0.004,-0.008l0.004,-0.008l0.005,-0.008l0.004,-0.008l0.003,-0.008l0.004,-0.008l0.004,-0.008l0.003,-0.008l0.004,-0.008l0.003,-0.009l0.003,-0.008l0.003,-0.008l0.003,-0.008l0.003,-0.008l0.003,-0.008l0.002,-0.008l0.003,-0.008l0.002,-0.008l0.002,-0.008l0.002,-0.009l0.003,-0.008l0.002,-0.008l0.001,-0.008l0.002,-0.009l0.002,-0.008l0.001,-0.009l0.002,-0.008l0.001,-0.009l0.001,-0.009l0.002,-0.008l0.001,-0.009l0.001,-0.009l0.001,-0.009l0,-0.009l0.001,-0.009l0.001,-0.009l0,-0.01l0,-0.009l0.001,-0.009l0,-0.01l0,-0.011l0,-4.632l0.807,0l0,4.634l0,0.022Z" style="fill:#0089ec;"/><path d="M486.663,505.492l-1.575,0l-0.014,0l-0.013,0l-0.013,0.001l-0.013,0l-0.013,0.001l-0.013,0.001l-0.013,0l-0.013,0.002l-0.012,0.001l-0.013,0.001l-0.012,0.002l-0.013,0.001l-0.012,0.002l-0.012,0.002l-0.012,0.002l-0.012,0.002l-0.012,0.003l-0.012,0.002l-0.012,0.003l-0.012,0.003l-0.011,0.002l-0.012,0.003l-0.011,0.004l-0.012,0.003l-0.011,0.003l-0.011,0.004l-0.012,0.004l-0.011,0.003l-0.011,0.004l-0.011,0.005l-0.011,0.004l-0.011,0.004l-0.01,0.005l-0.011,0.004l-0.011,0.005l-0.01,0.005l-0.011,0.005l-0.01,0.005l-0.011,0.006l-0.01,0.005l-0.01,0.006l-0.01,0.005l-0.011,0.006l-0.01,0.006l-0.01,0.006l-0.01,0.006l-0.009,0.007l-0.01,0.006l-0.01,0.007l-0.01,0.007l-0.009,0.007l-0.01,0.007l-0.01,0.007l-0.009,0.007l-0.01,0.008l-0.009,0.007l-0.009,0.008l-0.01,0.008l-0.009,0.008l-0.009,0.008l-0.009,0.009l-0.009,0.008l-0.009,0.009l-0.009,0.008l-0.009,0.009l-0.009,0.009l-0.008,0.009l-0.009,0.009l-0.008,0.008l-0.008,0.009l-0.007,0.009l-0.008,0.009l-0.007,0.009l-0.008,0.009l-0.007,0.009l-0.006,0.009l-0.007,0.008l-0.007,0.009l-0.006,0.009l-0.006,0.009l-0.006,0.009l-0.006,0.009l-0.006,0.009l-0.005,0.009l-0.006,0.009l-0.005,0.009l-0.005,0.008l-0.005,0.009l-0.005,0.009l-0.004,0.009l-0.005,0.009l-0.004,0.009l-0.004,0.009l-0.005,0.009l-0.003,0.009l-0.004,0.009l-0.004,0.009l-0.003,0.009l-0.004,0.009l-0.003,0.008l-0.003,0.01l-0.003,0.009l-0.003,0.009l-0.003,0.009l-0.003,0.009l-0.002,0.009l-0.003,0.009l-0.002,0.01l-0.002,0.009l-0.002,0.009l-0.002,0.01l-0.002,0.009l-0.002,0.01l-0.002,0.009l-0.001,0.01l-0.002,0.01l-0.001,0.009l-0.001,0.01l-0.001,0.01l-0.001,0.01l-0.001,0.011l-0.001,0.01l0,0.01l-0.001,0.011l0,0.01l-0.001,0.011l0,0.011l0,0.011l0,0.021l0.001,0.021l0.001,0.021l0.002,0.021l0.002,0.02l0.002,0.02l0.003,0.019l0.004,0.02l0.004,0.019l0.004,0.018l0.005,0.019l0.005,0.019l0.006,0.018l0.006,0.018l0.007,0.018l0.007,0.019l0.008,0.018l0.008,0.018l0.009,0.018l0.01,0.018l0.01,0.018l0.01,0.018l0.012,0.018l0.012,0.018l0.012,0.018l0.014,0.018l0.014,0.018l0.014,0.019l0.016,0.018l0.016,0.018l0.016,0.018l0.018,0.018l0.018,0.017l0.018,0.017l0.019,0.017l0.018,0.016l0.019,0.015l0.019,0.015l0.02,0.014l0.019,0.014l0.02,0.013l0.02,0.012l0.02,0.012l0.02,0.012l0.021,0.01l0.021,0.011l0.021,0.01l0.021,0.009l0.022,0.009l0.022,0.008l0.022,0.007l0.023,0.008l0.023,0.006l0.023,0.006l0.023,0.006l0.024,0.004l0.024,0.005l0.025,0.004l0.024,0.003l0.026,0.002l0.025,0.002l0.026,0.002l0.026,0.001l0.013,0l0.014,0l0.631,0l0.025,0.002l0.021,0.001l0.021,0.002l0.021,0.002l0.021,0.002l0.02,0.002l0.021,0.003l0.02,0.003l0.021,0.003l0.02,0.003l0.02,0.003l0.02,0.004l0.02,0.004l0.02,0.004l0.02,0.005l0.02,0.004l0.019,0.005l0.02,0.005l0.02,0.005l0.019,0.006l0.019,0.006l0.02,0.006l0.019,0.006l0.019,0.006l0.019,0.007l0.019,0.007l0.019,0.007l0.018,0.008l0.019,0.007l0.018,0.008l0.019,0.008l0.018,0.009l0.019,0.008l0.018,0.009l0.018,0.009l0.018,0.009l0.018,0.01l0.017,0.01l0.018,0.01l0.018,0.01l0.017,0.011l0.018,0.01l0.017,0.011l0.017,0.011l0.017,0.012l0.017,0.011l0.017,0.012l0.017,0.012l0.016,0.013l0.017,0.012l0.016,0.013l0.017,0.013l0.016,0.014l0.016,0.013l0.016,0.014l0.016,0.014l0.016,0.014l0.015,0.014l0.016,0.015l0.015,0.015l0.016,0.015l0.015,0.015l0.015,0.016l0.015,0.016l0.015,0.016l0.014,0.016l0.015,0.016l0.014,0.016l0.014,0.017l0.014,0.016l0.013,0.017l0.014,0.017l0.013,0.017l0.013,0.017l0.013,0.018l0.012,0.017l0.013,0.018l0.012,0.017l0.012,0.018l0.012,0.018l0.011,0.019l0.012,0.018l0.011,0.018l0.011,0.019l0.01,0.019l0.011,0.019l0.01,0.019l0.01,0.019l0.01,0.019l0.01,0.02l0.009,0.02l0.009,0.019l0.009,0.02l0.009,0.02l0.008,0.021l0.008,0.02l0.008,0.02l0.008,0.021l0.008,0.021l0.007,0.021l0.007,0.021l0.006,0.021l0.007,0.021l0.006,0.021l0.006,0.022l0.006,0.021l0.005,0.022l0.006,0.022l0.005,0.022l0.004,0.022l0.005,0.022l0.004,0.022l0.004,0.022l0.004,0.023l0.003,0.022l0.003,0.023l0.003,0.022l0.003,0.023l0.002,0.023l0.003,0.023l0.001,0.023l0.002,0.023l0.001,0.023l0.002,0.023l0,0.023l0.001,0.023l0,0.023l0.001,0.024l-0.001,0.023l0,0.023l-0.001,0.023l0,0.024l-0.002,0.023l-0.001,0.023l-0.002,0.023l-0.001,0.023l-0.003,0.022l-0.002,0.023l-0.003,0.023l-0.003,0.022l-0.003,0.023l-0.003,0.023l-0.004,0.022l-0.004,0.022l-0.004,0.022l-0.005,0.023l-0.004,0.022l-0.005,0.021l-0.006,0.022l-0.005,0.022l-0.006,0.022l-0.006,0.021l-0.006,0.021l-0.007,0.022l-0.006,0.021l-0.007,0.021l-0.007,0.021l-0.008,0.02l-0.008,0.021l-0.008,0.02l-0.008,0.021l-0.008,0.02l-0.009,0.02l-0.009,0.02l-0.009,0.02l-0.009,0.019l-0.01,0.02l-0.01,0.019l-0.01,0.02l-0.01,0.019l-0.011,0.019l-0.01,0.018l-0.011,0.019l-0.011,0.018l-0.012,0.019l-0.011,0.018l-0.012,0.018l-0.012,0.018l-0.012,0.018l-0.013,0.017l-0.012,0.018l-0.013,0.017l-0.013,0.017l-0.013,0.017l-0.014,0.017l-0.013,0.017l-0.014,0.017l-0.014,0.016l-0.014,0.016l-0.015,0.017l-0.014,0.016l-0.015,0.016l-0.015,0.015l-0.015,0.016l-0.015,0.015l-0.016,0.015l-0.015,0.015l-0.016,0.015l-0.015,0.014l-0.016,0.015l-0.016,0.014l-0.016,0.013l-0.016,0.014l-0.016,0.013l-0.017,0.013l-0.016,0.013l-0.017,0.013l-0.016,0.012l-0.017,0.012l-0.017,0.012l-0.017,0.012l-0.017,0.011l-0.017,0.011l-0.017,0.011l-0.018,0.011l-0.017,0.01l-0.018,0.011l-0.018,0.01l-0.017,0.009l-0.018,0.01l-0.018,0.009l-0.018,0.009l-0.018,0.009l-0.019,0.009l-0.018,0.008l-0.019,0.008l-0.018,0.008l-0.019,0.008l-0.018,0.007l-0.019,0.007l-0.019,0.007l-0.019,0.007l-0.019,0.006l-0.019,0.007l-0.02,0.006l-0.019,0.005l-0.019,0.006l-0.02,0.005l-0.02,0.005l-0.019,0.005l-0.02,0.005l-0.02,0.004l-0.02,0.004l-0.02,0.004l-0.02,0.004l-0.02,0.004l-0.02,0.003l-0.021,0.003l-0.02,0.003l-0.021,0.002l-0.02,0.003l-0.021,0.002l-0.021,0.002l-0.021,0.001l-0.021,0.002l-0.025,0.001l-2.395,0l0,-0.955l2.302,0l0.014,0l0.013,0l0.013,0l0.013,-0.001l0.013,-0.001l0.013,0l0.013,-0.001l0.012,-0.001l0.013,-0.002l0.012,-0.001l0.013,-0.001l0.012,-0.002l0.012,-0.002l0.013,-0.002l0.012,-0.002l0.012,-0.002l0.012,-0.002l0.012,-0.003l0.011,-0.003l0.012,-0.002l0.012,-0.003l0.011,-0.003l0.012,-0.003l0.011,-0.004l0.012,-0.003l0.011,-0.004l0.011,-0.003l0.011,-0.004l0.011,-0.004l0.011,-0.004l0.011,-0.005l0.011,-0.004l0.011,-0.004l0.011,-0.005l0.01,-0.005l0.011,-0.005l0.01,-0.005l0.011,-0.005l0.01,-0.005l0.011,-0.006l0.01,-0.005l0.01,-0.006l0.01,-0.006l0.01,-0.006l0.01,-0.006l0.01,-0.006l0.01,-0.007l0.01,-0.006l0.01,-0.007l0.009,-0.007l0.01,-0.006l0.01,-0.008l0.009,-0.007l0.01,-0.007l0.009,-0.008l0.01,-0.007l0.009,-0.008l0.009,-0.008l0.009,-0.008l0.01,-0.008l0.009,-0.008l0.009,-0.009l0.009,-0.008l0.009,-0.009l0.009,-0.009l0.008,-0.009l0.009,-0.009l0.008,-0.008l0.008,-0.009l0.008,-0.009l0.008,-0.009l0.007,-0.009l0.008,-0.009l0.007,-0.009l0.007,-0.009l0.007,-0.008l0.007,-0.009l0.006,-0.009l0.007,-0.009l0.006,-0.009l0.006,-0.009l0.006,-0.009l0.005,-0.009l0.006,-0.009l0.005,-0.008l0.006,-0.009l0.005,-0.009l0.005,-0.009l0.004,-0.009l0.005,-0.009l0.004,-0.009l0.005,-0.009l0.004,-0.009l0.004,-0.009l0.004,-0.008l0.004,-0.009l0.003,-0.009l0.004,-0.009l0.003,-0.009l0.004,-0.009l0.003,-0.009l0.003,-0.009l0.003,-0.009l0.003,-0.01l0.002,-0.009l0.003,-0.009l0.002,-0.009l0.003,-0.009l0.002,-0.01l0.002,-0.009l0.002,-0.009l0.002,-0.01l0.002,-0.009l0.001,-0.01l0.002,-0.01l0.001,-0.009l0.001,-0.01l0.002,-0.01l0.001,-0.01l0.001,-0.01l0.001,-0.01l0,-0.011l0.001,-0.01l0.001,-0.01l0,-0.011l0,-0.011l0,-0.01l0.001,-0.011l-0.001,-0.011l0,-0.011l0,-0.011l0,-0.01l-0.001,-0.011l-0.001,-0.01l0,-0.01l-0.001,-0.01l-0.001,-0.011l-0.001,-0.01l-0.002,-0.009l-0.001,-0.01l-0.001,-0.01l-0.002,-0.01l-0.001,-0.009l-0.002,-0.01l-0.002,-0.009l-0.002,-0.01l-0.002,-0.009l-0.002,-0.009l-0.003,-0.01l-0.002,-0.009l-0.003,-0.009l-0.002,-0.009l-0.003,-0.009l-0.003,-0.009l-0.003,-0.009l-0.003,-0.009l-0.004,-0.009l-0.003,-0.009l-0.004,-0.009l-0.003,-0.009l-0.004,-0.009l-0.004,-0.009l-0.004,-0.009l-0.004,-0.009l-0.005,-0.009l-0.004,-0.009l-0.005,-0.009l-0.004,-0.009l-0.005,-0.008l-0.005,-0.009l-0.006,-0.009l-0.005,-0.009l-0.006,-0.009l-0.005,-0.009l-0.006,-0.009l-0.006,-0.009l-0.006,-0.009l-0.007,-0.008l-0.006,-0.009l-0.007,-0.009l-0.007,-0.009l-0.007,-0.009l-0.007,-0.009l-0.008,-0.009l-0.007,-0.009l-0.008,-0.009l-0.008,-0.008l-0.008,-0.009l-0.008,-0.009l-0.009,-0.009l-0.008,-0.009l-0.009,-0.008l-0.009,-0.009l-0.009,-0.009l-0.009,-0.008l-0.009,-0.009l-0.01,-0.008l-0.009,-0.008l-0.009,-0.008l-0.009,-0.008l-0.01,-0.007l-0.009,-0.008l-0.01,-0.007l-0.009,-0.007l-0.01,-0.007l-0.01,-0.007l-0.009,-0.007l-0.01,-0.007l-0.01,-0.006l-0.01,-0.006l-0.01,-0.007l-0.01,-0.006l-0.01,-0.006l-0.01,-0.006l-0.01,-0.005l-0.01,-0.006l-0.011,-0.005l-0.01,-0.006l-0.011,-0.005l-0.01,-0.005l-0.011,-0.005l-0.01,-0.005l-0.011,-0.004l-0.011,-0.005l-0.011,-0.004l-0.011,-0.004l-0.011,-0.004l-0.011,-0.004l-0.011,-0.004l-0.011,-0.004l-0.011,-0.004l-0.012,-0.003l-0.011,-0.003l-0.012,-0.003l-0.011,-0.003l-0.012,-0.003l-0.012,-0.003l-0.011,-0.003l-0.012,-0.002l-0.012,-0.003l-0.012,-0.002l-0.012,-0.002l-0.013,-0.002l-0.012,-0.002l-0.012,-0.001l-0.013,-0.002l-0.012,-0.001l-0.013,-0.001l-0.012,-0.001l-0.013,-0.001l-0.013,-0.001l-0.013,-0.001l-0.013,0l-0.013,-0.001l-0.013,0l-0.014,0l-0.849,0l0,-0.035l-0.014,-0.002l-0.02,-0.004l-0.02,-0.004l-0.02,-0.004l-0.019,-0.004l-0.02,-0.005l-0.02,-0.005l-0.019,-0.005l-0.02,-0.005l-0.019,-0.006l-0.02,-0.006l-0.019,-0.006l-0.019,-0.006l-0.019,-0.006l-0.019,-0.007l-0.019,-0.007l-0.019,-0.007l-0.019,-0.008l-0.018,-0.007l-0.019,-0.008l-0.018,-0.008l-0.019,-0.009l-0.018,-0.008l-0.018,-0.009l-0.018,-0.009l-0.018,-0.009l-0.018,-0.01l-0.018,-0.01l-0.017,-0.01l-0.018,-0.01l-0.018,-0.01l-0.017,-0.011l-0.017,-0.011l-0.017,-0.011l-0.017,-0.012l-0.017,-0.011l-0.017,-0.012l-0.017,-0.012l-0.017,-0.013l-0.016,-0.012l-0.017,-0.013l-0.016,-0.013l-0.016,-0.013l-0.016,-0.014l-0.016,-0.014l-0.016,-0.014l-0.016,-0.014l-0.016,-0.014l-0.015,-0.015l-0.016,-0.015l-0.015,-0.015l-0.015,-0.015l-0.015,-0.016l-0.015,-0.016l-0.015,-0.015l-0.015,-0.017l-0.014,-0.016l-0.014,-0.016l-0.014,-0.017l-0.014,-0.016l-0.014,-0.017l-0.013,-0.017l-0.013,-0.017l-0.013,-0.017l-0.013,-0.017l-0.013,-0.018l-0.012,-0.017l-0.012,-0.018l-0.012,-0.018l-0.012,-0.018l-0.012,-0.018l-0.011,-0.019l-0.011,-0.018l-0.011,-0.019l-0.011,-0.019l-0.01,-0.018l-0.011,-0.02l-0.01,-0.019l-0.009,-0.019l-0.01,-0.02l-0.009,-0.019l-0.01,-0.02l-0.008,-0.02l-0.009,-0.02l-0.009,-0.02l-0.008,-0.021l-0.008,-0.02l-0.007,-0.021l-0.008,-0.021l-0.007,-0.02l-0.007,-0.021l-0.007,-0.022l-0.006,-0.021l-0.007,-0.021l-0.006,-0.022l-0.005,-0.021l-0.006,-0.022l-0.005,-0.022l-0.005,-0.022l-0.005,-0.022l-0.004,-0.022l-0.005,-0.022l-0.003,-0.022l-0.004,-0.023l-0.004,-0.022l-0.003,-0.023l-0.003,-0.022l-0.002,-0.023l-0.003,-0.023l-0.002,-0.023l-0.002,-0.023l-0.001,-0.023l-0.002,-0.023l-0.001,-0.023l-0.001,-0.023l-0.001,-0.023l0,-0.023l0,-0.023l0,-0.024l0,-0.023l0.001,-0.023l0.001,-0.023l0.001,-0.023l0.002,-0.023l0.001,-0.023l0.002,-0.023l0.002,-0.023l0.003,-0.023l0.002,-0.023l0.003,-0.022l0.003,-0.023l0.004,-0.022l0.004,-0.023l0.003,-0.022l0.005,-0.022l0.004,-0.022l0.005,-0.022l0.005,-0.022l0.005,-0.022l0.006,-0.022l0.005,-0.021l0.006,-0.022l0.007,-0.021l0.006,-0.021l0.007,-0.022l0.007,-0.021l0.007,-0.02l0.008,-0.021l0.007,-0.021l0.008,-0.02l0.008,-0.021l0.009,-0.02l0.009,-0.02l0.008,-0.02l0.01,-0.02l0.009,-0.019l0.01,-0.02l0.009,-0.019l0.01,-0.019l0.011,-0.019l0.01,-0.019l0.011,-0.019l0.011,-0.019l0.011,-0.018l0.011,-0.019l0.012,-0.018l0.012,-0.018l0.012,-0.018l0.012,-0.017l0.012,-0.018l0.013,-0.018l0.013,-0.017l0.013,-0.017l0.013,-0.017l0.013,-0.017l0.014,-0.017l0.014,-0.016l0.014,-0.017l0.014,-0.016l0.014,-0.016l0.015,-0.016l0.015,-0.016l0.015,-0.016l0.015,-0.016l0.015,-0.015l0.015,-0.015l0.016,-0.015l0.015,-0.015l0.016,-0.014l0.016,-0.014l0.016,-0.014l0.016,-0.014l0.016,-0.014l0.016,-0.013l0.016,-0.013l0.017,-0.013l0.016,-0.012l0.017,-0.013l0.017,-0.012l0.017,-0.012l0.017,-0.011l0.017,-0.012l0.017,-0.011l0.017,-0.011l0.017,-0.011l0.018,-0.01l0.018,-0.01l0.017,-0.01l0.018,-0.01l0.018,-0.01l0.018,-0.009l0.018,-0.009l0.018,-0.009l0.018,-0.008l0.019,-0.009l0.018,-0.008l0.019,-0.008l0.018,-0.007l0.019,-0.008l0.019,-0.007l0.019,-0.007l0.019,-0.007l0.019,-0.006l0.019,-0.006l0.019,-0.006l0.02,-0.006l0.019,-0.006l0.02,-0.005l0.019,-0.005l0.02,-0.005l0.02,-0.005l0.019,-0.004l0.02,-0.004l0.02,-0.004l0.021,-0.004l0.02,-0.003l0.02,-0.004l0.02,-0.003l0.021,-0.002l0.02,-0.003l0.021,-0.002l0.021,-0.002l0.02,-0.002l0.021,-0.002l0.021,-0.002l0.025,-0.001l1.669,0l0,0.955Z" style="fill:#0089ec;"/></g></g></svg>