<?xml version="1.0" standalone="no"?><!DOCTYPE svg PUBLIC "-//W3C//DTD SVG 1.1//EN" "http://www.w3.org/Graphics/SVG/1.1/DTD/svg11.dtd"><svg width="100%" height="100%" viewBox="0 0 300 149" version="1.1" xmlns="http://www.w3.org/2000/svg" xmlns:xlink="http://www.w3.org/1999/xlink" xml:space="preserve" style="fill-rule:evenodd;clip-rule:evenodd;stroke-linejoin:round;stroke-miterlimit:1.41421;"><g transform="matrix(7.66202,0,0,5.74652,-3406.57,-2798.49)"><text x="465.998px" y="510.623px" style="font-family:Asgalt;font-size:11.746px;fill:#0089ec;">E<tspan x="469.899px 474.977px 478.878px " y="510.623px 510.623px 510.623px ">XUS</tspan></text><path d="M469.115,504.537l0,0.955l-2.532,0l0,1.753l1.805,0l0,0.955l-1.805,0l0,1.764l2.532,0l0,0.955l-3.339,0l0,-6.382l3.339,0Z" style="fill:#0089ec;"/><path d="M474.215,504.537l0.083,0.238l-1.864,2.965l1.842,2.942l-0.084,0.237l-0.775,0l-1.482,-2.366l-1.481,2.366l-0.776,0l-0.083,-0.237l1.842,-2.942l-1.864,-2.965l0.083,-0.238l0.776,0l1.503,2.399l1.504,-2.399l0.776,0Z" style="fill:#0089ec;"/><path d="M478.095,504.537l0,4.634l-0.001,0.022l0,0.024l-0.001,0.023l-0.001,0.023l-0.001,0.023l-0.001,0.023l-0.002,0.023l-0.002,0.022l-0.002,0.023l-0.002,0.023l-0.003,0.022l-0.003,0.023l-0.003,0.022l-0.004,0.023l-0.004,0.022l-0.004,0.022l-0.004,0.022l-0.005,0.022l-0.004,0.022l-0.006,0.022l-0.005,0.021l-0.005,0.022l-0.006,0.021l-0.007,0.021l-0.006,0.021l-0.007,0.021l-0.006,0.021l-0.008,0.021l-0.007,0.021l-0.008,0.02l-0.008,0.021l-0.008,0.02l-0.008,0.02l-0.009,0.02l-0.009,0.019l-0.009,0.02l-0.009,0.019l-0.01,0.02l-0.01,0.019l-0.01,0.019l-0.01,0.018l-0.01,0.019l-0.011,0.019l-0.011,0.018l-0.011,0.018l-0.012,0.018l-0.011,0.018l-0.012,0.018l-0.012,0.017l-0.012,0.017l-0.013,0.018l-0.012,0.017l-0.013,0.017l-0.013,0.016l-0.014,0.017l-0.013,0.016l-0.014,0.017l-0.014,0.016l-0.014,0.016l-0.014,0.015l-0.014,0.016l-0.015,0.016l-0.015,0.015l-0.015,0.015l-0.015,0.015l-0.016,0.015l-0.015,0.015l-0.015,0.014l-0.016,0.014l-0.016,0.014l-0.016,0.013l-0.015,0.014l-0.016,0.013l-0.017,0.013l-0.016,0.013l-0.016,0.012l-0.017,0.012l-0.016,0.012l-0.017,0.012l-0.016,0.012l-0.017,0.011l-0.017,0.011l-0.017,0.011l-0.017,0.01l-0.017,0.01l-0.018,0.011l-0.017,0.009l-0.017,0.01l-0.018,0.009l-0.018,0.009l-0.017,0.009l-0.018,0.009l-0.018,0.008l-0.018,0.008l-0.018,0.008l-0.018,0.008l-0.018,0.007l-0.019,0.008l-0.018,0.006l-0.019,0.007l-0.018,0.007l-0.019,0.006l-0.019,0.006l-0.018,0.006l-0.019,0.005l-0.019,0.005l-0.019,0.005l-0.019,0.005l-0.02,0.005l-0.019,0.004l-0.019,0.004l-0.02,0.004l-0.019,0.003l-0.02,0.004l-0.019,0.003l-0.02,0.003l-0.02,0.002l-0.02,0.003l-0.02,0.002l-0.02,0.002l-0.02,0.002l-0.02,0.001l-0.02,0.001l-0.02,0.001l-0.021,0.001l-0.02,0.001l-0.02,0l-0.021,0l-0.021,0l-0.02,0l-0.02,-0.001l-0.021,-0.001l-0.02,-0.001l-0.02,-0.001l-0.02,-0.001l-0.02,-0.002l-0.02,-0.002l-0.02,-0.002l-0.02,-0.003l-0.02,-0.002l-0.02,-0.003l-0.019,-0.003l-0.02,-0.004l-0.019,-0.003l-0.02,-0.004l-0.019,-0.004l-0.019,-0.004l-0.02,-0.005l-0.019,-0.005l-0.019,-0.005l-0.019,-0.005l-0.019,-0.005l-0.018,-0.006l-0.019,-0.006l-0.019,-0.006l-0.018,-0.007l-0.019,-0.007l-0.018,-0.006l-0.018,-0.008l-0.019,-0.007l-0.018,-0.008l-0.018,-0.008l-0.018,-0.008l-0.018,-0.008l-0.018,-0.009l-0.017,-0.009l-0.018,-0.009l-0.018,-0.009l-0.017,-0.01l-0.017,-0.009l-0.018,-0.011l-0.017,-0.01l-0.017,-0.01l-0.017,-0.011l-0.017,-0.011l-0.017,-0.011l-0.016,-0.012l-0.017,-0.012l-0.016,-0.012l-0.017,-0.012l-0.016,-0.012l-0.016,-0.013l-0.017,-0.013l-0.016,-0.013l-0.015,-0.014l-0.016,-0.013l-0.016,-0.014l-0.016,-0.014l-0.015,-0.014l-0.015,-0.015l-0.016,-0.015l-0.015,-0.015l-0.015,-0.015l-0.015,-0.015l-0.014,-0.016l-0.015,-0.016l-0.014,-0.015l-0.014,-0.016l-0.014,-0.016l-0.014,-0.017l-0.013,-0.016l-0.014,-0.017l-0.013,-0.016l-0.012,-0.017l-0.013,-0.017l-0.013,-0.018l-0.012,-0.017l-0.012,-0.017l-0.012,-0.018l-0.011,-0.018l-0.012,-0.018l-0.011,-0.018l-0.011,-0.018l-0.011,-0.019l-0.01,-0.019l-0.01,-0.018l-0.01,-0.019l-0.01,-0.019l-0.01,-0.02l-0.009,-0.019l-0.009,-0.02l-0.009,-0.019l-0.009,-0.02l-0.008,-0.02l-0.008,-0.02l-0.008,-0.021l-0.008,-0.02l-0.007,-0.021l-0.007,-0.021l-0.007,-0.021l-0.007,-0.021l-0.006,-0.021l-0.007,-0.021l-0.005,-0.021l-0.006,-0.022l-0.005,-0.021l-0.006,-0.022l-0.004,-0.022l-0.005,-0.022l-0.004,-0.022l-0.004,-0.022l-0.004,-0.022l-0.004,-0.023l-0.003,-0.022l-0.003,-0.023l-0.003,-0.022l-0.002,-0.023l-0.002,-0.023l-0.002,-0.022l-0.002,-0.023l-0.001,-0.023l-0.001,-0.023l-0.001,-0.023l-0.001,-0.023l0,-0.024l0,-0.022l0,-4.634l0.807,0l0,4.632l0,0.021l0,0.018l0.001,0.019l0.002,0.018l0.002,0.018l0.002,0.017l0.003,0.018l0.003,0.017l0.003,0.017l0.004,0.016l0.004,0.017l0.005,0.016l0.005,0.016l0.005,0.016l0.006,0.016l0.007,0.017l0.007,0.016l0.007,0.016l0.008,0.016l0.008,0.016l0.009,0.016l0.01,0.016l0.01,0.016l0.011,0.016l0.011,0.017l0.012,0.016l0.012,0.016l0.014,0.016l0.013,0.016l0.015,0.017l0.015,0.016l0.016,0.016l0.016,0.016l0.017,0.016l0.016,0.014l0.017,0.015l0.017,0.014l0.018,0.013l0.017,0.013l0.018,0.012l0.017,0.012l0.018,0.011l0.019,0.011l0.018,0.01l0.019,0.01l0.019,0.01l0.019,0.009l0.019,0.008l0.02,0.008l0.02,0.007l0.02,0.007l0.02,0.007l0.021,0.006l0.021,0.005l0.021,0.005l0.022,0.004l0.022,0.004l0.022,0.004l0.022,0.003l0.023,0.002l0.023,0.002l0.023,0.001l0.024,0.001l0.024,0l0.012,0l0.012,0l0.012,0l0.012,-0.001l0.011,0l0.012,-0.001l0.012,-0.001l0.011,-0.001l0.012,-0.001l0.011,-0.001l0.011,-0.002l0.011,-0.001l0.011,-0.002l0.011,-0.002l0.011,-0.002l0.011,-0.002l0.011,-0.002l0.011,-0.002l0.011,-0.003l0.01,-0.002l0.011,-0.003l0.01,-0.002l0.011,-0.003l0.01,-0.003l0.01,-0.004l0.01,-0.003l0.01,-0.003l0.01,-0.004l0.01,-0.003l0.01,-0.004l0.01,-0.004l0.01,-0.004l0.01,-0.004l0.009,-0.004l0.01,-0.005l0.009,-0.004l0.01,-0.005l0.009,-0.005l0.01,-0.005l0.009,-0.005l0.009,-0.005l0.009,-0.005l0.01,-0.005l0.009,-0.006l0.009,-0.005l0.009,-0.006l0.009,-0.006l0.009,-0.006l0.008,-0.006l0.009,-0.006l0.009,-0.007l0.008,-0.006l0.009,-0.007l0.009,-0.006l0.008,-0.007l0.009,-0.007l0.008,-0.007l0.009,-0.008l0.008,-0.007l0.008,-0.007l0.008,-0.008l0.009,-0.008l0.008,-0.008l0.008,-0.008l0.008,-0.008l0.008,-0.008l0.008,-0.008l0.007,-0.008l0.007,-0.008l0.008,-0.009l0.007,-0.008l0.006,-0.008l0.007,-0.008l0.007,-0.008l0.006,-0.008l0.006,-0.008l0.006,-0.008l0.006,-0.008l0.006,-0.009l0.005,-0.008l0.006,-0.008l0.005,-0.008l0.005,-0.008l0.005,-0.008l0.005,-0.008l0.005,-0.008l0.004,-0.008l0.005,-0.008l0.004,-0.008l0.004,-0.008l0.004,-0.008l0.004,-0.008l0.004,-0.008l0.003,-0.008l0.004,-0.008l0.003,-0.008l0.004,-0.009l0.003,-0.008l0.003,-0.008l0.003,-0.008l0.003,-0.008l0.002,-0.008l0.003,-0.008l0.002,-0.008l0.003,-0.008l0.002,-0.008l0.002,-0.009l0.002,-0.008l0.002,-0.008l0.002,-0.008l0.002,-0.009l0.001,-0.008l0.002,-0.009l0.001,-0.008l0.002,-0.009l0.001,-0.009l0.001,-0.008l0.001,-0.009l0.001,-0.009l0.001,-0.009l0.001,-0.009l0.001,-0.009l0,-0.009l0.001,-0.01l0,-0.009l0,-0.009l0,-0.01l0.001,-0.011l0,-4.632l0.807,0Z" style="fill:#0089ec;"/><path d="M481.995,505.492l-1.575,0l-0.014,0l-0.013,0l-0.013,0.001l-0.013,0l-0.013,0.001l-0.013,0.001l-0.013,0l-0.012,0.002l-0.013,0.001l-0.013,0.001l-0.012,0.002l-0.012,0.001l-0.013,0.002l-0.012,0.002l-0.012,0.002l-0.012,0.002l-0.012,0.003l-0.012,0.002l-0.012,0.003l-0.011,0.003l-0.012,0.002l-0.012,0.003l-0.011,0.004l-0.011,0.003l-0.012,0.003l-0.011,0.004l-0.011,0.004l-0.011,0.003l-0.012,0.004l-0.011,0.005l-0.01,0.004l-0.011,0.004l-0.011,0.005l-0.011,0.004l-0.01,0.005l-0.011,0.005l-0.01,0.005l-0.011,0.005l-0.01,0.005l-0.011,0.006l-0.01,0.006l-0.01,0.005l-0.01,0.006l-0.01,0.006l-0.01,0.006l-0.01,0.006l-0.01,0.007l-0.01,0.006l-0.01,0.007l-0.009,0.007l-0.01,0.007l-0.01,0.007l-0.009,0.007l-0.01,0.007l-0.009,0.008l-0.01,0.007l-0.009,0.008l-0.009,0.008l-0.01,0.008l-0.009,0.008l-0.009,0.009l-0.009,0.008l-0.009,0.009l-0.009,0.008l-0.009,0.009l-0.008,0.009l-0.009,0.009l-0.008,0.009l-0.008,0.008l-0.008,0.009l-0.008,0.009l-0.008,0.009l-0.007,0.009l-0.007,0.009l-0.007,0.009l-0.007,0.009l-0.007,0.008l-0.006,0.009l-0.007,0.009l-0.006,0.009l-0.006,0.009l-0.006,0.009l-0.005,0.009l-0.006,0.009l-0.005,0.009l-0.006,0.009l-0.005,0.008l-0.005,0.009l-0.004,0.009l-0.005,0.009l-0.005,0.009l-0.004,0.009l-0.004,0.009l-0.004,0.009l-0.004,0.009l-0.004,0.009l-0.004,0.009l-0.003,0.009l-0.004,0.008l-0.003,0.01l-0.003,0.009l-0.003,0.009l-0.003,0.009l-0.003,0.009l-0.002,0.009l-0.003,0.009l-0.002,0.009l-0.003,0.01l-0.002,0.009l-0.002,0.009l-0.002,0.01l-0.002,0.009l-0.002,0.01l-0.001,0.009l-0.002,0.01l-0.001,0.01l-0.002,0.009l-0.001,0.01l-0.001,0.01l-0.001,0.01l-0.001,0.011l-0.001,0.01l0,0.01l-0.001,0.011l0,0.01l0,0.011l-0.001,0.011l0,0.011l0.001,0.021l0,0.021l0.001,0.021l0.002,0.021l0.002,0.02l0.003,0.02l0.003,0.019l0.003,0.02l0.004,0.019l0.004,0.018l0.005,0.019l0.005,0.019l0.006,0.018l0.006,0.018l0.007,0.018l0.007,0.019l0.008,0.018l0.008,0.018l0.009,0.018l0.01,0.018l0.01,0.018l0.011,0.018l0.011,0.018l0.012,0.018l0.013,0.018l0.013,0.018l0.014,0.018l0.015,0.019l0.015,0.018l0.016,0.018l0.017,0.018l0.017,0.018l0.018,0.017l0.019,0.017l0.018,0.017l0.019,0.016l0.019,0.015l0.019,0.015l0.019,0.014l0.019,0.014l0.02,0.013l0.02,0.012l0.02,0.012l0.02,0.012l0.021,0.01l0.021,0.011l0.021,0.01l0.022,0.009l0.021,0.009l0.022,0.008l0.023,0.007l0.022,0.008l0.023,0.006l0.023,0.006l0.024,0.006l0.024,0.004l0.024,0.005l0.024,0.004l0.025,0.003l0.025,0.002l0.025,0.002l0.026,0.002l0.026,0.001l0.013,0l0.014,0l0.632,0l0.025,0.002l0.021,0.001l0.021,0.002l0.02,0.002l0.021,0.002l0.021,0.002l0.02,0.003l0.021,0.003l0.02,0.003l0.02,0.003l0.02,0.003l0.021,0.004l0.02,0.004l0.019,0.004l0.02,0.005l0.02,0.004l0.02,0.005l0.019,0.005l0.02,0.005l0.019,0.006l0.02,0.006l0.019,0.006l0.019,0.006l0.019,0.006l0.019,0.007l0.019,0.007l0.019,0.007l0.019,0.008l0.018,0.007l0.019,0.008l0.018,0.008l0.019,0.009l0.018,0.008l0.018,0.009l0.018,0.009l0.018,0.009l0.018,0.01l0.018,0.01l0.017,0.01l0.018,0.01l0.017,0.011l0.018,0.01l0.017,0.011l0.017,0.011l0.017,0.012l0.017,0.011l0.017,0.012l0.017,0.012l0.017,0.013l0.016,0.012l0.017,0.013l0.016,0.013l0.016,0.014l0.016,0.013l0.016,0.014l0.016,0.014l0.016,0.014l0.016,0.014l0.015,0.015l0.016,0.015l0.015,0.015l0.015,0.015l0.015,0.016l0.015,0.016l0.015,0.016l0.015,0.016l0.014,0.016l0.014,0.016l0.014,0.017l0.014,0.016l0.014,0.017l0.013,0.017l0.013,0.017l0.013,0.017l0.013,0.018l0.013,0.017l0.012,0.018l0.012,0.017l0.012,0.018l0.012,0.018l0.012,0.019l0.011,0.018l0.011,0.018l0.011,0.019l0.011,0.019l0.01,0.019l0.011,0.019l0.01,0.019l0.009,0.019l0.01,0.02l0.009,0.02l0.009,0.019l0.009,0.02l0.009,0.02l0.008,0.021l0.009,0.02l0.008,0.02l0.007,0.021l0.008,0.021l0.007,0.021l0.007,0.021l0.007,0.021l0.006,0.021l0.007,0.021l0.006,0.022l0.005,0.021l0.006,0.022l0.005,0.022l0.005,0.022l0.005,0.022l0.004,0.022l0.004,0.022l0.004,0.022l0.004,0.023l0.004,0.022l0.003,0.023l0.003,0.022l0.002,0.023l0.003,0.023l0.002,0.023l0.002,0.023l0.001,0.023l0.002,0.023l0.001,0.023l0.001,0.023l0,0.023l0.001,0.023l0,0.024l0,0.023l-0.001,0.023l0,0.023l-0.001,0.024l-0.001,0.023l-0.002,0.023l-0.001,0.023l-0.002,0.023l-0.002,0.022l-0.003,0.023l-0.002,0.023l-0.003,0.022l-0.003,0.023l-0.004,0.022l-0.004,0.023l-0.004,0.022l-0.004,0.022l-0.004,0.022l-0.005,0.023l-0.005,0.021l-0.005,0.022l-0.006,0.022l-0.005,0.022l-0.006,0.021l-0.007,0.021l-0.006,0.022l-0.007,0.021l-0.007,0.021l-0.007,0.021l-0.008,0.02l-0.007,0.021l-0.008,0.02l-0.009,0.021l-0.008,0.02l-0.009,0.02l-0.009,0.02l-0.009,0.02l-0.009,0.019l-0.01,0.02l-0.009,0.019l-0.01,0.02l-0.011,0.019l-0.01,0.019l-0.011,0.018l-0.011,0.019l-0.011,0.018l-0.011,0.019l-0.012,0.018l-0.012,0.018l-0.012,0.018l-0.012,0.018l-0.012,0.017l-0.013,0.018l-0.013,0.017l-0.013,0.017l-0.013,0.017l-0.013,0.017l-0.014,0.017l-0.014,0.017l-0.014,0.016l-0.014,0.016l-0.014,0.017l-0.015,0.016l-0.015,0.016l-0.015,0.015l-0.015,0.016l-0.015,0.015l-0.015,0.015l-0.016,0.015l-0.015,0.015l-0.016,0.014l-0.016,0.015l-0.016,0.014l-0.016,0.013l-0.016,0.014l-0.016,0.013l-0.016,0.013l-0.017,0.013l-0.016,0.013l-0.017,0.012l-0.017,0.012l-0.017,0.012l-0.017,0.012l-0.017,0.011l-0.017,0.011l-0.017,0.011l-0.018,0.011l-0.017,0.01l-0.018,0.011l-0.017,0.01l-0.018,0.009l-0.018,0.01l-0.018,0.009l-0.018,0.009l-0.018,0.009l-0.018,0.009l-0.019,0.008l-0.018,0.008l-0.019,0.008l-0.018,0.008l-0.019,0.007l-0.019,0.007l-0.019,0.007l-0.019,0.007l-0.019,0.006l-0.019,0.007l-0.019,0.006l-0.02,0.005l-0.019,0.006l-0.02,0.005l-0.019,0.005l-0.02,0.005l-0.02,0.005l-0.02,0.004l-0.019,0.004l-0.02,0.004l-0.021,0.004l-0.02,0.004l-0.02,0.003l-0.02,0.003l-0.021,0.003l-0.02,0.002l-0.021,0.003l-0.021,0.002l-0.02,0.002l-0.021,0.001l-0.021,0.002l-0.025,0.001l-2.396,0l0,-0.955l2.302,0l0.014,0l0.013,0l0.013,0l0.013,-0.001l0.013,-0.001l0.013,0l0.013,-0.001l0.013,-0.001l0.012,-0.002l0.013,-0.001l0.012,-0.001l0.013,-0.002l0.012,-0.002l0.012,-0.002l0.012,-0.002l0.012,-0.002l0.012,-0.002l0.012,-0.003l0.012,-0.003l0.012,-0.002l0.011,-0.003l0.012,-0.003l0.011,-0.003l0.012,-0.004l0.011,-0.003l0.011,-0.004l0.012,-0.003l0.011,-0.004l0.011,-0.004l0.011,-0.004l0.011,-0.005l0.011,-0.004l0.01,-0.004l0.011,-0.005l0.011,-0.005l0.01,-0.005l0.011,-0.005l0.01,-0.005l0.011,-0.005l0.01,-0.006l0.01,-0.005l0.01,-0.006l0.01,-0.006l0.011,-0.006l0.01,-0.006l0.009,-0.006l0.01,-0.007l0.01,-0.006l0.01,-0.007l0.01,-0.007l0.009,-0.006l0.01,-0.008l0.01,-0.007l0.009,-0.007l0.009,-0.008l0.01,-0.007l0.009,-0.008l0.01,-0.008l0.009,-0.008l0.009,-0.008l0.009,-0.008l0.009,-0.009l0.009,-0.008l0.009,-0.009l0.009,-0.009l0.009,-0.009l0.008,-0.009l0.008,-0.008l0.009,-0.009l0.007,-0.009l0.008,-0.009l0.008,-0.009l0.007,-0.009l0.007,-0.009l0.007,-0.008l0.007,-0.009l0.007,-0.009l0.007,-0.009l0.006,-0.009l0.006,-0.009l0.006,-0.009l0.006,-0.009l0.006,-0.009l0.005,-0.009l0.006,-0.008l0.005,-0.009l0.005,-0.009l0.005,-0.009l0.005,-0.009l0.004,-0.009l0.005,-0.009l0.004,-0.009l0.004,-0.009l0.004,-0.009l0.004,-0.008l0.004,-0.009l0.004,-0.009l0.003,-0.009l0.004,-0.009l0.003,-0.009l0.003,-0.009l0.003,-0.009l0.003,-0.009l0.003,-0.01l0.003,-0.009l0.002,-0.009l0.003,-0.009l0.002,-0.009l0.002,-0.01l0.002,-0.009l0.002,-0.009l0.002,-0.01l0.002,-0.009l0.002,-0.01l0.001,-0.01l0.001,-0.009l0.002,-0.01l0.001,-0.01l0.001,-0.01l0.001,-0.01l0.001,-0.01l0.001,-0.011l0,-0.01l0.001,-0.01l0,-0.011l0.001,-0.011l0,-0.01l0,-0.011l0,-0.011l0,-0.011l-0.001,-0.011l0,-0.01l-0.001,-0.011l0,-0.01l-0.001,-0.01l-0.001,-0.01l-0.001,-0.011l-0.001,-0.01l-0.001,-0.009l-0.002,-0.01l-0.001,-0.01l-0.001,-0.01l-0.002,-0.009l-0.002,-0.01l-0.002,-0.009l-0.002,-0.01l-0.002,-0.009l-0.002,-0.009l-0.002,-0.01l-0.003,-0.009l-0.002,-0.009l-0.003,-0.009l-0.003,-0.009l-0.003,-0.009l-0.003,-0.009l-0.003,-0.009l-0.003,-0.009l-0.004,-0.009l-0.003,-0.009l-0.004,-0.009l-0.004,-0.009l-0.004,-0.009l-0.004,-0.009l-0.004,-0.009l-0.004,-0.009l-0.005,-0.009l-0.004,-0.009l-0.005,-0.009l-0.005,-0.008l-0.005,-0.009l-0.005,-0.009l-0.006,-0.009l-0.005,-0.009l-0.006,-0.009l-0.006,-0.009l-0.006,-0.009l-0.006,-0.009l-0.006,-0.009l-0.007,-0.008l-0.007,-0.009l-0.007,-0.009l-0.007,-0.009l-0.007,-0.009l-0.007,-0.009l-0.008,-0.009l-0.008,-0.009l-0.007,-0.008l-0.009,-0.009l-0.008,-0.009l-0.008,-0.009l-0.009,-0.009l-0.009,-0.008l-0.009,-0.009l-0.009,-0.009l-0.009,-0.008l-0.009,-0.009l-0.009,-0.008l-0.009,-0.008l-0.01,-0.008l-0.009,-0.008l-0.01,-0.007l-0.009,-0.008l-0.009,-0.007l-0.01,-0.007l-0.01,-0.007l-0.009,-0.007l-0.01,-0.007l-0.01,-0.007l-0.01,-0.006l-0.01,-0.006l-0.009,-0.007l-0.01,-0.006l-0.011,-0.006l-0.01,-0.006l-0.01,-0.005l-0.01,-0.006l-0.01,-0.005l-0.011,-0.006l-0.01,-0.005l-0.011,-0.005l-0.01,-0.005l-0.011,-0.005l-0.011,-0.004l-0.01,-0.005l-0.011,-0.004l-0.011,-0.004l-0.011,-0.004l-0.011,-0.004l-0.011,-0.004l-0.012,-0.004l-0.011,-0.004l-0.011,-0.003l-0.012,-0.003l-0.011,-0.003l-0.012,-0.003l-0.011,-0.003l-0.012,-0.003l-0.012,-0.003l-0.012,-0.002l-0.012,-0.003l-0.012,-0.002l-0.012,-0.002l-0.012,-0.002l-0.012,-0.002l-0.013,-0.001l-0.012,-0.002l-0.013,-0.001l-0.012,-0.001l-0.013,-0.001l-0.013,-0.001l-0.013,-0.001l-0.013,-0.001l-0.013,0l-0.013,-0.001l-0.013,0l-0.014,0l-0.849,0l0,-0.035l-0.013,-0.002l-0.02,-0.004l-0.02,-0.004l-0.02,-0.004l-0.02,-0.004l-0.02,-0.005l-0.02,-0.005l-0.019,-0.005l-0.02,-0.005l-0.019,-0.006l-0.019,-0.006l-0.02,-0.006l-0.019,-0.006l-0.019,-0.006l-0.019,-0.007l-0.019,-0.007l-0.019,-0.007l-0.018,-0.008l-0.019,-0.007l-0.019,-0.008l-0.018,-0.008l-0.018,-0.009l-0.019,-0.008l-0.018,-0.009l-0.018,-0.009l-0.018,-0.009l-0.018,-0.01l-0.017,-0.01l-0.018,-0.01l-0.018,-0.01l-0.017,-0.01l-0.018,-0.011l-0.017,-0.011l-0.017,-0.011l-0.017,-0.012l-0.017,-0.011l-0.017,-0.012l-0.017,-0.012l-0.016,-0.013l-0.017,-0.012l-0.016,-0.013l-0.017,-0.013l-0.016,-0.013l-0.016,-0.014l-0.016,-0.014l-0.016,-0.014l-0.016,-0.014l-0.015,-0.014l-0.016,-0.015l-0.015,-0.015l-0.016,-0.015l-0.015,-0.015l-0.015,-0.016l-0.015,-0.016l-0.015,-0.016l-0.014,-0.016l-0.015,-0.016l-0.014,-0.016l-0.014,-0.017l-0.014,-0.016l-0.013,-0.017l-0.014,-0.017l-0.013,-0.017l-0.013,-0.017l-0.013,-0.017l-0.012,-0.018l-0.013,-0.017l-0.012,-0.018l-0.012,-0.018l-0.012,-0.018l-0.011,-0.018l-0.012,-0.019l-0.011,-0.018l-0.011,-0.019l-0.011,-0.019l-0.01,-0.019l-0.01,-0.019l-0.01,-0.019l-0.01,-0.019l-0.01,-0.02l-0.009,-0.019l-0.009,-0.02l-0.009,-0.02l-0.009,-0.02l-0.008,-0.02l-0.008,-0.021l-0.008,-0.02l-0.008,-0.021l-0.008,-0.021l-0.007,-0.02l-0.007,-0.021l-0.007,-0.022l-0.006,-0.021l-0.006,-0.021l-0.006,-0.022l-0.006,-0.021l-0.006,-0.022l-0.005,-0.022l-0.005,-0.022l-0.004,-0.022l-0.005,-0.022l-0.004,-0.022l-0.004,-0.022l-0.004,-0.023l-0.003,-0.022l-0.003,-0.023l-0.003,-0.022l-0.003,-0.023l-0.002,-0.023l-0.003,-0.023l-0.002,-0.023l-0.001,-0.022l-0.002,-0.024l-0.001,-0.023l-0.001,-0.023l0,-0.023l-0.001,-0.023l0,-0.023l0,-0.024l0.001,-0.023l0,-0.023l0.001,-0.023l0.001,-0.023l0.002,-0.023l0.001,-0.023l0.002,-0.023l0.003,-0.023l0.002,-0.023l0.003,-0.023l0.003,-0.022l0.003,-0.023l0.003,-0.022l0.004,-0.023l0.004,-0.022l0.004,-0.022l0.005,-0.022l0.004,-0.022l0.005,-0.022l0.005,-0.022l0.006,-0.022l0.006,-0.021l0.006,-0.022l0.006,-0.021l0.006,-0.021l0.007,-0.022l0.007,-0.021l0.007,-0.02l0.008,-0.021l0.008,-0.021l0.008,-0.02l0.008,-0.021l0.008,-0.02l0.009,-0.02l0.009,-0.02l0.009,-0.02l0.009,-0.019l0.01,-0.02l0.01,-0.019l0.01,-0.019l0.01,-0.019l0.01,-0.019l0.011,-0.019l0.011,-0.019l0.011,-0.018l0.012,-0.019l0.011,-0.018l0.012,-0.018l0.012,-0.018l0.012,-0.018l0.013,-0.017l0.012,-0.018l0.013,-0.017l0.013,-0.017l0.013,-0.017l0.014,-0.017l0.013,-0.017l0.014,-0.016l0.014,-0.017l0.014,-0.016l0.015,-0.016l0.014,-0.016l0.015,-0.016l0.015,-0.016l0.015,-0.016l0.015,-0.015l0.016,-0.015l0.015,-0.015l0.016,-0.015l0.015,-0.014l0.016,-0.014l0.016,-0.014l0.016,-0.014l0.016,-0.014l0.016,-0.013l0.017,-0.013l0.016,-0.013l0.017,-0.012l0.016,-0.013l0.017,-0.012l0.017,-0.012l0.017,-0.011l0.017,-0.012l0.017,-0.011l0.017,-0.011l0.018,-0.011l0.017,-0.01l0.018,-0.01l0.018,-0.01l0.017,-0.01l0.018,-0.01l0.018,-0.009l0.018,-0.009l0.018,-0.009l0.019,-0.008l0.018,-0.009l0.018,-0.008l0.019,-0.008l0.019,-0.007l0.018,-0.008l0.019,-0.007l0.019,-0.007l0.019,-0.007l0.019,-0.006l0.019,-0.006l0.02,-0.006l0.019,-0.006l0.019,-0.006l0.02,-0.005l0.019,-0.005l0.02,-0.005l0.02,-0.005l0.02,-0.004l0.02,-0.004l0.02,-0.004l0.02,-0.004l0.02,-0.003l0.02,-0.004l0.021,-0.003l0.02,-0.002l0.021,-0.003l0.02,-0.002l0.021,-0.002l0.021,-0.002l0.02,-0.002l0.021,-0.002l0.025,-0.001l1.669,0l0,0.955Z" style="fill:#0089ec;"/></g><path d="M126,136l6,0l0,-22l26,23l0,-36l-6,0l0,23l-10,-10c0,0 -8.158,-2.178 -16,-11c-0.269,-0.302 0,33 0,33Z" style="fill:#0089ec;"/><g transform="matrix(7.66202,0,0,5.74652,-3555.7,-2825.37)"><text x="465.998px" y="510.623px" style="font-family:Asgalt;font-size:11.746px;fill:#00cd3a;">P<tspan x="470.262px 474.515px " y="510.623px 510.623px ">EA</tspan></text><path d="M467.451,504.538l0.02,0l0.021,0l0.02,0.001l0.02,0l0.02,0.001l0.02,0.002l0.02,0.001l0.02,0.002l0.02,0.002l0.02,0.002l0.02,0.002l0.019,0.003l0.02,0.003l0.019,0.003l0.02,0.003l0.019,0.004l0.019,0.004l0.02,0.004l0.019,0.004l0.019,0.005l0.019,0.005l0.019,0.005l0.019,0.005l0.018,0.005l0.019,0.006l0.019,0.006l0.018,0.006l0.019,0.007l0.018,0.006l0.018,0.007l0.019,0.007l0.018,0.008l0.018,0.008l0.018,0.007l0.018,0.009l0.018,0.008l0.017,0.009l0.018,0.008l0.017,0.01l0.018,0.009l0.017,0.009l0.018,0.01l0.017,0.01l0.017,0.011l0.017,0.01l0.017,0.011l0.017,0.011l0.016,0.011l0.017,0.012l0.017,0.011l0.016,0.012l0.017,0.013l0.016,0.012l0.016,0.013l0.016,0.013l0.016,0.013l0.016,0.013l0.016,0.014l0.015,0.014l0.016,0.014l0.015,0.014l0.016,0.015l0.015,0.014l0.015,0.015l0.015,0.016l0.015,0.015l0.015,0.015l0.014,0.016l0.014,0.016l0.014,0.016l0.014,0.016l0.014,0.016l0.013,0.016l0.014,0.017l0.013,0.017l0.013,0.016l0.012,0.017l0.013,0.018l0.012,0.017l0.012,0.017l0.012,0.018l0.011,0.018l0.012,0.018l0.011,0.018l0.011,0.018l0.01,0.018l0.011,0.019l0.01,0.019l0.01,0.018l0.01,0.019l0.01,0.02l0.009,0.019l0.009,0.019l0.009,0.02l0.009,0.02l0.008,0.02l0.008,0.02l0.008,0.02l0.008,0.02l0.007,0.021l0.007,0.021l0.007,0.02l0.007,0.021l0.006,0.021l0.007,0.021l0.005,0.022l0.006,0.021l0.005,0.022l0.006,0.021l0.004,0.022l0.005,0.022l0.004,0.022l0.004,0.022l0.004,0.022l0.004,0.022l0.003,0.022l0.003,0.023l0.003,0.022l0.002,0.023l0.002,0.022l0.002,0.023l0.002,0.023l0.001,0.023l0.002,0.022l0,0.023l0.001,0.023l0,0.023l0.001,0.023l-0.001,0.024l0,0.023l-0.001,0.023l0,0.022l-0.002,0.023l-0.001,0.023l-0.002,0.023l-0.002,0.023l-0.002,0.022l-0.002,0.023l-0.003,0.022l-0.003,0.023l-0.003,0.022l-0.004,0.022l-0.004,0.022l-0.004,0.022l-0.004,0.022l-0.005,0.022l-0.004,0.022l-0.006,0.021l-0.005,0.022l-0.006,0.021l-0.005,0.021l-0.007,0.022l-0.006,0.021l-0.007,0.021l-0.007,0.02l-0.007,0.021l-0.007,0.02l-0.008,0.021l-0.008,0.02l-0.008,0.02l-0.008,0.02l-0.009,0.02l-0.009,0.019l-0.009,0.02l-0.009,0.019l-0.01,0.019l-0.01,0.019l-0.01,0.019l-0.01,0.019l-0.011,0.019l-0.01,0.018l-0.011,0.018l-0.011,0.018l-0.012,0.018l-0.011,0.018l-0.012,0.018l-0.012,0.017l-0.012,0.017l-0.013,0.017l-0.012,0.017l-0.013,0.017l-0.013,0.017l-0.014,0.017l-0.013,0.016l-0.014,0.016l-0.014,0.016l-0.014,0.016l-0.014,0.016l-0.014,0.015l-0.015,0.016l-0.015,0.015l-0.015,0.016l-0.015,0.015l-0.015,0.014l-0.016,0.015l-0.015,0.014l-0.016,0.014l-0.015,0.014l-0.016,0.014l-0.016,0.013l-0.016,0.013l-0.016,0.013l-0.016,0.013l-0.016,0.012l-0.017,0.012l-0.016,0.012l-0.017,0.012l-0.017,0.012l-0.016,0.011l-0.017,0.011l-0.017,0.011l-0.017,0.01l-0.017,0.011l-0.017,0.01l-0.018,0.009l-0.017,0.01l-0.018,0.009l-0.017,0.009l-0.018,0.009l-0.017,0.009l-0.018,0.008l-0.018,0.008l-0.018,0.008l-0.018,0.008l-0.018,0.007l-0.019,0.008l-0.018,0.007l-0.018,0.006l-0.019,0.007l-0.018,0.006l-0.019,0.006l-0.019,0.006l-0.018,0.005l-0.019,0.005l-0.019,0.005l-0.019,0.005l-0.019,0.005l-0.019,0.004l-0.02,0.004l-0.019,0.004l-0.019,0.004l-0.02,0.003l-0.019,0.003l-0.02,0.003l-0.019,0.003l-0.02,0.002l-0.02,0.002l-0.02,0.002l-0.02,0.002l-0.02,0.001l-0.02,0.002l-0.02,0.001l-0.02,0l-0.02,0.001l-0.021,0l-0.02,0l-0.772,0l0,-0.954l0.772,0l0.012,0l0.012,0l0.011,0l0.012,-0.001l0.011,0l0.012,-0.001l0.011,-0.001l0.012,-0.001l0.011,-0.001l0.011,-0.001l0.011,-0.002l0.011,-0.001l0.011,-0.002l0.011,-0.001l0.011,-0.002l0.011,-0.002l0.01,-0.003l0.011,-0.002l0.01,-0.002l0.011,-0.003l0.01,-0.002l0.011,-0.003l0.01,-0.003l0.01,-0.003l0.01,-0.003l0.01,-0.003l0.01,-0.004l0.01,-0.003l0.01,-0.004l0.01,-0.004l0.01,-0.004l0.009,-0.004l0.01,-0.004l0.01,-0.004l0.009,-0.004l0.01,-0.005l0.009,-0.005l0.009,-0.004l0.01,-0.005l0.009,-0.005l0.009,-0.005l0.009,-0.005l0.009,-0.006l0.009,-0.005l0.009,-0.006l0.009,-0.006l0.009,-0.005l0.009,-0.006l0.009,-0.007l0.009,-0.006l0.008,-0.006l0.009,-0.007l0.009,-0.006l0.008,-0.007l0.009,-0.007l0.008,-0.007l0.009,-0.007l0.008,-0.007l0.008,-0.008l0.009,-0.007l0.008,-0.008l0.008,-0.008l0.009,-0.008l0.008,-0.008l0.008,-0.008l0.008,-0.008l0.007,-0.008l0.008,-0.008l0.007,-0.008l0.007,-0.008l0.007,-0.009l0.007,-0.008l0.007,-0.008l0.006,-0.008l0.007,-0.008l0.006,-0.008l0.006,-0.008l0.006,-0.008l0.006,-0.009l0.005,-0.008l0.006,-0.008l0.005,-0.008l0.005,-0.008l0.005,-0.008l0.005,-0.008l0.004,-0.008l0.005,-0.008l0.004,-0.008l0.005,-0.008l0.004,-0.008l0.004,-0.008l0.004,-0.008l0.004,-0.008l0.003,-0.008l0.004,-0.008l0.003,-0.009l0.003,-0.008l0.004,-0.008l0.003,-0.008l0.003,-0.008l0.002,-0.008l0.003,-0.008l0.003,-0.008l0.002,-0.008l0.002,-0.008l0.003,-0.008l0.002,-0.009l0.002,-0.008l0.002,-0.008l0.002,-0.009l0.002,-0.008l0.001,-0.008l0.002,-0.009l0.001,-0.008l0.002,-0.009l0.001,-0.009l0.001,-0.008l0.001,-0.009l0.001,-0.009l0.001,-0.009l0.001,-0.009l0,-0.009l0.001,-0.01l0,-0.009l0.001,-0.009l0,-0.01l0,-0.009l0,-0.01l0,-0.01l0,-0.009l0,-0.01l-0.001,-0.009l0,-0.009l-0.001,-0.01l0,-0.009l-0.001,-0.009l-0.001,-0.009l-0.001,-0.009l-0.001,-0.008l-0.001,-0.009l-0.001,-0.009l-0.002,-0.008l-0.001,-0.009l-0.002,-0.008l-0.001,-0.008l-0.002,-0.009l-0.002,-0.008l-0.002,-0.008l-0.002,-0.008l-0.002,-0.009l-0.002,-0.008l-0.003,-0.008l-0.002,-0.008l-0.003,-0.008l-0.002,-0.008l-0.003,-0.008l-0.003,-0.008l-0.003,-0.008l-0.003,-0.008l-0.004,-0.007l-0.003,-0.008l-0.003,-0.008l-0.004,-0.008l-0.004,-0.008l-0.004,-0.008l-0.004,-0.008l-0.004,-0.008l-0.004,-0.008l-0.004,-0.008l-0.005,-0.007l-0.005,-0.008l-0.004,-0.008l-0.005,-0.008l-0.005,-0.008l-0.006,-0.008l-0.005,-0.008l-0.006,-0.008l-0.005,-0.008l-0.006,-0.008l-0.006,-0.008l-0.006,-0.008l-0.007,-0.008l-0.006,-0.008l-0.007,-0.008l-0.007,-0.008l-0.007,-0.008l-0.007,-0.008l-0.007,-0.008l-0.007,-0.008l-0.008,-0.008l-0.008,-0.007l-0.008,-0.008l-0.008,-0.008l-0.008,-0.008l-0.008,-0.008l-0.009,-0.007l-0.008,-0.008l-0.008,-0.007l-0.009,-0.007l-0.008,-0.007l-0.009,-0.007l-0.008,-0.007l-0.009,-0.006l-0.008,-0.007l-0.009,-0.006l-0.009,-0.007l-0.009,-0.006l-0.008,-0.006l-0.009,-0.006l-0.009,-0.005l-0.009,-0.006l-0.009,-0.006l-0.009,-0.005l-0.009,-0.005l-0.01,-0.005l-0.009,-0.005l-0.009,-0.005l-0.009,-0.005l-0.01,-0.005l-0.009,-0.004l-0.01,-0.005l-0.009,-0.004l-0.01,-0.004l-0.009,-0.004l-0.01,-0.004l-0.01,-0.004l-0.01,-0.004l-0.01,-0.003l-0.01,-0.004l-0.01,-0.003l-0.01,-0.003l-0.01,-0.004l-0.01,-0.003l-0.011,-0.002l-0.01,-0.003l-0.01,-0.003l-0.011,-0.002l-0.011,-0.003l-0.01,-0.002l-0.011,-0.002l-0.011,-0.002l-0.011,-0.002l-0.01,-0.002l-0.011,-0.001l-0.011,-0.002l-0.012,-0.001l-0.011,-0.001l-0.011,-0.001l-0.011,-0.001l-0.012,-0.001l-0.011,-0.001l-0.012,-0.001l-0.012,0l-0.011,0l-0.012,-0.001l-0.012,0l-0.868,0l0,5.428l-0.807,0l0,-6.381l1.675,0Z" style="fill:#00cd3a;"/><path d="M473.379,504.538l0,0.953l-2.532,0l0,1.755l1.805,0l0,0.954l-1.805,0l0,1.765l2.532,0l0,0.954l-3.338,0l0,-6.381l3.338,0Z" style="fill:#00cd3a;"/><path d="M478.43,510.791l-0.064,0.128l-0.75,0l-1.295,-4.11l-1.284,4.11l-0.751,0l-0.063,-0.127l1.988,-6.377l0.219,0l2,6.376ZM476.313,505.626l0.016,0l-0.008,-0.026l-0.008,0.026Z" style="fill:#00cd3a;"/></g><path d="M13.956,69.462c0,0 30.944,-12.474 36.054,-16.438c12.13,-9.41 24.632,-17.966 35.335,-30.916c5.861,-7.091 11.036,4.064 13.29,10.853c2.48,7.472 8.389,23.573 14.807,40.869c0.814,2.195 4.818,10.359 10.223,17.72c2.965,4.038 10.984,15.015 19.608,20.587c1.175,0.759 -19.441,-2.6 -39.312,-49.481c-5.745,-13.553 -11.511,-21.794 -15.542,-23.068c-7.562,-2.39 -16.268,4.964 -31.94,15.297c-13.263,8.744 -33.085,12.534 -42.523,14.577Z" style="fill:#00cd26;"/><path d="M125,90c0.212,0.212 9.051,-6.293 12.443,-9.575c6.571,-6.359 6.357,-9.778 5.758,-9.06c-2.945,3.535 -12.29,12.385 -20.41,14.479c-0.954,0.246 1.584,3.531 2.209,4.156Z" style="fill:#00cd26;"/><path d="M116,90l0,21l6,0l0,-13c0,0 -1.718,0.034 -6,-8Z" style="fill:#00cd26;"/><path d="M116,71l5.921,0.146c0,0 0.073,13.515 0.079,13.854c0,0 -6.294,-6.964 -6,-14Z" style="fill:#0089ec;"/><path d="M126.174,91.063c0,0 14.635,-7.067 21.17,-21.666c1.126,-2.514 8.708,-1.606 15.106,-6.674c9.949,-7.88 21.304,-16.419 32.185,-25.191c7.803,-6.29 8.967,-7.554 12.966,0.421c5.977,11.917 12.516,16.649 18.597,20.852c5.826,4.026 20.481,-11.298 24.337,-2.714c6.096,13.569 18.499,32.245 29.08,41.741c0.582,0.523 1.158,1.017 1.728,1.482c0.593,0.483 -15.267,-3.133 -33.678,-34.479c-3.823,-6.509 -14.316,2.974 -20.473,-0.006c-14.624,-7.08 -18.868,-15.932 -25.609,-17.833c-7.423,-2.094 -12.34,5.215 -29.066,13.537c-5.525,2.75 -16.032,8.284 -23.338,15.029c-17.59,16.239 -22.281,16.048 -23.005,15.501Z" style="fill:#0089ec;"/></svg>