<?xml version="1.0" standalone="no"?><!DOCTYPE svg PUBLIC "-//W3C//DTD SVG 1.1//EN" "http://www.w3.org/Graphics/SVG/1.1/DTD/svg11.dtd"><svg width="100%" height="100%" viewBox="0 0 309 95" version="1.1" xmlns="http://www.w3.org/2000/svg" xmlns:xlink="http://www.w3.org/1999/xlink" xml:space="preserve" style="fill-rule:evenodd;clip-rule:evenodd;stroke-miterlimit:1.41421;"><g><g transform="matrix(7.04168,0,0,5.28126,-3267.2,-2634.71)"><text x="465.998px" y="510.623px" style="font-family:Asgalt;font-size:11.746px;fill:#00cd3a;">P<tspan x="469.851px 473.693px 478.262px " y="510.623px 510.623px 510.623px ">EAK</tspan></text><path d="M467.451,504.592l0.02,0l0.02,0l0.02,0.001l0.02,0.001l0.02,0.001l0.019,0.001l0.02,0.001l0.019,0.002l0.02,0.002l0.019,0.002l0.02,0.002l0.019,0.003l0.019,0.003l0.019,0.003l0.019,0.003l0.019,0.004l0.019,0.004l0.019,0.004l0.019,0.004l0.018,0.004l0.019,0.005l0.019,0.005l0.018,0.005l0.018,0.005l0.019,0.006l0.018,0.006l0.018,0.006l0.018,0.006l0.018,0.007l0.018,0.006l0.018,0.007l0.018,0.008l0.017,0.007l0.018,0.008l0.017,0.008l0.018,0.008l0.017,0.008l0.017,0.009l0.018,0.009l0.017,0.009l0.017,0.01l0.016,0.009l0.017,0.01l0.017,0.01l0.017,0.01l0.016,0.011l0.017,0.011l0.016,0.011l0.016,0.011l0.016,0.011l0.016,0.012l0.016,0.012l0.016,0.012l0.016,0.012l0.016,0.013l0.015,0.013l0.016,0.013l0.015,0.013l0.016,0.014l0.015,0.014l0.015,0.014l0.015,0.014l0.015,0.014l0.015,0.015l0.014,0.015l0.015,0.015l0.014,0.015l0.014,0.015l0.014,0.015l0.014,0.016l0.013,0.016l0.014,0.015l0.013,0.016l0.013,0.016l0.012,0.017l0.013,0.016l0.012,0.016l0.012,0.017l0.012,0.017l0.012,0.017l0.011,0.017l0.011,0.017l0.011,0.017l0.011,0.018l0.011,0.018l0.01,0.017l0.01,0.018l0.01,0.018l0.01,0.019l0.009,0.018l0.01,0.018l0.009,0.019l0.008,0.019l0.009,0.019l0.008,0.019l0.008,0.019l0.008,0.019l0.008,0.02l0.007,0.019l0.007,0.02l0.007,0.02l0.007,0.02l0.006,0.02l0.007,0.02l0.005,0.021l0.006,0.02l0.006,0.021l0.005,0.02l0.005,0.021l0.004,0.021l0.005,0.021l0.004,0.021l0.004,0.021l0.003,0.022l0.004,0.021l0.003,0.021l0.003,0.022l0.002,0.022l0.003,0.021l0.002,0.022l0.002,0.022l0.001,0.022l0.002,0.022l0.001,0.022l0.001,0.022l0,0.022l0.001,0.022l0,0.022l0,0.023l-0.001,0.022l0,0.022l-0.001,0.022l-0.001,0.022l-0.002,0.022l-0.001,0.022l-0.002,0.022l-0.002,0.022l-0.003,0.021l-0.002,0.022l-0.003,0.022l-0.003,0.021l-0.004,0.021l-0.003,0.022l-0.004,0.021l-0.004,0.021l-0.005,0.021l-0.004,0.021l-0.005,0.021l-0.005,0.02l-0.006,0.021l-0.006,0.02l-0.005,0.021l-0.007,0.02l-0.006,0.02l-0.007,0.02l-0.007,0.02l-0.007,0.019l-0.007,0.02l-0.008,0.02l-0.008,0.019l-0.008,0.019l-0.008,0.019l-0.009,0.019l-0.008,0.019l-0.009,0.018l-0.01,0.019l-0.009,0.018l-0.01,0.019l-0.01,0.018l-0.01,0.018l-0.01,0.017l-0.011,0.018l-0.011,0.018l-0.011,0.017l-0.011,0.017l-0.011,0.017l-0.012,0.017l-0.012,0.017l-0.012,0.016l-0.012,0.017l-0.013,0.016l-0.012,0.017l-0.013,0.016l-0.013,0.016l-0.014,0.015l-0.013,0.016l-0.014,0.016l-0.014,0.015l-0.014,0.015l-0.014,0.015l-0.015,0.015l-0.014,0.015l-0.015,0.015l-0.015,0.014l-0.015,0.014l-0.015,0.014l-0.015,0.014l-0.016,0.014l-0.015,0.013l-0.016,0.013l-0.015,0.013l-0.016,0.012l-0.016,0.013l-0.016,0.012l-0.016,0.012l-0.016,0.012l-0.016,0.011l-0.016,0.011l-0.016,0.011l-0.017,0.011l-0.016,0.011l-0.017,0.01l-0.017,0.01l-0.017,0.01l-0.016,0.009l-0.017,0.01l-0.017,0.009l-0.018,0.009l-0.017,0.008l-0.017,0.009l-0.018,0.008l-0.017,0.008l-0.018,0.008l-0.017,0.007l-0.018,0.007l-0.018,0.007l-0.018,0.007l-0.018,0.007l-0.018,0.006l-0.018,0.006l-0.018,0.006l-0.019,0.006l-0.018,0.005l-0.018,0.005l-0.019,0.005l-0.019,0.005l-0.018,0.004l-0.019,0.004l-0.019,0.004l-0.019,0.004l-0.019,0.004l-0.019,0.003l-0.019,0.003l-0.019,0.003l-0.019,0.002l-0.02,0.003l-0.019,0.002l-0.02,0.002l-0.019,0.002l-0.02,0.001l-0.019,0.001l-0.02,0.001l-0.02,0.001l-0.02,0.001l-0.02,0l-0.02,0l-0.731,0l0,-0.845l0.731,0l0.012,0l0.012,0l0.012,-0.001l0.012,0l0.012,-0.001l0.012,-0.001l0.012,-0.001l0.011,-0.001l0.012,-0.001l0.012,-0.001l0.011,-0.001l0.012,-0.002l0.011,-0.002l0.011,-0.002l0.011,-0.002l0.011,-0.002l0.012,-0.002l0.011,-0.002l0.01,-0.003l0.011,-0.002l0.011,-0.003l0.011,-0.003l0.011,-0.003l0.01,-0.003l0.011,-0.003l0.01,-0.004l0.011,-0.003l0.01,-0.004l0.01,-0.004l0.01,-0.004l0.011,-0.004l0.01,-0.004l0.01,-0.004l0.01,-0.005l0.01,-0.004l0.01,-0.005l0.009,-0.005l0.01,-0.005l0.01,-0.005l0.009,-0.005l0.01,-0.005l0.01,-0.006l0.009,-0.005l0.01,-0.006l0.009,-0.006l0.009,-0.006l0.01,-0.006l0.009,-0.006l0.009,-0.007l0.009,-0.006l0.009,-0.007l0.009,-0.006l0.009,-0.007l0.009,-0.007l0.009,-0.008l0.009,-0.007l0.009,-0.007l0.008,-0.008l0.009,-0.008l0.009,-0.007l0.008,-0.008l0.009,-0.009l0.009,-0.008l0.008,-0.008l0.008,-0.009l0.009,-0.008l0.008,-0.009l0.008,-0.008l0.007,-0.009l0.008,-0.008l0.007,-0.009l0.007,-0.008l0.007,-0.009l0.007,-0.008l0.007,-0.009l0.007,-0.009l0.006,-0.008l0.006,-0.009l0.006,-0.009l0.006,-0.008l0.006,-0.009l0.006,-0.008l0.005,-0.009l0.006,-0.009l0.005,-0.008l0.005,-0.009l0.005,-0.009l0.005,-0.008l0.004,-0.009l0.005,-0.009l0.004,-0.009l0.004,-0.008l0.004,-0.009l0.004,-0.009l0.004,-0.008l0.004,-0.009l0.003,-0.009l0.004,-0.009l0.003,-0.009l0.003,-0.008l0.003,-0.009l0.003,-0.009l0.003,-0.009l0.003,-0.009l0.003,-0.009l0.002,-0.009l0.002,-0.009l0.003,-0.009l0.002,-0.009l0.002,-0.01l0.002,-0.009l0.002,-0.009l0.001,-0.009l0.002,-0.01l0.002,-0.009l0.001,-0.01l0.001,-0.009l0.001,-0.01l0.001,-0.01l0.001,-0.01l0.001,-0.009l0.001,-0.01l0.001,-0.01l0,-0.011l0.001,-0.01l0,-0.01l0,-0.011l0,-0.01l0,-0.011l0,-0.01l0,-0.01l-0.001,-0.01l0,-0.011l-0.001,-0.01l-0.001,-0.01l-0.001,-0.009l-0.001,-0.01l-0.001,-0.01l-0.001,-0.009l-0.001,-0.01l-0.001,-0.01l-0.002,-0.009l-0.002,-0.009l-0.001,-0.01l-0.002,-0.009l-0.002,-0.009l-0.002,-0.009l-0.002,-0.009l-0.002,-0.009l-0.003,-0.009l-0.002,-0.009l-0.003,-0.009l-0.003,-0.009l-0.002,-0.009l-0.003,-0.008l-0.003,-0.009l-0.004,-0.009l-0.003,-0.008l-0.003,-0.009l-0.004,-0.009l-0.004,-0.008l-0.003,-0.009l-0.004,-0.009l-0.004,-0.008l-0.005,-0.009l-0.004,-0.008l-0.004,-0.009l-0.005,-0.009l-0.005,-0.008l-0.005,-0.009l-0.005,-0.008l-0.005,-0.009l-0.005,-0.008l-0.006,-0.009l-0.005,-0.008l-0.006,-0.009l-0.006,-0.008l-0.006,-0.009l-0.006,-0.008l-0.007,-0.009l-0.006,-0.008l-0.007,-0.009l-0.007,-0.008l-0.007,-0.008l-0.007,-0.009l-0.007,-0.008l-0.008,-0.009l-0.007,-0.008l-0.008,-0.008l-0.008,-0.009l-0.008,-0.008l-0.009,-0.008l-0.008,-0.008l-0.009,-0.009l-0.008,-0.008l-0.009,-0.007l-0.009,-0.008l-0.008,-0.008l-0.009,-0.007l-0.009,-0.007l-0.009,-0.008l-0.009,-0.007l-0.009,-0.007l-0.009,-0.006l-0.009,-0.007l-0.009,-0.007l-0.009,-0.006l-0.009,-0.006l-0.009,-0.006l-0.01,-0.006l-0.009,-0.006l-0.009,-0.006l-0.01,-0.006l-0.009,-0.005l-0.01,-0.006l-0.01,-0.005l-0.009,-0.005l-0.01,-0.005l-0.01,-0.005l-0.01,-0.005l-0.009,-0.004l-0.01,-0.005l-0.01,-0.004l-0.01,-0.004l-0.011,-0.004l-0.01,-0.004l-0.01,-0.004l-0.01,-0.004l-0.011,-0.004l-0.01,-0.003l-0.011,-0.003l-0.01,-0.004l-0.011,-0.003l-0.011,-0.003l-0.01,-0.002l-0.011,-0.003l-0.011,-0.003l-0.011,-0.002l-0.011,-0.003l-0.011,-0.002l-0.011,-0.002l-0.011,-0.002l-0.012,-0.002l-0.011,-0.001l-0.012,-0.002l-0.011,-0.001l-0.012,-0.001l-0.011,-0.002l-0.012,-0.001l-0.012,0l-0.012,-0.001l-0.012,-0.001l-0.012,0l-0.012,-0.001l-0.012,0l-0.012,0l-0.909,0l0,5.427l-0.725,0l0,-6.272l1.634,0ZM466.179,505.074l0,5.308l0.001,0l0,-5.308l-0.001,0ZM468.706,506.152l0.001,0.018l0.001,0.017l0.001,0.018l0.001,0.017l0,0.018l0,0.017l0.001,0.018l-0.001,0.018l0,0.017l0,0.018l-0.001,0.017l-0.001,0.018l-0.001,0.017l-0.001,0.018l-0.002,0.017l-0.001,0.017l-0.002,0.018l-0.002,0.017l-0.002,0.01l0.001,-0.008l0.003,-0.014l0.001,-0.014l0.002,-0.014l0.002,-0.014l0.001,-0.015l0.001,-0.014l0.001,-0.014l0.001,-0.015l0.001,-0.015l0.001,-0.014l0,-0.015l0,-0.015l0,-0.016l0,-0.015l0,-0.015l0,-0.015l-0.001,-0.014l-0.001,-0.015l-0.001,-0.015l-0.001,-0.014l-0.001,-0.015l-0.001,-0.014l-0.002,-0.012l0.002,0.016Z" style="fill:#00cd3a;"/><path d="M472.927,510.864l-3.257,0l0,-6.272l3.257,0l0,0.845l-2.532,0l0,1.863l1.805,0l0,0.845l-1.805,0l0,1.874l2.532,0l0,0.845ZM470.032,505.074l0,5.308l0.001,0l0,-2.6l0,-2.708l-0.001,0Z" style="fill:#00cd3a;"/><path d="M477.554,510.76l-0.052,0.104l-0.682,0l-1.321,-4.196l-1.311,4.196l-0.682,0l-0.052,-0.103l1.955,-6.269l0.178,0l1.967,6.268ZM475.423,505.703l0.152,0l-0.076,-0.244l-0.076,0.244Z" style="fill:#00cd3a;"/><path d="M479.97,507.728l2.184,2.915l-0.069,0.221l-0.728,0l-2.036,-2.719l-0.515,0l0,2.719l-0.725,0l0,-6.272l0.725,0l0,2.708l0.515,0l2.036,-2.708l0.728,0l0.069,0.221l-2.184,2.915ZM478.442,505.074l0,5.308l0.002,0l0,-5.308l-0.002,0Z" style="fill:#00cd3a;"/></g><g transform="matrix(7.04168,0,0,5.28126,-3133,-2634.37)"><text x="465.998px" y="510.623px" style="font-family:Asgalt;font-size:11.746px;fill:#0089ec;">N<tspan x="470.842px 474.684px 479.704px 483.546px " y="510.623px 510.623px 510.623px 510.623px ">EXUS</tspan></text><path d="M469.913,511.066l-3.33,-4.44l0,4.293l-0.807,0l0,-6.416l0.203,-0.113l3.331,4.43l0,-4.283l0.807,0l0,6.417l-0.204,0.112ZM469.673,509.909l0,0l0,-0.001l0,0.001Z" style="fill:#0089ec;"/><path d="M473.959,505.492l-2.532,0l0,1.753l1.805,0l0,0.955l-1.805,0l0,1.764l2.532,0l0,0.955l-3.339,0l0,-6.382l3.339,0l0,0.955Z" style="fill:#0089ec;"/><path d="M476.72,506.936l1.504,-2.399l0.776,0l0.083,0.238l-1.864,2.965l1.842,2.942l-0.083,0.237l-0.776,0l-1.482,-2.366l-1.481,2.366l-0.776,0l-0.083,-0.237l1.842,-2.942l-1.864,-2.965l0.083,-0.238l0.776,0l1.503,2.399Z" style="fill:#0089ec;"/><path d="M482.821,509.193l-0.001,0.024l0,0.023l-0.001,0.023l-0.001,0.023l-0.002,0.023l-0.001,0.023l-0.002,0.022l-0.002,0.023l-0.003,0.023l-0.003,0.022l-0.003,0.023l-0.003,0.022l-0.003,0.023l-0.004,0.022l-0.004,0.022l-0.005,0.022l-0.004,0.022l-0.005,0.022l-0.005,0.022l-0.005,0.021l-0.006,0.022l-0.006,0.021l-0.006,0.021l-0.007,0.021l-0.006,0.021l-0.007,0.021l-0.007,0.021l-0.008,0.021l-0.007,0.02l-0.008,0.021l-0.008,0.02l-0.009,0.02l-0.008,0.02l-0.009,0.019l-0.009,0.02l-0.01,0.019l-0.009,0.02l-0.01,0.019l-0.01,0.019l-0.011,0.018l-0.01,0.019l-0.011,0.019l-0.011,0.018l-0.011,0.018l-0.011,0.018l-0.012,0.018l-0.012,0.018l-0.012,0.017l-0.012,0.017l-0.012,0.018l-0.013,0.017l-0.013,0.017l-0.013,0.016l-0.013,0.017l-0.014,0.016l-0.013,0.017l-0.014,0.016l-0.014,0.016l-0.015,0.015l-0.014,0.016l-0.015,0.016l-0.015,0.015l-0.015,0.015l-0.015,0.015l-0.015,0.015l-0.016,0.015l-0.015,0.014l-0.016,0.014l-0.015,0.014l-0.016,0.013l-0.016,0.014l-0.016,0.013l-0.016,0.013l-0.016,0.013l-0.017,0.012l-0.016,0.012l-0.017,0.012l-0.016,0.012l-0.017,0.012l-0.017,0.011l-0.017,0.011l-0.017,0.011l-0.017,0.01l-0.017,0.01l-0.017,0.011l-0.018,0.009l-0.017,0.01l-0.018,0.009l-0.017,0.009l-0.018,0.009l-0.018,0.009l-0.018,0.008l-0.018,0.008l-0.018,0.008l-0.018,0.008l-0.018,0.007l-0.018,0.008l-0.019,0.006l-0.018,0.007l-0.019,0.007l-0.018,0.006l-0.019,0.006l-0.019,0.005l-0.019,0.006l-0.019,0.005l-0.019,0.005l-0.019,0.005l-0.019,0.005l-0.019,0.004l-0.02,0.004l-0.019,0.004l-0.02,0.003l-0.019,0.004l-0.02,0.003l-0.02,0.003l-0.019,0.002l-0.02,0.003l-0.02,0.002l-0.02,0.002l-0.02,0.002l-0.02,0.001l-0.021,0.001l-0.02,0.001l-0.02,0.001l-0.021,0.001l-0.02,0l-0.021,0l-0.02,0l-0.021,0l-0.02,-0.001l-0.02,-0.001l-0.021,-0.001l-0.02,-0.001l-0.02,-0.001l-0.02,-0.002l-0.02,-0.002l-0.02,-0.002l-0.02,-0.003l-0.02,-0.002l-0.019,-0.003l-0.02,-0.003l-0.019,-0.004l-0.02,-0.003l-0.019,-0.004l-0.02,-0.004l-0.019,-0.004l-0.019,-0.005l-0.019,-0.005l-0.019,-0.005l-0.019,-0.005l-0.019,-0.006l-0.019,-0.005l-0.019,-0.006l-0.018,-0.006l-0.019,-0.007l-0.018,-0.007l-0.019,-0.006l-0.018,-0.008l-0.018,-0.007l-0.018,-0.008l-0.019,-0.008l-0.018,-0.008l-0.017,-0.008l-0.018,-0.009l-0.018,-0.009l-0.018,-0.009l-0.017,-0.009l-0.018,-0.01l-0.017,-0.009l-0.017,-0.011l-0.017,-0.01l-0.017,-0.01l-0.017,-0.011l-0.017,-0.011l-0.017,-0.011l-0.017,-0.012l-0.017,-0.012l-0.016,-0.012l-0.016,-0.012l-0.017,-0.012l-0.016,-0.013l-0.016,-0.013l-0.016,-0.013l-0.016,-0.014l-0.016,-0.013l-0.016,-0.014l-0.015,-0.014l-0.016,-0.014l-0.015,-0.015l-0.015,-0.015l-0.016,-0.015l-0.015,-0.015l-0.014,-0.015l-0.015,-0.016l-0.015,-0.016l-0.014,-0.015l-0.014,-0.016l-0.014,-0.016l-0.013,-0.017l-0.014,-0.016l-0.013,-0.017l-0.013,-0.016l-0.013,-0.017l-0.013,-0.017l-0.012,-0.018l-0.012,-0.017l-0.012,-0.017l-0.012,-0.018l-0.012,-0.018l-0.011,-0.018l-0.011,-0.018l-0.011,-0.018l-0.011,-0.019l-0.011,-0.019l-0.01,-0.018l-0.01,-0.019l-0.01,-0.019l-0.009,-0.02l-0.01,-0.019l-0.009,-0.02l-0.009,-0.019l-0.008,-0.02l-0.009,-0.02l-0.008,-0.02l-0.008,-0.021l-0.007,-0.02l-0.008,-0.021l-0.007,-0.021l-0.007,-0.021l-0.007,-0.021l-0.006,-0.021l-0.006,-0.021l-0.006,-0.021l-0.006,-0.022l-0.005,-0.021l-0.005,-0.022l-0.005,-0.022l-0.005,-0.022l-0.004,-0.022l-0.004,-0.022l-0.004,-0.022l-0.003,-0.023l-0.003,-0.022l-0.003,-0.023l-0.003,-0.022l-0.003,-0.023l-0.002,-0.023l-0.002,-0.022l-0.001,-0.023l-0.002,-0.023l-0.001,-0.023l-0.001,-0.023l-0.001,-0.023l0,-0.024l0,-0.022l0,-4.634l0.807,0l0,4.632l0,0.021l0.001,0.018l0.001,0.019l0.001,0.018l0.002,0.018l0.002,0.017l0.003,0.018l0.003,0.017l0.003,0.017l0.004,0.016l0.005,0.017l0.004,0.016l0.005,0.016l0.006,0.016l0.006,0.016l0.006,0.017l0.007,0.016l0.007,0.016l0.008,0.016l0.009,0.016l0.009,0.016l0.009,0.016l0.01,0.016l0.011,0.016l0.011,0.017l0.012,0.016l0.013,0.016l0.013,0.016l0.014,0.016l0.014,0.017l0.016,0.016l0.015,0.016l0.017,0.016l0.016,0.016l0.017,0.014l0.017,0.015l0.017,0.014l0.017,0.013l0.017,0.013l0.018,0.012l0.018,0.012l0.018,0.011l0.018,0.011l0.018,0.01l0.019,0.01l0.019,0.01l0.019,0.009l0.019,0.008l0.02,0.008l0.02,0.007l0.02,0.007l0.021,0.007l0.02,0.006l0.021,0.005l0.022,0.005l0.021,0.004l0.022,0.004l0.022,0.004l0.023,0.003l0.022,0.002l0.023,0.002l0.024,0.001l0.023,0.001l0.024,0l0.012,0l0.012,0l0.012,0l0.012,-0.001l0.012,0l0.011,-0.001l0.012,-0.001l0.012,-0.001l0.011,-0.001l0.011,-0.001l0.012,-0.002l0.011,-0.001l0.011,-0.002l0.011,-0.002l0.011,-0.002l0.011,-0.002l0.011,-0.002l0.01,-0.002l0.011,-0.002l0.011,-0.003l0.01,-0.003l0.011,-0.002l0.01,-0.003l0.01,-0.003l0.01,-0.004l0.011,-0.003l0.01,-0.003l0.01,-0.004l0.01,-0.003l0.01,-0.004l0.01,-0.004l0.009,-0.004l0.01,-0.004l0.01,-0.004l0.009,-0.005l0.01,-0.004l0.009,-0.005l0.01,-0.005l0.009,-0.005l0.009,-0.005l0.01,-0.005l0.009,-0.005l0.009,-0.005l0.009,-0.006l0.009,-0.005l0.009,-0.006l0.009,-0.006l0.009,-0.006l0.009,-0.006l0.008,-0.006l0.009,-0.007l0.009,-0.006l0.009,-0.007l0.008,-0.006l0.009,-0.007l0.008,-0.007l0.009,-0.007l0.008,-0.008l0.008,-0.007l0.009,-0.007l0.008,-0.008l0.008,-0.008l0.008,-0.008l0.008,-0.008l0.008,-0.008l0.008,-0.008l0.008,-0.008l0.007,-0.008l0.008,-0.008l0.007,-0.009l0.007,-0.008l0.007,-0.008l0.006,-0.008l0.007,-0.008l0.006,-0.008l0.007,-0.008l0.006,-0.008l0.005,-0.008l0.006,-0.009l0.006,-0.008l0.005,-0.008l0.005,-0.008l0.006,-0.008l0.005,-0.008l0.004,-0.008l0.005,-0.008l0.005,-0.008l0.004,-0.008l0.004,-0.008l0.005,-0.008l0.004,-0.008l0.003,-0.008l0.004,-0.008l0.004,-0.008l0.003,-0.008l0.004,-0.008l0.003,-0.009l0.003,-0.008l0.003,-0.008l0.003,-0.008l0.003,-0.008l0.003,-0.008l0.002,-0.008l0.003,-0.008l0.002,-0.008l0.002,-0.008l0.002,-0.009l0.003,-0.008l0.002,-0.008l0.001,-0.008l0.002,-0.009l0.002,-0.008l0.001,-0.009l0.002,-0.008l0.001,-0.009l0.001,-0.009l0.002,-0.008l0.001,-0.009l0.001,-0.009l0.001,-0.009l0,-0.009l0.001,-0.009l0.001,-0.009l0,-0.01l0,-0.009l0.001,-0.009l0,-0.01l0,-0.011l0,-4.632l0.807,0l0,4.634l0,0.022Z" style="fill:#0089ec;"/><path d="M486.663,505.492l-1.575,0l-0.014,0l-0.013,0l-0.013,0.001l-0.013,0l-0.013,0.001l-0.013,0.001l-0.013,0l-0.013,0.002l-0.012,0.001l-0.013,0.001l-0.012,0.002l-0.013,0.001l-0.012,0.002l-0.012,0.002l-0.012,0.002l-0.012,0.002l-0.012,0.003l-0.012,0.002l-0.012,0.003l-0.012,0.003l-0.011,0.002l-0.012,0.003l-0.011,0.004l-0.012,0.003l-0.011,0.003l-0.011,0.004l-0.012,0.004l-0.011,0.003l-0.011,0.004l-0.011,0.005l-0.011,0.004l-0.011,0.004l-0.01,0.005l-0.011,0.004l-0.011,0.005l-0.01,0.005l-0.011,0.005l-0.01,0.005l-0.011,0.006l-0.01,0.005l-0.01,0.006l-0.01,0.005l-0.011,0.006l-0.01,0.006l-0.01,0.006l-0.01,0.006l-0.009,0.007l-0.01,0.006l-0.01,0.007l-0.01,0.007l-0.009,0.007l-0.01,0.007l-0.01,0.007l-0.009,0.007l-0.01,0.008l-0.009,0.007l-0.009,0.008l-0.01,0.008l-0.009,0.008l-0.009,0.008l-0.009,0.009l-0.009,0.008l-0.009,0.009l-0.009,0.008l-0.009,0.009l-0.009,0.009l-0.008,0.009l-0.009,0.009l-0.008,0.008l-0.008,0.009l-0.007,0.009l-0.008,0.009l-0.007,0.009l-0.008,0.009l-0.007,0.009l-0.006,0.009l-0.007,0.008l-0.007,0.009l-0.006,0.009l-0.006,0.009l-0.006,0.009l-0.006,0.009l-0.006,0.009l-0.005,0.009l-0.006,0.009l-0.005,0.009l-0.005,0.008l-0.005,0.009l-0.005,0.009l-0.004,0.009l-0.005,0.009l-0.004,0.009l-0.004,0.009l-0.005,0.009l-0.003,0.009l-0.004,0.009l-0.004,0.009l-0.003,0.009l-0.004,0.008l-0.003,0.01l-0.003,0.009l-0.003,0.009l-0.003,0.009l-0.003,0.009l-0.003,0.009l-0.002,0.009l-0.003,0.009l-0.002,0.01l-0.002,0.009l-0.002,0.009l-0.002,0.01l-0.002,0.009l-0.002,0.01l-0.002,0.009l-0.001,0.01l-0.002,0.01l-0.001,0.009l-0.001,0.01l-0.001,0.01l-0.001,0.01l-0.001,0.011l-0.001,0.01l0,0.01l-0.001,0.011l0,0.01l-0.001,0.011l0,0.011l0,0.011l0,0.021l0.001,0.021l0.001,0.021l0.002,0.021l0.002,0.02l0.002,0.02l0.003,0.019l0.004,0.02l0.004,0.019l0.004,0.018l0.005,0.019l0.005,0.019l0.006,0.018l0.006,0.018l0.007,0.018l0.007,0.019l0.008,0.018l0.008,0.018l0.009,0.018l0.01,0.018l0.01,0.018l0.01,0.018l0.012,0.018l0.012,0.018l0.012,0.018l0.014,0.018l0.014,0.018l0.014,0.019l0.016,0.018l0.016,0.018l0.017,0.018l0.017,0.018l0.018,0.017l0.018,0.017l0.019,0.017l0.018,0.016l0.019,0.015l0.019,0.015l0.02,0.014l0.019,0.014l0.02,0.013l0.02,0.012l0.02,0.012l0.02,0.012l0.021,0.01l0.021,0.011l0.021,0.01l0.021,0.009l0.022,0.009l0.022,0.008l0.022,0.007l0.023,0.008l0.023,0.006l0.023,0.006l0.023,0.006l0.024,0.004l0.024,0.005l0.025,0.004l0.024,0.003l0.026,0.002l0.025,0.002l0.026,0.002l0.026,0.001l0.013,0l0.014,0l0.631,0l0.025,0.002l0.021,0.001l0.021,0.002l0.021,0.002l0.021,0.002l0.02,0.002l0.021,0.003l0.02,0.003l0.021,0.003l0.02,0.003l0.02,0.003l0.02,0.004l0.02,0.004l0.02,0.004l0.02,0.005l0.02,0.004l0.019,0.005l0.02,0.005l0.02,0.005l0.019,0.006l0.019,0.006l0.02,0.006l0.019,0.006l0.019,0.006l0.019,0.007l0.019,0.007l0.019,0.007l0.018,0.008l0.019,0.007l0.018,0.008l0.019,0.008l0.018,0.009l0.019,0.008l0.018,0.009l0.018,0.009l0.018,0.009l0.018,0.01l0.017,0.01l0.018,0.01l0.018,0.01l0.017,0.011l0.018,0.01l0.017,0.011l0.017,0.011l0.017,0.012l0.017,0.011l0.017,0.012l0.017,0.012l0.016,0.013l0.017,0.012l0.016,0.013l0.017,0.013l0.016,0.014l0.016,0.013l0.016,0.014l0.016,0.014l0.016,0.014l0.015,0.014l0.016,0.015l0.015,0.015l0.016,0.015l0.015,0.015l0.015,0.016l0.015,0.016l0.015,0.016l0.014,0.016l0.015,0.016l0.014,0.016l0.014,0.017l0.014,0.016l0.013,0.017l0.014,0.017l0.013,0.017l0.013,0.017l0.013,0.018l0.012,0.017l0.013,0.018l0.012,0.017l0.012,0.018l0.012,0.018l0.011,0.019l0.012,0.018l0.011,0.018l0.011,0.019l0.01,0.019l0.011,0.019l0.01,0.019l0.01,0.019l0.01,0.019l0.01,0.02l0.009,0.02l0.009,0.019l0.009,0.02l0.009,0.02l0.008,0.021l0.008,0.02l0.008,0.02l0.008,0.021l0.008,0.021l0.007,0.021l0.007,0.021l0.006,0.021l0.007,0.021l0.006,0.021l0.006,0.022l0.006,0.021l0.005,0.022l0.006,0.022l0.005,0.022l0.004,0.022l0.005,0.022l0.004,0.022l0.004,0.022l0.004,0.023l0.003,0.022l0.003,0.023l0.003,0.023l0.003,0.022l0.002,0.023l0.003,0.023l0.001,0.023l0.002,0.023l0.001,0.023l0.002,0.023l0,0.023l0.001,0.023l0,0.023l0.001,0.024l-0.001,0.023l0,0.023l-0.001,0.023l0,0.024l-0.002,0.023l-0.001,0.023l-0.002,0.023l-0.001,0.023l-0.003,0.022l-0.002,0.023l-0.003,0.023l-0.003,0.022l-0.003,0.023l-0.003,0.022l-0.004,0.023l-0.004,0.022l-0.004,0.022l-0.005,0.022l-0.004,0.023l-0.005,0.021l-0.006,0.022l-0.005,0.022l-0.006,0.022l-0.006,0.021l-0.006,0.021l-0.007,0.022l-0.006,0.021l-0.007,0.021l-0.007,0.021l-0.008,0.02l-0.008,0.021l-0.008,0.02l-0.008,0.021l-0.008,0.02l-0.009,0.02l-0.009,0.02l-0.009,0.02l-0.009,0.019l-0.01,0.02l-0.01,0.019l-0.01,0.02l-0.01,0.019l-0.011,0.019l-0.01,0.018l-0.011,0.019l-0.011,0.018l-0.012,0.019l-0.011,0.018l-0.012,0.018l-0.012,0.018l-0.012,0.018l-0.013,0.017l-0.012,0.018l-0.013,0.017l-0.013,0.017l-0.013,0.017l-0.014,0.017l-0.013,0.017l-0.014,0.017l-0.014,0.016l-0.014,0.016l-0.015,0.017l-0.014,0.016l-0.015,0.016l-0.015,0.015l-0.015,0.016l-0.015,0.015l-0.016,0.015l-0.015,0.015l-0.016,0.015l-0.015,0.014l-0.016,0.015l-0.016,0.014l-0.016,0.013l-0.016,0.014l-0.016,0.013l-0.017,0.013l-0.016,0.013l-0.017,0.013l-0.016,0.012l-0.017,0.012l-0.017,0.012l-0.017,0.012l-0.017,0.011l-0.017,0.011l-0.017,0.011l-0.018,0.011l-0.017,0.01l-0.018,0.011l-0.018,0.01l-0.017,0.009l-0.018,0.01l-0.018,0.009l-0.018,0.009l-0.018,0.009l-0.019,0.009l-0.018,0.008l-0.019,0.008l-0.018,0.008l-0.019,0.008l-0.018,0.007l-0.019,0.007l-0.019,0.007l-0.019,0.007l-0.019,0.006l-0.019,0.007l-0.02,0.006l-0.019,0.005l-0.019,0.006l-0.02,0.005l-0.02,0.005l-0.019,0.005l-0.02,0.005l-0.02,0.004l-0.02,0.004l-0.02,0.004l-0.02,0.004l-0.02,0.004l-0.02,0.003l-0.021,0.003l-0.02,0.003l-0.021,0.002l-0.02,0.003l-0.021,0.002l-0.021,0.002l-0.021,0.001l-0.021,0.002l-0.025,0.001l-2.395,0l0,-0.955l2.302,0l0.014,0l0.013,0l0.013,0l0.013,-0.001l0.013,-0.001l0.013,0l0.013,-0.001l0.012,-0.001l0.013,-0.002l0.012,-0.001l0.013,-0.001l0.012,-0.002l0.012,-0.002l0.013,-0.002l0.012,-0.002l0.012,-0.002l0.012,-0.002l0.012,-0.003l0.012,-0.003l0.011,-0.002l0.012,-0.003l0.011,-0.003l0.012,-0.003l0.011,-0.004l0.012,-0.003l0.011,-0.004l0.011,-0.003l0.011,-0.004l0.011,-0.004l0.011,-0.004l0.011,-0.005l0.011,-0.004l0.011,-0.004l0.011,-0.005l0.01,-0.005l0.011,-0.005l0.01,-0.005l0.011,-0.005l0.01,-0.005l0.011,-0.006l0.01,-0.005l0.01,-0.006l0.01,-0.006l0.01,-0.006l0.01,-0.006l0.01,-0.006l0.01,-0.007l0.01,-0.006l0.01,-0.007l0.009,-0.007l0.01,-0.006l0.01,-0.008l0.009,-0.007l0.01,-0.007l0.009,-0.008l0.01,-0.007l0.009,-0.008l0.009,-0.008l0.009,-0.008l0.01,-0.008l0.009,-0.008l0.009,-0.009l0.009,-0.008l0.009,-0.009l0.009,-0.009l0.008,-0.009l0.009,-0.009l0.008,-0.008l0.008,-0.009l0.008,-0.009l0.008,-0.009l0.007,-0.009l0.008,-0.009l0.007,-0.009l0.007,-0.009l0.007,-0.008l0.007,-0.009l0.006,-0.009l0.007,-0.009l0.006,-0.009l0.006,-0.009l0.006,-0.009l0.005,-0.009l0.006,-0.009l0.005,-0.008l0.006,-0.009l0.005,-0.009l0.005,-0.009l0.004,-0.009l0.005,-0.009l0.004,-0.009l0.005,-0.009l0.004,-0.009l0.004,-0.009l0.004,-0.008l0.004,-0.009l0.003,-0.009l0.004,-0.009l0.003,-0.009l0.004,-0.009l0.003,-0.009l0.003,-0.009l0.003,-0.009l0.003,-0.01l0.002,-0.009l0.003,-0.009l0.002,-0.009l0.003,-0.009l0.002,-0.01l0.002,-0.009l0.002,-0.009l0.002,-0.01l0.002,-0.009l0.001,-0.01l0.002,-0.01l0.001,-0.009l0.001,-0.01l0.002,-0.01l0.001,-0.01l0.001,-0.01l0.001,-0.01l0,-0.011l0.001,-0.01l0.001,-0.01l0,-0.011l0,-0.011l0,-0.01l0.001,-0.011l-0.001,-0.011l0,-0.011l0,-0.011l0,-0.01l-0.001,-0.011l-0.001,-0.01l0,-0.01l-0.001,-0.01l-0.001,-0.011l-0.001,-0.01l-0.002,-0.009l-0.001,-0.01l-0.001,-0.01l-0.002,-0.01l-0.001,-0.009l-0.002,-0.01l-0.002,-0.009l-0.002,-0.01l-0.002,-0.009l-0.002,-0.009l-0.003,-0.01l-0.002,-0.009l-0.003,-0.009l-0.002,-0.009l-0.003,-0.009l-0.003,-0.009l-0.003,-0.009l-0.003,-0.009l-0.004,-0.009l-0.003,-0.009l-0.004,-0.009l-0.003,-0.009l-0.004,-0.009l-0.004,-0.009l-0.004,-0.009l-0.004,-0.009l-0.005,-0.009l-0.004,-0.009l-0.005,-0.009l-0.004,-0.009l-0.005,-0.008l-0.005,-0.009l-0.006,-0.009l-0.005,-0.009l-0.006,-0.009l-0.005,-0.009l-0.006,-0.009l-0.006,-0.009l-0.006,-0.009l-0.007,-0.008l-0.006,-0.009l-0.007,-0.009l-0.007,-0.009l-0.007,-0.009l-0.007,-0.009l-0.008,-0.009l-0.007,-0.009l-0.008,-0.009l-0.008,-0.008l-0.008,-0.009l-0.008,-0.009l-0.009,-0.009l-0.008,-0.009l-0.009,-0.008l-0.009,-0.009l-0.009,-0.009l-0.009,-0.008l-0.009,-0.009l-0.01,-0.008l-0.009,-0.008l-0.009,-0.008l-0.009,-0.008l-0.01,-0.007l-0.009,-0.008l-0.01,-0.007l-0.009,-0.007l-0.01,-0.007l-0.01,-0.007l-0.009,-0.007l-0.01,-0.007l-0.01,-0.006l-0.01,-0.006l-0.01,-0.007l-0.01,-0.006l-0.01,-0.006l-0.01,-0.006l-0.01,-0.005l-0.01,-0.006l-0.011,-0.005l-0.01,-0.006l-0.011,-0.005l-0.01,-0.005l-0.011,-0.005l-0.01,-0.005l-0.011,-0.004l-0.011,-0.005l-0.011,-0.004l-0.011,-0.004l-0.011,-0.004l-0.011,-0.004l-0.011,-0.004l-0.011,-0.004l-0.011,-0.004l-0.012,-0.003l-0.011,-0.003l-0.012,-0.003l-0.011,-0.003l-0.012,-0.003l-0.011,-0.003l-0.012,-0.003l-0.012,-0.002l-0.012,-0.003l-0.012,-0.002l-0.012,-0.002l-0.013,-0.002l-0.012,-0.002l-0.012,-0.001l-0.013,-0.002l-0.012,-0.001l-0.013,-0.001l-0.012,-0.001l-0.013,-0.001l-0.013,-0.001l-0.013,-0.001l-0.013,0l-0.013,-0.001l-0.013,0l-0.014,0l-0.849,0l0,-0.035l-0.014,-0.002l-0.02,-0.004l-0.02,-0.004l-0.02,-0.004l-0.019,-0.004l-0.02,-0.005l-0.02,-0.005l-0.019,-0.005l-0.02,-0.005l-0.019,-0.006l-0.02,-0.006l-0.019,-0.006l-0.019,-0.006l-0.019,-0.006l-0.019,-0.007l-0.019,-0.007l-0.019,-0.007l-0.019,-0.008l-0.018,-0.007l-0.019,-0.008l-0.018,-0.008l-0.019,-0.009l-0.018,-0.008l-0.018,-0.009l-0.018,-0.009l-0.018,-0.009l-0.018,-0.01l-0.018,-0.01l-0.017,-0.01l-0.018,-0.01l-0.018,-0.01l-0.017,-0.011l-0.017,-0.011l-0.017,-0.011l-0.017,-0.012l-0.017,-0.011l-0.017,-0.012l-0.017,-0.012l-0.017,-0.013l-0.016,-0.012l-0.017,-0.013l-0.016,-0.013l-0.016,-0.013l-0.016,-0.014l-0.016,-0.014l-0.016,-0.014l-0.016,-0.014l-0.016,-0.014l-0.015,-0.015l-0.016,-0.015l-0.015,-0.015l-0.015,-0.015l-0.015,-0.016l-0.015,-0.016l-0.015,-0.015l-0.015,-0.017l-0.014,-0.016l-0.014,-0.016l-0.014,-0.017l-0.014,-0.016l-0.014,-0.017l-0.013,-0.017l-0.013,-0.017l-0.013,-0.017l-0.013,-0.017l-0.013,-0.018l-0.012,-0.017l-0.012,-0.018l-0.012,-0.018l-0.012,-0.018l-0.012,-0.018l-0.011,-0.019l-0.011,-0.018l-0.011,-0.019l-0.011,-0.019l-0.01,-0.019l-0.011,-0.019l-0.01,-0.019l-0.009,-0.019l-0.01,-0.02l-0.009,-0.019l-0.01,-0.02l-0.008,-0.02l-0.009,-0.02l-0.009,-0.02l-0.008,-0.021l-0.008,-0.02l-0.007,-0.021l-0.008,-0.021l-0.007,-0.02l-0.007,-0.021l-0.007,-0.022l-0.006,-0.021l-0.007,-0.021l-0.006,-0.022l-0.005,-0.021l-0.006,-0.022l-0.005,-0.022l-0.005,-0.022l-0.005,-0.022l-0.004,-0.022l-0.005,-0.022l-0.003,-0.022l-0.004,-0.023l-0.004,-0.022l-0.003,-0.023l-0.003,-0.022l-0.002,-0.023l-0.003,-0.023l-0.002,-0.023l-0.002,-0.023l-0.001,-0.022l-0.002,-0.024l-0.001,-0.023l-0.001,-0.023l-0.001,-0.023l0,-0.023l0,-0.023l0,-0.024l0,-0.023l0.001,-0.023l0.001,-0.023l0.001,-0.023l0.002,-0.023l0.001,-0.023l0.002,-0.023l0.002,-0.023l0.003,-0.023l0.002,-0.023l0.003,-0.022l0.003,-0.023l0.004,-0.022l0.004,-0.023l0.003,-0.022l0.005,-0.022l0.004,-0.022l0.005,-0.022l0.005,-0.022l0.005,-0.022l0.006,-0.022l0.005,-0.021l0.006,-0.022l0.007,-0.021l0.006,-0.021l0.007,-0.022l0.007,-0.021l0.007,-0.02l0.008,-0.021l0.007,-0.021l0.008,-0.02l0.008,-0.021l0.009,-0.02l0.009,-0.02l0.008,-0.02l0.01,-0.02l0.009,-0.019l0.01,-0.02l0.009,-0.019l0.01,-0.019l0.011,-0.019l0.01,-0.019l0.011,-0.019l0.011,-0.019l0.011,-0.018l0.011,-0.019l0.012,-0.018l0.012,-0.018l0.012,-0.018l0.012,-0.018l0.012,-0.017l0.013,-0.018l0.013,-0.017l0.013,-0.017l0.013,-0.017l0.013,-0.017l0.014,-0.017l0.014,-0.016l0.014,-0.017l0.014,-0.016l0.014,-0.016l0.015,-0.016l0.015,-0.016l0.015,-0.016l0.015,-0.016l0.015,-0.015l0.015,-0.015l0.016,-0.015l0.015,-0.015l0.016,-0.014l0.016,-0.014l0.016,-0.014l0.016,-0.014l0.016,-0.014l0.016,-0.013l0.016,-0.013l0.017,-0.013l0.016,-0.012l0.017,-0.013l0.017,-0.012l0.017,-0.012l0.017,-0.011l0.017,-0.012l0.017,-0.011l0.017,-0.011l0.017,-0.011l0.018,-0.01l0.018,-0.01l0.017,-0.01l0.018,-0.01l0.018,-0.01l0.018,-0.009l0.018,-0.009l0.018,-0.009l0.018,-0.008l0.019,-0.009l0.018,-0.008l0.019,-0.008l0.018,-0.007l0.019,-0.008l0.019,-0.007l0.019,-0.007l0.019,-0.007l0.019,-0.006l0.019,-0.006l0.019,-0.006l0.02,-0.006l0.019,-0.006l0.02,-0.005l0.019,-0.005l0.02,-0.005l0.02,-0.005l0.019,-0.004l0.02,-0.004l0.02,-0.004l0.02,-0.004l0.021,-0.003l0.02,-0.004l0.02,-0.003l0.021,-0.002l0.02,-0.003l0.021,-0.002l0.021,-0.002l0.02,-0.002l0.021,-0.002l0.021,-0.002l0.025,-0.001l1.669,0l0,0.955Z" style="fill:#0089ec;"/></g></g><rect x="3" y="22.749" width="135" height="48" style="fill:none;stroke-width:2px;stroke:#0089ec;"/><rect x="139.5" y="22.749" width="165" height="48" style="fill:none;stroke-width:2px;stroke:#00cd3a;"/></svg>