<?xml version="1.0" standalone="no"?><!DOCTYPE svg PUBLIC "-//W3C//DTD SVG 1.1//EN" "http://www.w3.org/Graphics/SVG/1.1/DTD/svg11.dtd"><svg width="100%" height="100%" viewBox="0 0 300 149" version="1.1" xmlns="http://www.w3.org/2000/svg" xmlns:xlink="http://www.w3.org/1999/xlink" xml:space="preserve" style="fill-rule:evenodd;clip-rule:evenodd;stroke-linejoin:round;stroke-miterlimit:1.41421;"><g transform="matrix(7.66202,0,0,5.74652,-3406.57,-2798.49)"><text x="465.998px" y="510.623px" style="font-family:Asgalt;font-size:11.746px;fill:#0089ec;">E<tspan x="469.84px 474.86px 478.702px " y="510.623px 510.623px 510.623px ">XUS</tspan></text><path d="M469.115,504.537l0,0.955l-2.532,0l0,1.753l1.805,0l0,0.955l-1.805,0l0,1.764l2.532,0l0,0.955l-3.339,0l0,-6.382l3.339,0Z" style="fill:#0089ec;"/><path d="M474.156,504.537l0.083,0.238l-1.864,2.965l1.842,2.942l-0.083,0.237l-0.776,0l-1.481,-2.366l-1.482,2.366l-0.776,0l-0.083,-0.237l1.842,-2.942l-1.864,-2.965l0.083,-0.238l0.776,0l1.504,2.399l1.503,-2.399l0.776,0Z" style="fill:#0089ec;"/><path d="M477.977,504.537l0,4.634l0,0.022l0,0.024l-0.001,0.023l-0.001,0.023l-0.001,0.023l-0.002,0.023l-0.001,0.023l-0.002,0.022l-0.002,0.023l-0.003,0.023l-0.003,0.022l-0.003,0.023l-0.003,0.022l-0.003,0.023l-0.004,0.022l-0.004,0.022l-0.004,0.022l-0.005,0.022l-0.005,0.022l-0.005,0.022l-0.005,0.021l-0.006,0.022l-0.006,0.021l-0.006,0.021l-0.006,0.021l-0.007,0.021l-0.007,0.021l-0.007,0.021l-0.008,0.021l-0.007,0.02l-0.008,0.021l-0.008,0.02l-0.009,0.02l-0.008,0.02l-0.009,0.019l-0.009,0.02l-0.01,0.019l-0.009,0.02l-0.01,0.019l-0.01,0.019l-0.01,0.018l-0.011,0.019l-0.011,0.019l-0.011,0.018l-0.011,0.018l-0.011,0.018l-0.012,0.018l-0.012,0.018l-0.012,0.017l-0.012,0.017l-0.012,0.018l-0.013,0.017l-0.013,0.017l-0.013,0.016l-0.013,0.017l-0.014,0.016l-0.013,0.017l-0.014,0.016l-0.014,0.016l-0.014,0.015l-0.015,0.016l-0.015,0.016l-0.014,0.015l-0.016,0.015l-0.015,0.015l-0.015,0.015l-0.015,0.015l-0.016,0.014l-0.015,0.014l-0.016,0.014l-0.016,0.013l-0.016,0.014l-0.016,0.013l-0.016,0.013l-0.016,0.013l-0.017,0.012l-0.016,0.012l-0.016,0.012l-0.017,0.012l-0.017,0.012l-0.017,0.011l-0.017,0.011l-0.017,0.011l-0.017,0.01l-0.017,0.01l-0.017,0.011l-0.017,0.009l-0.018,0.01l-0.017,0.009l-0.018,0.009l-0.018,0.009l-0.018,0.009l-0.018,0.008l-0.017,0.008l-0.019,0.008l-0.018,0.008l-0.018,0.007l-0.018,0.008l-0.019,0.006l-0.018,0.007l-0.019,0.007l-0.018,0.006l-0.019,0.006l-0.019,0.006l-0.019,0.005l-0.019,0.005l-0.019,0.005l-0.019,0.005l-0.019,0.005l-0.019,0.004l-0.02,0.004l-0.019,0.004l-0.02,0.003l-0.019,0.004l-0.02,0.003l-0.019,0.003l-0.02,0.002l-0.02,0.003l-0.02,0.002l-0.02,0.002l-0.02,0.002l-0.02,0.001l-0.02,0.001l-0.021,0.001l-0.02,0.001l-0.02,0.001l-0.021,0l-0.02,0l-0.021,0l-0.02,0l-0.021,-0.001l-0.02,-0.001l-0.021,-0.001l-0.02,-0.001l-0.02,-0.001l-0.02,-0.002l-0.02,-0.002l-0.02,-0.002l-0.02,-0.003l-0.019,-0.002l-0.02,-0.003l-0.02,-0.003l-0.019,-0.004l-0.02,-0.003l-0.019,-0.004l-0.02,-0.004l-0.019,-0.004l-0.019,-0.005l-0.019,-0.005l-0.019,-0.005l-0.019,-0.005l-0.019,-0.005l-0.019,-0.006l-0.019,-0.006l-0.018,-0.006l-0.019,-0.007l-0.018,-0.007l-0.019,-0.006l-0.018,-0.008l-0.018,-0.007l-0.018,-0.008l-0.018,-0.008l-0.018,-0.008l-0.018,-0.008l-0.018,-0.009l-0.018,-0.009l-0.017,-0.009l-0.018,-0.009l-0.017,-0.01l-0.018,-0.009l-0.017,-0.011l-0.017,-0.01l-0.017,-0.01l-0.017,-0.011l-0.017,-0.011l-0.017,-0.011l-0.017,-0.012l-0.016,-0.012l-0.017,-0.012l-0.016,-0.012l-0.017,-0.012l-0.016,-0.013l-0.016,-0.013l-0.016,-0.013l-0.016,-0.014l-0.016,-0.013l-0.015,-0.014l-0.016,-0.014l-0.016,-0.014l-0.015,-0.015l-0.015,-0.015l-0.015,-0.015l-0.015,-0.015l-0.015,-0.015l-0.015,-0.016l-0.014,-0.016l-0.015,-0.015l-0.014,-0.016l-0.014,-0.016l-0.013,-0.017l-0.014,-0.016l-0.013,-0.017l-0.013,-0.016l-0.013,-0.017l-0.013,-0.017l-0.012,-0.018l-0.012,-0.017l-0.012,-0.017l-0.012,-0.018l-0.012,-0.018l-0.011,-0.018l-0.011,-0.018l-0.011,-0.018l-0.011,-0.019l-0.01,-0.019l-0.011,-0.018l-0.01,-0.019l-0.01,-0.019l-0.009,-0.02l-0.01,-0.019l-0.009,-0.02l-0.009,-0.019l-0.008,-0.02l-0.009,-0.02l-0.008,-0.02l-0.008,-0.021l-0.007,-0.02l-0.008,-0.021l-0.007,-0.021l-0.007,-0.021l-0.006,-0.021l-0.007,-0.021l-0.006,-0.021l-0.006,-0.021l-0.006,-0.022l-0.005,-0.021l-0.005,-0.022l-0.005,-0.022l-0.004,-0.022l-0.005,-0.022l-0.004,-0.022l-0.004,-0.022l-0.003,-0.023l-0.003,-0.022l-0.003,-0.023l-0.003,-0.022l-0.003,-0.023l-0.002,-0.023l-0.002,-0.022l-0.001,-0.023l-0.002,-0.023l-0.001,-0.023l-0.001,-0.023l0,-0.023l-0.001,-0.024l0,-0.022l0,-4.634l0.807,0l0,4.632l0,0.021l0.001,0.018l0.001,0.019l0.001,0.018l0.002,0.018l0.003,0.017l0.002,0.018l0.003,0.017l0.004,0.017l0.003,0.016l0.005,0.017l0.004,0.016l0.005,0.016l0.006,0.016l0.006,0.016l0.006,0.017l0.007,0.016l0.008,0.016l0.007,0.016l0.009,0.016l0.009,0.016l0.009,0.016l0.01,0.016l0.011,0.016l0.012,0.017l0.011,0.016l0.013,0.016l0.013,0.016l0.014,0.016l0.015,0.017l0.015,0.016l0.016,0.016l0.016,0.016l0.016,0.016l0.017,0.014l0.017,0.015l0.017,0.014l0.017,0.013l0.017,0.013l0.018,0.012l0.018,0.012l0.018,0.011l0.018,0.011l0.019,0.01l0.018,0.01l0.019,0.01l0.019,0.009l0.02,0.008l0.019,0.008l0.02,0.007l0.02,0.007l0.021,0.007l0.02,0.006l0.021,0.005l0.022,0.005l0.021,0.004l0.022,0.004l0.022,0.004l0.023,0.003l0.022,0.002l0.024,0.002l0.023,0.001l0.024,0.001l0.024,0l0.012,0l0.012,0l0.011,0l0.012,-0.001l0.012,0l0.012,-0.001l0.011,-0.001l0.012,-0.001l0.011,-0.001l0.011,-0.001l0.012,-0.002l0.011,-0.001l0.011,-0.002l0.011,-0.002l0.011,-0.002l0.011,-0.002l0.011,-0.002l0.01,-0.002l0.011,-0.002l0.011,-0.003l0.01,-0.003l0.011,-0.002l0.01,-0.003l0.01,-0.003l0.011,-0.004l0.01,-0.003l0.01,-0.003l0.01,-0.004l0.01,-0.003l0.01,-0.004l0.01,-0.004l0.01,-0.004l0.009,-0.004l0.01,-0.004l0.009,-0.005l0.01,-0.004l0.009,-0.005l0.01,-0.005l0.009,-0.005l0.01,-0.005l0.009,-0.005l0.009,-0.005l0.009,-0.005l0.009,-0.006l0.009,-0.005l0.009,-0.006l0.009,-0.006l0.009,-0.006l0.009,-0.006l0.009,-0.006l0.008,-0.007l0.009,-0.006l0.009,-0.007l0.008,-0.006l0.009,-0.007l0.008,-0.007l0.009,-0.007l0.008,-0.008l0.008,-0.007l0.009,-0.007l0.008,-0.008l0.008,-0.008l0.008,-0.008l0.009,-0.008l0.008,-0.008l0.007,-0.008l0.008,-0.008l0.008,-0.008l0.007,-0.008l0.007,-0.009l0.007,-0.008l0.007,-0.008l0.007,-0.008l0.006,-0.008l0.006,-0.008l0.007,-0.008l0.006,-0.008l0.006,-0.008l0.005,-0.009l0.006,-0.008l0.005,-0.008l0.006,-0.008l0.005,-0.008l0.005,-0.008l0.005,-0.008l0.004,-0.008l0.005,-0.008l0.004,-0.008l0.005,-0.008l0.004,-0.008l0.004,-0.008l0.004,-0.008l0.003,-0.008l0.004,-0.008l0.003,-0.008l0.004,-0.008l0.003,-0.009l0.003,-0.008l0.003,-0.008l0.003,-0.008l0.003,-0.008l0.003,-0.008l0.002,-0.008l0.003,-0.008l0.002,-0.008l0.002,-0.008l0.003,-0.009l0.002,-0.008l0.002,-0.008l0.002,-0.008l0.001,-0.009l0.002,-0.008l0.001,-0.009l0.002,-0.008l0.001,-0.009l0.002,-0.009l0.001,-0.008l0.001,-0.009l0.001,-0.009l0.001,-0.009l0,-0.009l0.001,-0.009l0.001,-0.009l0,-0.01l0.001,-0.009l0,-0.009l0,-0.01l0,-0.011l0,-4.632l0.807,0Z" style="fill:#0089ec;"/><path d="M481.819,505.492l-1.575,0l-0.014,0l-0.013,0l-0.013,0.001l-0.013,0l-0.013,0.001l-0.013,0.001l-0.013,0l-0.013,0.002l-0.012,0.001l-0.013,0.001l-0.012,0.002l-0.013,0.001l-0.012,0.002l-0.012,0.002l-0.012,0.002l-0.012,0.002l-0.012,0.003l-0.012,0.002l-0.012,0.003l-0.012,0.003l-0.011,0.002l-0.012,0.003l-0.011,0.004l-0.012,0.003l-0.011,0.003l-0.011,0.004l-0.012,0.004l-0.011,0.003l-0.011,0.004l-0.011,0.005l-0.011,0.004l-0.01,0.004l-0.011,0.005l-0.011,0.004l-0.011,0.005l-0.01,0.005l-0.011,0.005l-0.01,0.005l-0.011,0.005l-0.01,0.006l-0.01,0.006l-0.01,0.005l-0.01,0.006l-0.01,0.006l-0.01,0.006l-0.01,0.006l-0.01,0.007l-0.01,0.006l-0.01,0.007l-0.01,0.007l-0.009,0.007l-0.01,0.007l-0.009,0.007l-0.01,0.007l-0.009,0.008l-0.01,0.007l-0.009,0.008l-0.009,0.008l-0.01,0.008l-0.009,0.008l-0.009,0.009l-0.009,0.008l-0.009,0.009l-0.009,0.008l-0.009,0.009l-0.009,0.009l-0.008,0.009l-0.008,0.009l-0.009,0.008l-0.007,0.009l-0.008,0.009l-0.008,0.009l-0.007,0.009l-0.007,0.009l-0.007,0.009l-0.007,0.009l-0.007,0.008l-0.007,0.009l-0.006,0.009l-0.006,0.009l-0.006,0.009l-0.006,0.009l-0.006,0.009l-0.005,0.009l-0.006,0.009l-0.005,0.009l-0.005,0.008l-0.005,0.009l-0.005,0.009l-0.004,0.009l-0.005,0.009l-0.004,0.009l-0.004,0.009l-0.004,0.009l-0.004,0.009l-0.004,0.009l-0.004,0.009l-0.003,0.009l-0.004,0.008l-0.003,0.01l-0.003,0.009l-0.003,0.009l-0.003,0.009l-0.003,0.009l-0.003,0.009l-0.002,0.009l-0.003,0.009l-0.002,0.01l-0.002,0.009l-0.002,0.009l-0.002,0.01l-0.002,0.009l-0.002,0.01l-0.001,0.009l-0.002,0.01l-0.001,0.01l-0.002,0.009l-0.001,0.01l-0.001,0.01l-0.001,0.01l-0.001,0.011l-0.001,0.01l0,0.01l-0.001,0.011l0,0.01l-0.001,0.011l0,0.011l0,0.011l0,0.021l0.001,0.021l0.001,0.021l0.002,0.021l0.002,0.02l0.003,0.02l0.003,0.019l0.003,0.02l0.004,0.019l0.004,0.018l0.005,0.019l0.005,0.019l0.006,0.018l0.006,0.018l0.007,0.018l0.007,0.019l0.008,0.018l0.008,0.018l0.009,0.018l0.01,0.018l0.01,0.018l0.01,0.018l0.012,0.018l0.012,0.018l0.012,0.018l0.014,0.018l0.014,0.018l0.014,0.019l0.016,0.018l0.016,0.018l0.017,0.018l0.017,0.018l0.018,0.017l0.018,0.017l0.019,0.017l0.019,0.016l0.018,0.015l0.019,0.015l0.02,0.014l0.019,0.014l0.02,0.013l0.02,0.012l0.02,0.012l0.02,0.012l0.021,0.01l0.021,0.011l0.021,0.01l0.021,0.009l0.022,0.009l0.022,0.008l0.022,0.007l0.023,0.008l0.023,0.006l0.023,0.006l0.024,0.006l0.023,0.004l0.024,0.005l0.025,0.004l0.025,0.003l0.025,0.002l0.025,0.002l0.026,0.002l0.026,0.001l0.013,0l0.014,0l0.632,0l0.025,0.002l0.021,0.001l0.02,0.002l0.021,0.002l0.021,0.002l0.02,0.002l0.021,0.003l0.02,0.003l0.021,0.003l0.02,0.003l0.02,0.003l0.02,0.004l0.02,0.004l0.02,0.004l0.02,0.005l0.02,0.004l0.02,0.005l0.019,0.005l0.02,0.005l0.019,0.006l0.02,0.006l0.019,0.006l0.019,0.006l0.019,0.006l0.019,0.007l0.019,0.007l0.019,0.007l0.018,0.008l0.019,0.007l0.019,0.008l0.018,0.008l0.018,0.009l0.019,0.008l0.018,0.009l0.018,0.009l0.018,0.009l0.018,0.01l0.018,0.01l0.017,0.01l0.018,0.01l0.017,0.011l0.018,0.01l0.017,0.011l0.017,0.011l0.017,0.012l0.017,0.011l0.017,0.012l0.017,0.012l0.016,0.013l0.017,0.012l0.016,0.013l0.017,0.013l0.016,0.014l0.016,0.013l0.016,0.014l0.016,0.014l0.016,0.014l0.015,0.014l0.016,0.015l0.015,0.015l0.016,0.015l0.015,0.015l0.015,0.016l0.015,0.016l0.015,0.016l0.014,0.016l0.015,0.016l0.014,0.016l0.014,0.017l0.014,0.016l0.013,0.017l0.014,0.017l0.013,0.017l0.013,0.017l0.013,0.018l0.013,0.017l0.012,0.018l0.012,0.017l0.012,0.018l0.012,0.018l0.011,0.019l0.012,0.018l0.011,0.018l0.011,0.019l0.011,0.019l0.01,0.019l0.01,0.019l0.01,0.019l0.01,0.019l0.01,0.02l0.009,0.02l0.009,0.019l0.009,0.02l0.009,0.02l0.008,0.021l0.008,0.02l0.008,0.02l0.008,0.021l0.008,0.021l0.007,0.021l0.007,0.021l0.007,0.021l0.006,0.021l0.006,0.021l0.006,0.022l0.006,0.021l0.006,0.022l0.005,0.022l0.005,0.022l0.005,0.022l0.004,0.022l0.004,0.022l0.004,0.022l0.004,0.023l0.003,0.022l0.003,0.023l0.003,0.022l0.003,0.023l0.003,0.023l0.002,0.023l0.002,0.023l0.001,0.023l0.002,0.023l0.001,0.023l0.001,0.023l0,0.023l0.001,0.023l0,0.024l0,0.023l-0.001,0.023l0,0.023l-0.001,0.024l-0.001,0.023l-0.002,0.023l-0.001,0.023l-0.002,0.023l-0.002,0.022l-0.003,0.023l-0.003,0.023l-0.003,0.022l-0.003,0.023l-0.003,0.022l-0.004,0.023l-0.004,0.022l-0.004,0.022l-0.004,0.022l-0.005,0.023l-0.005,0.021l-0.005,0.022l-0.006,0.022l-0.006,0.022l-0.006,0.021l-0.006,0.021l-0.006,0.022l-0.007,0.021l-0.007,0.021l-0.007,0.021l-0.008,0.02l-0.008,0.021l-0.008,0.02l-0.008,0.021l-0.008,0.02l-0.009,0.02l-0.009,0.02l-0.009,0.02l-0.009,0.019l-0.01,0.02l-0.01,0.019l-0.01,0.02l-0.01,0.019l-0.01,0.019l-0.011,0.018l-0.011,0.019l-0.011,0.018l-0.012,0.019l-0.011,0.018l-0.012,0.018l-0.012,0.018l-0.012,0.018l-0.012,0.017l-0.013,0.018l-0.013,0.017l-0.013,0.017l-0.013,0.017l-0.014,0.017l-0.013,0.017l-0.014,0.017l-0.014,0.016l-0.014,0.016l-0.015,0.017l-0.014,0.016l-0.015,0.016l-0.015,0.015l-0.015,0.016l-0.015,0.015l-0.016,0.015l-0.015,0.015l-0.016,0.015l-0.015,0.014l-0.016,0.015l-0.016,0.014l-0.016,0.013l-0.016,0.014l-0.016,0.013l-0.017,0.013l-0.016,0.013l-0.017,0.013l-0.016,0.012l-0.017,0.012l-0.017,0.012l-0.017,0.012l-0.017,0.011l-0.017,0.011l-0.017,0.011l-0.018,0.011l-0.017,0.01l-0.018,0.011l-0.017,0.01l-0.018,0.009l-0.018,0.01l-0.018,0.009l-0.018,0.009l-0.018,0.009l-0.019,0.009l-0.018,0.008l-0.018,0.008l-0.019,0.008l-0.019,0.008l-0.018,0.007l-0.019,0.007l-0.019,0.007l-0.019,0.007l-0.019,0.006l-0.019,0.007l-0.02,0.006l-0.019,0.005l-0.019,0.006l-0.02,0.005l-0.019,0.005l-0.02,0.005l-0.02,0.005l-0.02,0.004l-0.02,0.004l-0.02,0.004l-0.02,0.004l-0.02,0.004l-0.02,0.003l-0.021,0.003l-0.02,0.003l-0.021,0.002l-0.02,0.003l-0.021,0.002l-0.021,0.002l-0.02,0.001l-0.021,0.002l-0.025,0.001l-2.396,0l0,-0.955l2.302,0l0.014,0l0.013,0l0.013,0l0.013,-0.001l0.013,-0.001l0.013,0l0.013,-0.001l0.012,-0.001l0.013,-0.002l0.013,-0.001l0.012,-0.001l0.012,-0.002l0.013,-0.002l0.012,-0.002l0.012,-0.002l0.012,-0.002l0.012,-0.002l0.012,-0.003l0.012,-0.003l0.011,-0.002l0.012,-0.003l0.012,-0.003l0.011,-0.003l0.012,-0.004l0.011,-0.003l0.011,-0.004l0.011,-0.003l0.011,-0.004l0.012,-0.004l0.011,-0.004l0.01,-0.005l0.011,-0.004l0.011,-0.004l0.011,-0.005l0.01,-0.005l0.011,-0.005l0.011,-0.005l0.01,-0.005l0.01,-0.005l0.011,-0.006l0.01,-0.005l0.01,-0.006l0.01,-0.006l0.01,-0.006l0.01,-0.006l0.01,-0.006l0.01,-0.007l0.01,-0.006l0.01,-0.007l0.01,-0.007l0.009,-0.006l0.01,-0.008l0.009,-0.007l0.01,-0.007l0.009,-0.008l0.01,-0.007l0.009,-0.008l0.009,-0.008l0.01,-0.008l0.009,-0.008l0.009,-0.008l0.009,-0.009l0.009,-0.008l0.009,-0.009l0.009,-0.009l0.009,-0.009l0.008,-0.009l0.008,-0.008l0.008,-0.009l0.008,-0.009l0.008,-0.009l0.008,-0.009l0.007,-0.009l0.007,-0.009l0.007,-0.008l0.007,-0.009l0.007,-0.009l0.006,-0.009l0.007,-0.009l0.006,-0.009l0.006,-0.009l0.006,-0.009l0.006,-0.009l0.005,-0.009l0.005,-0.008l0.006,-0.009l0.005,-0.009l0.005,-0.009l0.005,-0.009l0.004,-0.009l0.005,-0.009l0.004,-0.009l0.004,-0.009l0.004,-0.009l0.004,-0.008l0.004,-0.009l0.004,-0.009l0.003,-0.009l0.004,-0.009l0.003,-0.009l0.003,-0.009l0.003,-0.009l0.003,-0.009l0.003,-0.01l0.002,-0.009l0.003,-0.009l0.002,-0.009l0.003,-0.009l0.002,-0.01l0.002,-0.009l0.002,-0.009l0.002,-0.01l0.002,-0.009l0.001,-0.01l0.002,-0.01l0.001,-0.009l0.002,-0.01l0.001,-0.01l0.001,-0.01l0.001,-0.01l0.001,-0.01l0.001,-0.011l0,-0.01l0.001,-0.01l0,-0.011l0,-0.011l0.001,-0.01l0,-0.011l0,-0.011l-0.001,-0.011l0,-0.011l0,-0.01l-0.001,-0.011l0,-0.01l-0.001,-0.01l-0.001,-0.01l-0.001,-0.011l-0.001,-0.01l-0.001,-0.009l-0.002,-0.01l-0.001,-0.01l-0.002,-0.01l-0.001,-0.009l-0.002,-0.01l-0.002,-0.009l-0.002,-0.01l-0.002,-0.009l-0.002,-0.009l-0.003,-0.01l-0.002,-0.009l-0.003,-0.009l-0.002,-0.009l-0.003,-0.009l-0.003,-0.009l-0.003,-0.009l-0.003,-0.009l-0.003,-0.009l-0.004,-0.009l-0.003,-0.009l-0.004,-0.009l-0.004,-0.009l-0.004,-0.009l-0.004,-0.009l-0.004,-0.009l-0.004,-0.009l-0.005,-0.009l-0.004,-0.009l-0.005,-0.009l-0.005,-0.008l-0.005,-0.009l-0.006,-0.009l-0.005,-0.009l-0.005,-0.009l-0.006,-0.009l-0.006,-0.009l-0.006,-0.009l-0.006,-0.009l-0.007,-0.009l-0.006,-0.008l-0.007,-0.009l-0.007,-0.009l-0.007,-0.009l-0.007,-0.009l-0.007,-0.009l-0.008,-0.009l-0.008,-0.009l-0.008,-0.008l-0.008,-0.009l-0.008,-0.009l-0.008,-0.009l-0.009,-0.009l-0.009,-0.008l-0.009,-0.009l-0.009,-0.009l-0.009,-0.008l-0.009,-0.009l-0.009,-0.008l-0.01,-0.008l-0.009,-0.008l-0.009,-0.008l-0.01,-0.007l-0.009,-0.008l-0.01,-0.007l-0.009,-0.007l-0.01,-0.007l-0.009,-0.007l-0.01,-0.007l-0.01,-0.007l-0.01,-0.006l-0.01,-0.006l-0.01,-0.007l-0.01,-0.006l-0.01,-0.006l-0.01,-0.006l-0.01,-0.005l-0.01,-0.006l-0.011,-0.005l-0.01,-0.006l-0.01,-0.005l-0.011,-0.005l-0.011,-0.005l-0.01,-0.005l-0.011,-0.004l-0.011,-0.005l-0.011,-0.004l-0.01,-0.004l-0.011,-0.004l-0.012,-0.004l-0.011,-0.004l-0.011,-0.004l-0.011,-0.004l-0.011,-0.003l-0.012,-0.003l-0.011,-0.003l-0.012,-0.003l-0.012,-0.003l-0.011,-0.003l-0.012,-0.003l-0.012,-0.002l-0.012,-0.003l-0.012,-0.002l-0.012,-0.002l-0.012,-0.002l-0.013,-0.002l-0.012,-0.001l-0.012,-0.002l-0.013,-0.001l-0.013,-0.001l-0.012,-0.001l-0.013,-0.001l-0.013,-0.001l-0.013,-0.001l-0.013,0l-0.013,-0.001l-0.013,0l-0.014,0l-0.849,0l0,-0.035l-0.013,-0.002l-0.02,-0.004l-0.02,-0.004l-0.02,-0.004l-0.02,-0.004l-0.02,-0.005l-0.02,-0.005l-0.019,-0.005l-0.02,-0.005l-0.019,-0.006l-0.02,-0.006l-0.019,-0.006l-0.019,-0.006l-0.019,-0.006l-0.019,-0.007l-0.019,-0.007l-0.019,-0.007l-0.019,-0.008l-0.018,-0.007l-0.019,-0.008l-0.018,-0.008l-0.019,-0.009l-0.018,-0.008l-0.018,-0.009l-0.018,-0.009l-0.018,-0.009l-0.018,-0.01l-0.018,-0.01l-0.017,-0.01l-0.018,-0.01l-0.017,-0.01l-0.018,-0.011l-0.017,-0.011l-0.017,-0.011l-0.017,-0.012l-0.017,-0.011l-0.017,-0.012l-0.017,-0.012l-0.017,-0.013l-0.016,-0.012l-0.017,-0.013l-0.016,-0.013l-0.016,-0.013l-0.016,-0.014l-0.016,-0.014l-0.016,-0.014l-0.016,-0.014l-0.016,-0.014l-0.015,-0.015l-0.016,-0.015l-0.015,-0.015l-0.015,-0.015l-0.015,-0.016l-0.015,-0.016l-0.015,-0.015l-0.015,-0.017l-0.014,-0.016l-0.014,-0.016l-0.014,-0.017l-0.014,-0.016l-0.014,-0.017l-0.013,-0.017l-0.013,-0.017l-0.013,-0.017l-0.013,-0.017l-0.013,-0.018l-0.012,-0.017l-0.012,-0.018l-0.012,-0.018l-0.012,-0.018l-0.012,-0.018l-0.011,-0.019l-0.011,-0.018l-0.011,-0.019l-0.011,-0.019l-0.01,-0.019l-0.01,-0.019l-0.011,-0.019l-0.009,-0.019l-0.01,-0.02l-0.009,-0.019l-0.009,-0.02l-0.009,-0.02l-0.009,-0.02l-0.008,-0.02l-0.009,-0.021l-0.008,-0.02l-0.007,-0.021l-0.008,-0.021l-0.007,-0.02l-0.007,-0.021l-0.007,-0.022l-0.006,-0.021l-0.007,-0.021l-0.006,-0.022l-0.005,-0.021l-0.006,-0.022l-0.005,-0.022l-0.005,-0.022l-0.005,-0.022l-0.004,-0.022l-0.004,-0.022l-0.004,-0.022l-0.004,-0.023l-0.003,-0.022l-0.004,-0.023l-0.003,-0.022l-0.002,-0.023l-0.003,-0.023l-0.002,-0.023l-0.002,-0.023l-0.001,-0.022l-0.002,-0.024l-0.001,-0.023l-0.001,-0.023l0,-0.023l-0.001,-0.023l0,-0.023l0,-0.024l0.001,-0.023l0,-0.023l0.001,-0.023l0.001,-0.023l0.002,-0.023l0.001,-0.023l0.002,-0.023l0.002,-0.023l0.003,-0.023l0.002,-0.023l0.003,-0.022l0.004,-0.023l0.003,-0.022l0.004,-0.023l0.004,-0.022l0.004,-0.022l0.004,-0.022l0.005,-0.022l0.005,-0.022l0.005,-0.022l0.006,-0.022l0.005,-0.021l0.006,-0.022l0.007,-0.021l0.006,-0.021l0.007,-0.022l0.007,-0.021l0.007,-0.02l0.008,-0.021l0.007,-0.021l0.008,-0.02l0.009,-0.021l0.008,-0.02l0.009,-0.02l0.009,-0.02l0.009,-0.02l0.009,-0.019l0.01,-0.02l0.009,-0.019l0.011,-0.019l0.01,-0.019l0.01,-0.019l0.011,-0.019l0.011,-0.019l0.011,-0.018l0.011,-0.019l0.012,-0.018l0.012,-0.018l0.012,-0.018l0.012,-0.018l0.012,-0.017l0.013,-0.018l0.013,-0.017l0.013,-0.017l0.013,-0.017l0.013,-0.017l0.014,-0.017l0.014,-0.016l0.014,-0.017l0.014,-0.016l0.014,-0.016l0.015,-0.016l0.015,-0.016l0.015,-0.016l0.015,-0.016l0.015,-0.015l0.015,-0.015l0.016,-0.015l0.015,-0.015l0.016,-0.014l0.016,-0.014l0.016,-0.014l0.016,-0.014l0.016,-0.014l0.016,-0.013l0.016,-0.013l0.017,-0.013l0.016,-0.012l0.017,-0.013l0.017,-0.012l0.017,-0.012l0.017,-0.011l0.017,-0.012l0.017,-0.011l0.017,-0.011l0.018,-0.011l0.017,-0.01l0.018,-0.01l0.017,-0.01l0.018,-0.01l0.018,-0.01l0.018,-0.009l0.018,-0.009l0.018,-0.009l0.018,-0.008l0.019,-0.009l0.018,-0.008l0.019,-0.008l0.018,-0.007l0.019,-0.008l0.019,-0.007l0.019,-0.007l0.019,-0.007l0.019,-0.006l0.019,-0.006l0.019,-0.006l0.02,-0.006l0.019,-0.006l0.02,-0.005l0.019,-0.005l0.02,-0.005l0.02,-0.005l0.02,-0.004l0.019,-0.004l0.021,-0.004l0.02,-0.004l0.02,-0.003l0.02,-0.004l0.02,-0.003l0.021,-0.002l0.02,-0.003l0.021,-0.002l0.021,-0.002l0.02,-0.002l0.021,-0.002l0.021,-0.002l0.025,-0.001l1.669,0l0,0.955Z" style="fill:#0089ec;"/></g><path d="M126,136l6,0l0,-22l26,23l0,-36l-6,0l0,23l-10,-10c0,0 -8.158,-2.178 -16,-11c-0.269,-0.302 0,33 0,33Z" style="fill:#0089ec;"/><g transform="matrix(7.66202,0,0,5.74652,-3548.7,-2825.37)"><text x="465.998px" y="510.623px" style="font-family:Asgalt;font-size:11.746px;fill:#00cd3a;">P<tspan x="469.851px 473.693px " y="510.623px 510.623px ">EA</tspan></text><path d="M467.451,504.538l0.02,0l0.021,0l0.02,0.001l0.02,0l0.02,0.001l0.02,0.002l0.02,0.001l0.02,0.002l0.02,0.002l0.02,0.002l0.02,0.002l0.019,0.003l0.02,0.003l0.019,0.003l0.02,0.003l0.019,0.004l0.019,0.004l0.02,0.004l0.019,0.004l0.019,0.005l0.019,0.005l0.019,0.005l0.019,0.005l0.018,0.005l0.019,0.006l0.019,0.006l0.018,0.006l0.019,0.007l0.018,0.006l0.018,0.007l0.019,0.007l0.018,0.008l0.018,0.008l0.018,0.007l0.018,0.009l0.018,0.008l0.017,0.009l0.018,0.008l0.017,0.01l0.018,0.009l0.017,0.009l0.018,0.01l0.017,0.01l0.017,0.011l0.017,0.01l0.017,0.011l0.017,0.011l0.016,0.011l0.017,0.012l0.017,0.011l0.016,0.012l0.017,0.013l0.016,0.012l0.016,0.013l0.016,0.013l0.016,0.013l0.016,0.013l0.016,0.014l0.015,0.014l0.016,0.014l0.015,0.014l0.016,0.015l0.015,0.014l0.015,0.015l0.015,0.016l0.015,0.015l0.015,0.015l0.014,0.016l0.014,0.016l0.014,0.016l0.014,0.016l0.014,0.016l0.013,0.016l0.014,0.017l0.013,0.017l0.013,0.016l0.012,0.017l0.013,0.018l0.012,0.017l0.012,0.017l0.012,0.018l0.011,0.018l0.012,0.018l0.011,0.018l0.011,0.018l0.01,0.018l0.011,0.019l0.01,0.019l0.01,0.018l0.01,0.019l0.01,0.02l0.009,0.019l0.009,0.019l0.009,0.02l0.009,0.02l0.008,0.02l0.008,0.02l0.008,0.02l0.008,0.02l0.007,0.021l0.007,0.021l0.007,0.02l0.007,0.021l0.006,0.021l0.007,0.021l0.005,0.022l0.006,0.021l0.005,0.022l0.006,0.021l0.004,0.022l0.005,0.022l0.004,0.022l0.004,0.022l0.004,0.022l0.004,0.022l0.003,0.022l0.003,0.023l0.003,0.022l0.002,0.023l0.002,0.022l0.002,0.023l0.002,0.023l0.001,0.023l0.002,0.022l0,0.023l0.001,0.023l0,0.023l0.001,0.023l-0.001,0.024l0,0.023l-0.001,0.023l0,0.022l-0.002,0.023l-0.001,0.023l-0.002,0.023l-0.002,0.023l-0.002,0.022l-0.002,0.023l-0.003,0.022l-0.003,0.023l-0.003,0.022l-0.004,0.022l-0.004,0.022l-0.004,0.022l-0.004,0.022l-0.005,0.022l-0.004,0.022l-0.006,0.021l-0.005,0.022l-0.006,0.021l-0.005,0.021l-0.007,0.022l-0.006,0.021l-0.007,0.021l-0.007,0.02l-0.007,0.021l-0.007,0.02l-0.008,0.021l-0.008,0.02l-0.008,0.02l-0.008,0.02l-0.009,0.02l-0.009,0.019l-0.009,0.02l-0.009,0.019l-0.01,0.019l-0.01,0.019l-0.01,0.019l-0.01,0.019l-0.011,0.019l-0.01,0.018l-0.011,0.018l-0.011,0.018l-0.012,0.018l-0.011,0.018l-0.012,0.018l-0.012,0.017l-0.012,0.017l-0.013,0.017l-0.012,0.017l-0.013,0.017l-0.013,0.017l-0.014,0.017l-0.013,0.016l-0.014,0.016l-0.014,0.016l-0.014,0.016l-0.014,0.016l-0.014,0.015l-0.015,0.016l-0.015,0.015l-0.015,0.016l-0.015,0.015l-0.015,0.014l-0.016,0.015l-0.015,0.014l-0.016,0.014l-0.015,0.014l-0.016,0.014l-0.016,0.013l-0.016,0.013l-0.016,0.013l-0.016,0.013l-0.016,0.012l-0.017,0.012l-0.016,0.012l-0.017,0.012l-0.017,0.012l-0.016,0.011l-0.017,0.011l-0.017,0.011l-0.017,0.01l-0.017,0.011l-0.017,0.01l-0.018,0.009l-0.017,0.01l-0.018,0.009l-0.017,0.009l-0.018,0.009l-0.017,0.009l-0.018,0.008l-0.018,0.008l-0.018,0.008l-0.018,0.008l-0.018,0.007l-0.019,0.008l-0.018,0.007l-0.018,0.006l-0.019,0.007l-0.018,0.006l-0.019,0.006l-0.019,0.006l-0.018,0.005l-0.019,0.005l-0.019,0.005l-0.019,0.005l-0.019,0.005l-0.019,0.004l-0.02,0.004l-0.019,0.004l-0.019,0.004l-0.02,0.003l-0.019,0.003l-0.02,0.003l-0.019,0.003l-0.02,0.002l-0.02,0.002l-0.02,0.002l-0.02,0.002l-0.02,0.001l-0.02,0.002l-0.02,0.001l-0.02,0l-0.02,0.001l-0.021,0l-0.02,0l-0.772,0l0,-0.954l0.772,0l0.012,0l0.012,0l0.011,0l0.012,-0.001l0.011,0l0.012,-0.001l0.011,-0.001l0.012,-0.001l0.011,-0.001l0.011,-0.001l0.011,-0.002l0.011,-0.001l0.011,-0.002l0.011,-0.001l0.011,-0.002l0.011,-0.002l0.01,-0.003l0.011,-0.002l0.01,-0.002l0.011,-0.003l0.01,-0.002l0.011,-0.003l0.01,-0.003l0.01,-0.003l0.01,-0.003l0.01,-0.003l0.01,-0.004l0.01,-0.003l0.01,-0.004l0.01,-0.004l0.01,-0.004l0.009,-0.004l0.01,-0.004l0.01,-0.004l0.009,-0.004l0.01,-0.005l0.009,-0.005l0.009,-0.004l0.01,-0.005l0.009,-0.005l0.009,-0.005l0.009,-0.005l0.009,-0.006l0.009,-0.005l0.009,-0.006l0.009,-0.006l0.009,-0.005l0.009,-0.006l0.009,-0.007l0.009,-0.006l0.008,-0.006l0.009,-0.007l0.009,-0.006l0.008,-0.007l0.009,-0.007l0.008,-0.007l0.009,-0.007l0.008,-0.007l0.008,-0.008l0.009,-0.007l0.008,-0.008l0.008,-0.008l0.009,-0.008l0.008,-0.008l0.008,-0.008l0.008,-0.008l0.007,-0.008l0.008,-0.008l0.007,-0.008l0.007,-0.008l0.007,-0.009l0.007,-0.008l0.007,-0.008l0.006,-0.008l0.007,-0.008l0.006,-0.008l0.006,-0.008l0.006,-0.008l0.006,-0.009l0.005,-0.008l0.006,-0.008l0.005,-0.008l0.005,-0.008l0.005,-0.008l0.005,-0.008l0.004,-0.008l0.005,-0.008l0.004,-0.008l0.005,-0.008l0.004,-0.008l0.004,-0.008l0.004,-0.008l0.004,-0.008l0.003,-0.008l0.004,-0.008l0.003,-0.009l0.003,-0.008l0.004,-0.008l0.003,-0.008l0.003,-0.008l0.002,-0.008l0.003,-0.008l0.003,-0.008l0.002,-0.008l0.002,-0.008l0.003,-0.008l0.002,-0.009l0.002,-0.008l0.002,-0.008l0.002,-0.009l0.002,-0.008l0.001,-0.008l0.002,-0.009l0.001,-0.008l0.002,-0.009l0.001,-0.009l0.001,-0.008l0.001,-0.009l0.001,-0.009l0.001,-0.009l0.001,-0.009l0,-0.009l0.001,-0.01l0,-0.009l0.001,-0.009l0,-0.01l0,-0.009l0,-0.01l0,-0.01l0,-0.009l0,-0.01l-0.001,-0.009l0,-0.009l-0.001,-0.01l0,-0.009l-0.001,-0.009l-0.001,-0.009l-0.001,-0.009l-0.001,-0.008l-0.001,-0.009l-0.001,-0.009l-0.002,-0.008l-0.001,-0.009l-0.002,-0.008l-0.001,-0.008l-0.002,-0.009l-0.002,-0.008l-0.002,-0.008l-0.002,-0.008l-0.002,-0.009l-0.002,-0.008l-0.003,-0.008l-0.002,-0.008l-0.003,-0.008l-0.002,-0.008l-0.003,-0.008l-0.003,-0.008l-0.003,-0.008l-0.003,-0.008l-0.004,-0.007l-0.003,-0.008l-0.003,-0.008l-0.004,-0.008l-0.004,-0.008l-0.004,-0.008l-0.004,-0.008l-0.004,-0.008l-0.004,-0.008l-0.004,-0.008l-0.005,-0.007l-0.005,-0.008l-0.004,-0.008l-0.005,-0.008l-0.005,-0.008l-0.006,-0.008l-0.005,-0.008l-0.006,-0.008l-0.005,-0.008l-0.006,-0.008l-0.006,-0.008l-0.006,-0.008l-0.007,-0.008l-0.006,-0.008l-0.007,-0.008l-0.007,-0.008l-0.007,-0.008l-0.007,-0.008l-0.007,-0.008l-0.007,-0.008l-0.008,-0.008l-0.008,-0.007l-0.008,-0.008l-0.008,-0.008l-0.008,-0.008l-0.008,-0.008l-0.009,-0.007l-0.008,-0.008l-0.008,-0.007l-0.009,-0.007l-0.008,-0.007l-0.009,-0.007l-0.008,-0.007l-0.009,-0.006l-0.008,-0.007l-0.009,-0.006l-0.009,-0.007l-0.009,-0.006l-0.008,-0.006l-0.009,-0.006l-0.009,-0.005l-0.009,-0.006l-0.009,-0.006l-0.009,-0.005l-0.009,-0.005l-0.01,-0.005l-0.009,-0.005l-0.009,-0.005l-0.009,-0.005l-0.01,-0.005l-0.009,-0.004l-0.01,-0.005l-0.009,-0.004l-0.01,-0.004l-0.009,-0.004l-0.01,-0.004l-0.01,-0.004l-0.01,-0.004l-0.01,-0.003l-0.01,-0.004l-0.01,-0.003l-0.01,-0.003l-0.01,-0.004l-0.01,-0.003l-0.011,-0.002l-0.01,-0.003l-0.01,-0.003l-0.011,-0.002l-0.011,-0.003l-0.01,-0.002l-0.011,-0.002l-0.011,-0.002l-0.011,-0.002l-0.01,-0.002l-0.011,-0.001l-0.011,-0.002l-0.012,-0.001l-0.011,-0.001l-0.011,-0.001l-0.011,-0.001l-0.012,-0.001l-0.011,-0.001l-0.012,-0.001l-0.012,0l-0.011,0l-0.012,-0.001l-0.012,0l-0.868,0l0,5.428l-0.807,0l0,-6.381l1.675,0Z" style="fill:#00cd3a;"/><path d="M472.968,504.538l0,0.953l-2.532,0l0,1.755l1.805,0l0,0.954l-1.805,0l0,1.765l2.532,0l0,0.954l-3.339,0l0,-6.381l3.339,0Z" style="fill:#00cd3a;"/><path d="M477.607,510.791l-0.063,0.128l-0.751,0l-1.294,-4.11l-1.284,4.11l-0.751,0l-0.063,-0.127l1.988,-6.377l0.218,0l2,6.376ZM475.491,505.626l0.016,0l-0.008,-0.026l-0.008,0.026Z" style="fill:#00cd3a;"/></g><path d="M125.174,91.063c0,0 12.318,-7.013 19.701,-17.088c8.166,-11.145 13.216,-17.382 28.76,-35.443c6.538,-7.597 8.967,-11.554 12.966,-3.579c5.977,11.917 21.516,24.649 27.597,28.852c5.826,4.026 20.481,-11.298 24.337,-2.714c6.431,14.316 20.368,30.653 34.808,37.223c0.696,0.316 -19.267,2.867 -37.678,-28.479c-3.823,-6.509 -14.316,2.974 -20.473,-0.006c-14.624,-7.08 -27.868,-23.932 -34.609,-25.833c-7.423,-2.094 -14.848,17.593 -29.066,30.537c-12.536,11.414 -18.803,14.372 -22.978,16.016c-1.277,0.503 -1.725,1.791 -3.365,0.514Z" style="fill:#0089ec;"/><path d="M13.956,69.462c0,0 30.944,-12.474 36.054,-16.438c12.13,-9.41 24.632,-22.966 35.335,-35.916c5.861,-7.091 11.036,4.064 13.29,10.853c2.48,7.472 8.389,27.573 14.807,44.869c0.814,2.195 3.579,6.204 6.223,12.72c1.883,4.642 14.984,21.015 23.608,26.587c1.175,0.759 -22.174,-5.458 -39.312,-49.481c-5.34,-13.717 -11.511,-26.794 -15.542,-28.068c-7.562,-2.39 -18.268,10.964 -33.94,21.297c-13.263,8.744 -31.085,11.534 -40.523,13.577Z" style="fill:#00cd26;"/><path d="M125,89c0.212,0.212 1.751,-0.634 5.443,-3.575c13.726,-10.935 13.357,-14.778 12.758,-14.06c-2.945,3.535 -12.29,11.385 -20.41,13.479c-0.954,0.246 1.584,3.531 2.209,4.156Z" style="fill:#00cd26;"/><path d="M116,90l0,21l6,0l0,-13c0,0 -1.734,0.026 -6,-8Z" style="fill:#00cd26;"/><path d="M116,71c0,0 5.905,-0.04 5.918,0.6c0.11,5.346 -0.255,10.784 0.082,12.4c0,0 -5.616,-6.866 -6,-13Z" style="fill:#0089ec;"/></svg>