<?xml version="1.0" standalone="no"?><!DOCTYPE svg PUBLIC "-//W3C//DTD SVG 1.1//EN" "http://www.w3.org/Graphics/SVG/1.1/DTD/svg11.dtd"><svg width="100%" height="100%" viewBox="0 0 235 113" version="1.1" xmlns="http://www.w3.org/2000/svg" xmlns:xlink="http://www.w3.org/1999/xlink" xml:space="preserve" style="fill-rule:evenodd;clip-rule:evenodd;stroke-linejoin:round;stroke-miterlimit:1.41421;"><g transform="matrix(5.74652,0,0,4.30989,-2568.32,-2097.25)"><text x="465.998px" y="510.623px" style="font-family:Asgalt;font-size:11.746px;fill:#0089ec;">E</text><path d="M469.115,504.537l0,0.955l-2.532,0l0,1.753l1.805,0l0,0.955l-1.805,0l0,1.764l2.532,0l0,0.955l-3.339,0l0,-6.382l3.339,0Z" style="fill:#0089ec;"/></g><g transform="matrix(5.74652,0,0,4.30989,-2512.07,-2097.25)"><text x="465.998px" y="510.623px" style="font-family:Asgalt;font-size:11.746px;fill:#0089ec;">U<tspan x="470.251px " y="510.623px ">S</tspan></text><path d="M469.115,504.537l0,4.634l0,0.022l-0.001,0.024l0,0.023l-0.001,0.023l-0.001,0.023l-0.002,0.023l-0.001,0.023l-0.002,0.022l-0.002,0.023l-0.003,0.023l-0.003,0.022l-0.003,0.023l-0.003,0.022l-0.003,0.023l-0.004,0.022l-0.004,0.022l-0.005,0.022l-0.004,0.022l-0.005,0.022l-0.005,0.022l-0.005,0.021l-0.006,0.022l-0.006,0.021l-0.006,0.021l-0.006,0.021l-0.007,0.021l-0.007,0.021l-0.007,0.021l-0.008,0.021l-0.007,0.02l-0.008,0.021l-0.008,0.02l-0.009,0.02l-0.008,0.02l-0.009,0.019l-0.009,0.02l-0.01,0.019l-0.009,0.02l-0.01,0.019l-0.01,0.019l-0.01,0.018l-0.011,0.019l-0.011,0.019l-0.011,0.018l-0.011,0.018l-0.011,0.018l-0.012,0.018l-0.012,0.018l-0.012,0.017l-0.012,0.017l-0.012,0.018l-0.013,0.017l-0.013,0.017l-0.013,0.016l-0.013,0.017l-0.014,0.016l-0.013,0.017l-0.014,0.016l-0.014,0.016l-0.015,0.015l-0.014,0.016l-0.015,0.016l-0.015,0.015l-0.015,0.015l-0.015,0.015l-0.015,0.015l-0.015,0.015l-0.016,0.014l-0.016,0.014l-0.015,0.014l-0.016,0.013l-0.016,0.014l-0.016,0.013l-0.016,0.013l-0.016,0.013l-0.017,0.012l-0.016,0.012l-0.017,0.012l-0.016,0.012l-0.017,0.012l-0.017,0.011l-0.017,0.011l-0.017,0.011l-0.017,0.01l-0.017,0.01l-0.017,0.011l-0.018,0.009l-0.017,0.01l-0.018,0.009l-0.017,0.009l-0.018,0.009l-0.018,0.009l-0.018,0.008l-0.018,0.008l-0.018,0.008l-0.018,0.008l-0.018,0.007l-0.018,0.008l-0.019,0.006l-0.018,0.007l-0.019,0.007l-0.018,0.006l-0.019,0.006l-0.019,0.006l-0.019,0.005l-0.019,0.005l-0.019,0.005l-0.019,0.005l-0.019,0.005l-0.019,0.004l-0.02,0.004l-0.019,0.004l-0.02,0.003l-0.019,0.004l-0.02,0.003l-0.02,0.003l-0.019,0.002l-0.02,0.003l-0.02,0.002l-0.02,0.002l-0.02,0.002l-0.02,0.001l-0.02,0.001l-0.021,0.001l-0.02,0.001l-0.02,0.001l-0.021,0l-0.021,0l-0.02,0l-0.021,0l-0.02,-0.001l-0.02,-0.001l-0.021,-0.001l-0.02,-0.001l-0.02,-0.001l-0.02,-0.002l-0.02,-0.002l-0.02,-0.002l-0.02,-0.003l-0.02,-0.002l-0.019,-0.003l-0.02,-0.003l-0.019,-0.004l-0.02,-0.003l-0.019,-0.004l-0.02,-0.004l-0.019,-0.004l-0.019,-0.005l-0.019,-0.005l-0.019,-0.005l-0.019,-0.005l-0.019,-0.005l-0.019,-0.006l-0.019,-0.006l-0.018,-0.006l-0.019,-0.007l-0.018,-0.007l-0.019,-0.006l-0.018,-0.008l-0.018,-0.007l-0.018,-0.008l-0.018,-0.008l-0.018,-0.008l-0.018,-0.008l-0.018,-0.009l-0.018,-0.009l-0.018,-0.009l-0.017,-0.009l-0.018,-0.01l-0.017,-0.009l-0.017,-0.011l-0.017,-0.01l-0.017,-0.01l-0.017,-0.011l-0.017,-0.011l-0.017,-0.011l-0.017,-0.012l-0.016,-0.012l-0.017,-0.012l-0.016,-0.012l-0.017,-0.012l-0.016,-0.013l-0.016,-0.013l-0.016,-0.013l-0.016,-0.014l-0.016,-0.013l-0.016,-0.014l-0.015,-0.014l-0.016,-0.014l-0.015,-0.015l-0.015,-0.015l-0.015,-0.015l-0.016,-0.015l-0.014,-0.015l-0.015,-0.016l-0.014,-0.016l-0.015,-0.015l-0.014,-0.016l-0.014,-0.016l-0.013,-0.017l-0.014,-0.016l-0.013,-0.017l-0.013,-0.016l-0.013,-0.017l-0.013,-0.017l-0.012,-0.018l-0.012,-0.017l-0.012,-0.017l-0.012,-0.018l-0.012,-0.018l-0.011,-0.018l-0.011,-0.018l-0.011,-0.018l-0.011,-0.019l-0.011,-0.019l-0.01,-0.018l-0.01,-0.019l-0.01,-0.019l-0.009,-0.02l-0.01,-0.019l-0.009,-0.02l-0.009,-0.019l-0.008,-0.02l-0.009,-0.02l-0.008,-0.02l-0.008,-0.021l-0.007,-0.02l-0.008,-0.021l-0.007,-0.021l-0.007,-0.021l-0.007,-0.021l-0.006,-0.021l-0.006,-0.021l-0.006,-0.021l-0.006,-0.022l-0.005,-0.021l-0.005,-0.022l-0.005,-0.022l-0.005,-0.022l-0.004,-0.022l-0.004,-0.022l-0.004,-0.022l-0.003,-0.023l-0.003,-0.022l-0.003,-0.023l-0.003,-0.022l-0.003,-0.023l-0.002,-0.023l-0.002,-0.022l-0.001,-0.023l-0.002,-0.023l-0.001,-0.023l-0.001,-0.023l-0.001,-0.023l0,-0.024l0,-0.022l0,-4.634l0.807,0l0,4.632l0,0.021l0.001,0.018l0.001,0.019l0.001,0.018l0.002,0.018l0.002,0.017l0.003,0.018l0.003,0.017l0.004,0.017l0.003,0.016l0.005,0.017l0.004,0.016l0.005,0.016l0.006,0.016l0.006,0.016l0.006,0.017l0.007,0.016l0.007,0.016l0.008,0.016l0.009,0.016l0.009,0.016l0.009,0.016l0.01,0.016l0.011,0.016l0.011,0.017l0.012,0.016l0.013,0.016l0.013,0.016l0.014,0.016l0.014,0.017l0.016,0.016l0.016,0.016l0.016,0.016l0.016,0.016l0.017,0.014l0.017,0.015l0.017,0.014l0.017,0.013l0.017,0.013l0.018,0.012l0.018,0.012l0.018,0.011l0.018,0.011l0.018,0.01l0.019,0.01l0.019,0.01l0.019,0.009l0.02,0.008l0.019,0.008l0.02,0.007l0.02,0.007l0.021,0.007l0.02,0.006l0.021,0.005l0.022,0.005l0.021,0.004l0.022,0.004l0.022,0.004l0.023,0.003l0.022,0.002l0.023,0.002l0.024,0.001l0.023,0.001l0.024,0l0.013,0l0.011,0l0.012,0l0.012,-0.001l0.012,0l0.011,-0.001l0.012,-0.001l0.012,-0.001l0.011,-0.001l0.011,-0.001l0.012,-0.002l0.011,-0.001l0.011,-0.002l0.011,-0.002l0.011,-0.002l0.011,-0.002l0.011,-0.002l0.01,-0.002l0.011,-0.002l0.011,-0.003l0.01,-0.003l0.011,-0.002l0.01,-0.003l0.01,-0.003l0.011,-0.004l0.01,-0.003l0.01,-0.003l0.01,-0.004l0.01,-0.003l0.01,-0.004l0.01,-0.004l0.009,-0.004l0.01,-0.004l0.01,-0.004l0.009,-0.005l0.01,-0.004l0.009,-0.005l0.01,-0.005l0.009,-0.005l0.01,-0.005l0.009,-0.005l0.009,-0.005l0.009,-0.005l0.009,-0.006l0.009,-0.005l0.009,-0.006l0.009,-0.006l0.009,-0.006l0.009,-0.006l0.009,-0.006l0.008,-0.007l0.009,-0.006l0.009,-0.007l0.008,-0.006l0.009,-0.007l0.008,-0.007l0.009,-0.007l0.008,-0.008l0.008,-0.007l0.009,-0.007l0.008,-0.008l0.008,-0.008l0.008,-0.008l0.008,-0.008l0.008,-0.008l0.008,-0.008l0.008,-0.008l0.007,-0.008l0.008,-0.008l0.007,-0.008l0.007,-0.009l0.007,-0.008l0.007,-0.008l0.006,-0.008l0.006,-0.008l0.007,-0.008l0.006,-0.008l0.006,-0.009l0.005,-0.008l0.006,-0.008l0.005,-0.008l0.006,-0.008l0.005,-0.008l0.005,-0.008l0.004,-0.008l0.005,-0.008l0.005,-0.008l0.004,-0.008l0.004,-0.008l0.005,-0.008l0.004,-0.008l0.004,-0.008l0.003,-0.008l0.004,-0.008l0.003,-0.008l0.004,-0.008l0.003,-0.009l0.003,-0.008l0.003,-0.008l0.003,-0.008l0.003,-0.008l0.003,-0.008l0.002,-0.008l0.003,-0.008l0.002,-0.008l0.002,-0.008l0.003,-0.009l0.002,-0.008l0.002,-0.008l0.001,-0.008l0.002,-0.009l0.002,-0.008l0.001,-0.009l0.002,-0.008l0.001,-0.009l0.002,-0.009l0.001,-0.008l0.001,-0.009l0.001,-0.009l0.001,-0.009l0,-0.009l0.001,-0.009l0.001,-0.009l0,-0.01l0,-0.009l0.001,-0.009l0,-0.01l0,-0.011l0,-4.632l0.807,0Z" style="fill:#0089ec;"/><path d="M473.368,505.492l-1.575,0l-0.014,0l-0.013,0l-0.013,0.001l-0.013,0l-0.013,0.001l-0.013,0.001l-0.013,0l-0.013,0.002l-0.012,0.001l-0.013,0.001l-0.012,0.002l-0.012,0.001l-0.013,0.002l-0.012,0.002l-0.012,0.002l-0.012,0.002l-0.012,0.003l-0.012,0.002l-0.012,0.003l-0.011,0.003l-0.012,0.002l-0.012,0.003l-0.011,0.004l-0.012,0.003l-0.011,0.003l-0.011,0.004l-0.011,0.004l-0.012,0.003l-0.011,0.004l-0.011,0.005l-0.011,0.004l-0.01,0.004l-0.011,0.005l-0.011,0.004l-0.011,0.005l-0.01,0.005l-0.011,0.005l-0.01,0.005l-0.01,0.006l-0.011,0.005l-0.01,0.006l-0.01,0.005l-0.01,0.006l-0.01,0.006l-0.01,0.006l-0.01,0.006l-0.01,0.007l-0.01,0.006l-0.01,0.007l-0.01,0.007l-0.009,0.007l-0.01,0.007l-0.009,0.007l-0.01,0.007l-0.009,0.008l-0.01,0.007l-0.009,0.008l-0.009,0.008l-0.01,0.008l-0.009,0.008l-0.009,0.009l-0.009,0.008l-0.009,0.009l-0.009,0.008l-0.009,0.009l-0.009,0.009l-0.008,0.009l-0.008,0.009l-0.008,0.008l-0.008,0.009l-0.008,0.009l-0.008,0.009l-0.007,0.009l-0.007,0.009l-0.007,0.009l-0.007,0.009l-0.007,0.008l-0.006,0.009l-0.007,0.009l-0.006,0.009l-0.006,0.009l-0.006,0.009l-0.006,0.009l-0.005,0.009l-0.006,0.009l-0.005,0.009l-0.005,0.008l-0.005,0.009l-0.005,0.009l-0.004,0.009l-0.005,0.009l-0.004,0.009l-0.004,0.009l-0.004,0.009l-0.004,0.009l-0.004,0.009l-0.004,0.009l-0.003,0.009l-0.004,0.008l-0.003,0.009l-0.003,0.01l-0.003,0.009l-0.003,0.009l-0.003,0.009l-0.003,0.009l-0.002,0.009l-0.003,0.009l-0.002,0.01l-0.002,0.009l-0.002,0.009l-0.002,0.01l-0.002,0.009l-0.002,0.01l-0.001,0.009l-0.002,0.01l-0.001,0.01l-0.002,0.009l-0.001,0.01l-0.001,0.01l-0.001,0.01l-0.001,0.011l-0.001,0.01l0,0.01l-0.001,0.011l0,0.01l-0.001,0.011l0,0.011l0,0.011l0,0.021l0.001,0.021l0.001,0.021l0.002,0.021l0.002,0.02l0.003,0.02l0.003,0.019l0.003,0.02l0.004,0.019l0.004,0.018l0.005,0.019l0.005,0.019l0.006,0.018l0.006,0.018l0.007,0.018l0.007,0.019l0.008,0.018l0.008,0.018l0.009,0.018l0.01,0.018l0.01,0.018l0.01,0.018l0.012,0.018l0.012,0.018l0.012,0.018l0.014,0.018l0.014,0.018l0.014,0.019l0.016,0.018l0.016,0.018l0.017,0.018l0.017,0.018l0.018,0.017l0.018,0.017l0.019,0.017l0.019,0.016l0.018,0.015l0.019,0.015l0.02,0.014l0.019,0.014l0.02,0.013l0.02,0.012l0.02,0.012l0.02,0.012l0.021,0.01l0.021,0.011l0.021,0.01l0.022,0.009l0.021,0.009l0.022,0.008l0.023,0.007l0.022,0.008l0.023,0.006l0.023,0.006l0.024,0.006l0.023,0.004l0.024,0.005l0.025,0.004l0.025,0.003l0.025,0.002l0.025,0.002l0.026,0.002l0.026,0.001l0.013,0l0.014,0l0.632,0l0.025,0.002l0.021,0.001l0.02,0.002l0.021,0.002l0.021,0.002l0.02,0.002l0.021,0.003l0.02,0.003l0.021,0.003l0.02,0.003l0.02,0.003l0.02,0.004l0.02,0.004l0.02,0.004l0.02,0.005l0.02,0.004l0.02,0.005l0.019,0.005l0.02,0.005l0.019,0.006l0.02,0.006l0.019,0.006l0.019,0.006l0.019,0.006l0.019,0.007l0.019,0.007l0.019,0.007l0.018,0.008l0.019,0.007l0.019,0.008l0.018,0.008l0.018,0.009l0.019,0.008l0.018,0.009l0.018,0.009l0.018,0.009l0.018,0.01l0.018,0.01l0.017,0.01l0.018,0.01l0.017,0.011l0.018,0.01l0.017,0.011l0.017,0.011l0.017,0.012l0.017,0.011l0.017,0.012l0.017,0.012l0.016,0.013l0.017,0.012l0.016,0.013l0.017,0.013l0.016,0.014l0.016,0.013l0.016,0.014l0.016,0.014l0.016,0.014l0.015,0.014l0.016,0.015l0.015,0.015l0.016,0.015l0.015,0.015l0.015,0.016l0.015,0.016l0.015,0.016l0.014,0.016l0.015,0.016l0.014,0.016l0.014,0.017l0.014,0.016l0.013,0.017l0.014,0.017l0.013,0.017l0.013,0.017l0.013,0.018l0.013,0.017l0.012,0.018l0.012,0.017l0.012,0.018l0.012,0.018l0.011,0.019l0.012,0.018l0.011,0.018l0.011,0.019l0.011,0.019l0.01,0.019l0.01,0.019l0.01,0.019l0.01,0.019l0.01,0.02l0.009,0.02l0.009,0.019l0.009,0.02l0.009,0.02l0.008,0.021l0.009,0.02l0.007,0.02l0.008,0.021l0.008,0.021l0.007,0.021l0.007,0.021l0.007,0.021l0.006,0.021l0.006,0.021l0.006,0.022l0.006,0.021l0.006,0.022l0.005,0.022l0.005,0.022l0.005,0.022l0.004,0.022l0.004,0.022l0.004,0.022l0.004,0.023l0.003,0.022l0.004,0.023l0.002,0.022l0.003,0.023l0.003,0.023l0.002,0.023l0.002,0.023l0.001,0.023l0.002,0.023l0.001,0.023l0.001,0.023l0,0.023l0.001,0.023l0,0.024l0,0.023l-0.001,0.023l0,0.023l-0.001,0.024l-0.001,0.023l-0.002,0.023l-0.001,0.023l-0.002,0.023l-0.002,0.022l-0.003,0.023l-0.003,0.023l-0.002,0.022l-0.004,0.023l-0.003,0.023l-0.004,0.022l-0.004,0.022l-0.004,0.022l-0.004,0.022l-0.005,0.023l-0.005,0.021l-0.005,0.022l-0.006,0.022l-0.006,0.022l-0.006,0.021l-0.006,0.021l-0.006,0.022l-0.007,0.021l-0.007,0.021l-0.007,0.021l-0.008,0.02l-0.008,0.021l-0.007,0.02l-0.009,0.021l-0.008,0.02l-0.009,0.02l-0.009,0.02l-0.009,0.02l-0.009,0.019l-0.01,0.02l-0.01,0.019l-0.01,0.02l-0.01,0.019l-0.01,0.019l-0.011,0.018l-0.011,0.019l-0.011,0.018l-0.012,0.019l-0.011,0.018l-0.012,0.018l-0.012,0.018l-0.012,0.018l-0.012,0.017l-0.013,0.018l-0.013,0.017l-0.013,0.017l-0.013,0.017l-0.014,0.017l-0.013,0.017l-0.014,0.017l-0.014,0.016l-0.014,0.016l-0.015,0.017l-0.014,0.016l-0.015,0.016l-0.015,0.015l-0.015,0.016l-0.015,0.015l-0.016,0.015l-0.015,0.015l-0.016,0.015l-0.015,0.014l-0.016,0.015l-0.016,0.014l-0.016,0.013l-0.016,0.014l-0.016,0.013l-0.017,0.013l-0.016,0.013l-0.017,0.013l-0.016,0.012l-0.017,0.012l-0.017,0.012l-0.017,0.012l-0.017,0.011l-0.017,0.011l-0.017,0.011l-0.018,0.011l-0.017,0.01l-0.018,0.011l-0.017,0.01l-0.018,0.009l-0.018,0.01l-0.018,0.009l-0.018,0.009l-0.018,0.009l-0.019,0.009l-0.018,0.008l-0.018,0.008l-0.019,0.008l-0.019,0.008l-0.018,0.007l-0.019,0.007l-0.019,0.007l-0.019,0.007l-0.019,0.006l-0.019,0.007l-0.019,0.006l-0.02,0.005l-0.019,0.006l-0.02,0.005l-0.019,0.005l-0.02,0.005l-0.02,0.005l-0.02,0.004l-0.02,0.004l-0.02,0.004l-0.02,0.004l-0.02,0.004l-0.02,0.003l-0.021,0.003l-0.02,0.003l-0.021,0.002l-0.02,0.003l-0.021,0.002l-0.021,0.002l-0.02,0.001l-0.021,0.002l-0.025,0.001l-2.396,0l0,-0.955l2.302,0l0.014,0l0.013,0l0.013,0l0.013,-0.001l0.013,-0.001l0.013,0l0.013,-0.001l0.012,-0.001l0.013,-0.002l0.013,-0.001l0.012,-0.001l0.012,-0.002l0.013,-0.002l0.012,-0.002l0.012,-0.002l0.012,-0.002l0.012,-0.002l0.012,-0.003l0.012,-0.003l0.011,-0.002l0.012,-0.003l0.012,-0.003l0.011,-0.003l0.012,-0.004l0.011,-0.003l0.011,-0.004l0.011,-0.003l0.012,-0.004l0.011,-0.004l0.011,-0.004l0.01,-0.005l0.011,-0.004l0.011,-0.004l0.011,-0.005l0.01,-0.005l0.011,-0.005l0.011,-0.005l0.01,-0.005l0.01,-0.005l0.011,-0.006l0.01,-0.005l0.01,-0.006l0.01,-0.006l0.01,-0.006l0.01,-0.006l0.01,-0.006l0.01,-0.007l0.01,-0.006l0.01,-0.007l0.01,-0.007l0.009,-0.006l0.01,-0.008l0.009,-0.007l0.01,-0.007l0.009,-0.008l0.01,-0.007l0.009,-0.008l0.009,-0.008l0.01,-0.008l0.009,-0.008l0.009,-0.008l0.009,-0.009l0.009,-0.008l0.009,-0.009l0.009,-0.009l0.009,-0.009l0.008,-0.009l0.008,-0.008l0.008,-0.009l0.008,-0.009l0.008,-0.009l0.008,-0.009l0.007,-0.009l0.007,-0.009l0.007,-0.009l0.007,-0.008l0.007,-0.009l0.006,-0.009l0.007,-0.009l0.006,-0.009l0.006,-0.009l0.006,-0.009l0.006,-0.009l0.005,-0.009l0.005,-0.008l0.006,-0.009l0.005,-0.009l0.005,-0.009l0.005,-0.009l0.004,-0.009l0.005,-0.009l0.004,-0.009l0.004,-0.009l0.004,-0.009l0.004,-0.008l0.004,-0.009l0.004,-0.009l0.003,-0.009l0.004,-0.009l0.003,-0.009l0.003,-0.009l0.003,-0.009l0.003,-0.009l0.003,-0.01l0.002,-0.009l0.003,-0.009l0.002,-0.009l0.003,-0.009l0.002,-0.01l0.002,-0.009l0.002,-0.009l0.002,-0.01l0.002,-0.009l0.001,-0.01l0.002,-0.01l0.001,-0.009l0.002,-0.01l0.001,-0.01l0.001,-0.01l0.001,-0.01l0.001,-0.01l0.001,-0.011l0,-0.01l0.001,-0.01l0,-0.011l0,-0.011l0.001,-0.01l0,-0.011l0,-0.011l-0.001,-0.011l0,-0.011l0,-0.01l-0.001,-0.011l0,-0.01l-0.001,-0.01l-0.001,-0.01l-0.001,-0.011l-0.001,-0.01l-0.001,-0.009l-0.002,-0.01l-0.001,-0.01l-0.002,-0.01l-0.001,-0.009l-0.002,-0.01l-0.002,-0.009l-0.002,-0.01l-0.002,-0.009l-0.002,-0.009l-0.003,-0.01l-0.002,-0.009l-0.003,-0.009l-0.002,-0.009l-0.003,-0.009l-0.003,-0.009l-0.003,-0.009l-0.003,-0.009l-0.003,-0.009l-0.004,-0.009l-0.003,-0.009l-0.004,-0.009l-0.004,-0.009l-0.004,-0.009l-0.004,-0.009l-0.004,-0.009l-0.004,-0.009l-0.005,-0.009l-0.004,-0.009l-0.005,-0.009l-0.005,-0.008l-0.005,-0.009l-0.006,-0.009l-0.005,-0.009l-0.005,-0.009l-0.006,-0.009l-0.006,-0.009l-0.006,-0.009l-0.006,-0.009l-0.007,-0.008l-0.006,-0.009l-0.007,-0.009l-0.007,-0.009l-0.007,-0.009l-0.007,-0.009l-0.007,-0.009l-0.008,-0.009l-0.008,-0.009l-0.008,-0.008l-0.008,-0.009l-0.008,-0.009l-0.008,-0.009l-0.009,-0.009l-0.009,-0.008l-0.009,-0.009l-0.009,-0.009l-0.009,-0.008l-0.009,-0.009l-0.009,-0.008l-0.01,-0.008l-0.009,-0.008l-0.009,-0.008l-0.01,-0.007l-0.009,-0.008l-0.01,-0.007l-0.009,-0.007l-0.01,-0.007l-0.009,-0.007l-0.01,-0.007l-0.01,-0.007l-0.01,-0.006l-0.01,-0.006l-0.01,-0.007l-0.01,-0.006l-0.01,-0.006l-0.01,-0.006l-0.01,-0.005l-0.01,-0.006l-0.011,-0.005l-0.01,-0.006l-0.01,-0.005l-0.011,-0.005l-0.011,-0.005l-0.01,-0.005l-0.011,-0.004l-0.011,-0.005l-0.011,-0.004l-0.01,-0.004l-0.011,-0.004l-0.011,-0.004l-0.012,-0.004l-0.011,-0.004l-0.011,-0.004l-0.011,-0.003l-0.012,-0.003l-0.011,-0.003l-0.012,-0.003l-0.012,-0.003l-0.011,-0.003l-0.012,-0.003l-0.012,-0.002l-0.012,-0.003l-0.012,-0.002l-0.012,-0.002l-0.012,-0.002l-0.013,-0.002l-0.012,-0.001l-0.012,-0.002l-0.013,-0.001l-0.013,-0.001l-0.012,-0.001l-0.013,-0.001l-0.013,-0.001l-0.013,-0.001l-0.013,0l-0.013,-0.001l-0.013,0l-0.014,0l-0.849,0l0,-0.035l-0.013,-0.002l-0.02,-0.004l-0.02,-0.004l-0.02,-0.004l-0.02,-0.004l-0.02,-0.005l-0.02,-0.005l-0.019,-0.005l-0.02,-0.005l-0.019,-0.006l-0.02,-0.006l-0.019,-0.006l-0.019,-0.006l-0.019,-0.006l-0.019,-0.007l-0.019,-0.007l-0.019,-0.007l-0.019,-0.008l-0.018,-0.007l-0.019,-0.008l-0.018,-0.008l-0.019,-0.009l-0.018,-0.008l-0.018,-0.009l-0.018,-0.009l-0.018,-0.009l-0.018,-0.01l-0.018,-0.01l-0.017,-0.01l-0.018,-0.01l-0.017,-0.01l-0.018,-0.011l-0.017,-0.011l-0.017,-0.011l-0.017,-0.012l-0.017,-0.011l-0.017,-0.012l-0.017,-0.012l-0.017,-0.013l-0.016,-0.012l-0.017,-0.013l-0.016,-0.013l-0.016,-0.013l-0.016,-0.014l-0.016,-0.014l-0.016,-0.014l-0.016,-0.014l-0.016,-0.014l-0.015,-0.015l-0.016,-0.015l-0.015,-0.015l-0.015,-0.015l-0.015,-0.016l-0.015,-0.016l-0.015,-0.015l-0.015,-0.017l-0.014,-0.016l-0.014,-0.016l-0.014,-0.017l-0.014,-0.016l-0.014,-0.017l-0.013,-0.017l-0.013,-0.017l-0.013,-0.017l-0.013,-0.017l-0.013,-0.018l-0.012,-0.017l-0.012,-0.018l-0.012,-0.018l-0.012,-0.018l-0.012,-0.018l-0.011,-0.019l-0.011,-0.018l-0.011,-0.019l-0.011,-0.019l-0.01,-0.019l-0.01,-0.019l-0.01,-0.019l-0.01,-0.019l-0.01,-0.02l-0.009,-0.019l-0.009,-0.02l-0.009,-0.02l-0.009,-0.02l-0.008,-0.02l-0.009,-0.021l-0.008,-0.02l-0.007,-0.021l-0.008,-0.021l-0.007,-0.02l-0.007,-0.021l-0.007,-0.022l-0.006,-0.021l-0.006,-0.021l-0.006,-0.022l-0.006,-0.021l-0.006,-0.022l-0.005,-0.022l-0.005,-0.022l-0.005,-0.022l-0.004,-0.022l-0.004,-0.022l-0.004,-0.022l-0.004,-0.023l-0.003,-0.022l-0.004,-0.023l-0.003,-0.022l-0.002,-0.023l-0.003,-0.023l-0.002,-0.023l-0.002,-0.023l-0.001,-0.022l-0.002,-0.024l-0.001,-0.023l-0.001,-0.023l0,-0.023l-0.001,-0.023l0,-0.023l0,-0.024l0.001,-0.023l0,-0.023l0.001,-0.023l0.001,-0.023l0.002,-0.023l0.001,-0.023l0.002,-0.023l0.002,-0.023l0.003,-0.023l0.002,-0.023l0.003,-0.022l0.004,-0.023l0.003,-0.022l0.004,-0.023l0.004,-0.022l0.004,-0.022l0.004,-0.022l0.005,-0.022l0.005,-0.022l0.005,-0.022l0.006,-0.022l0.006,-0.021l0.006,-0.022l0.006,-0.021l0.006,-0.021l0.007,-0.022l0.007,-0.021l0.007,-0.02l0.008,-0.021l0.007,-0.021l0.008,-0.02l0.009,-0.021l0.008,-0.02l0.009,-0.02l0.009,-0.02l0.009,-0.02l0.009,-0.019l0.01,-0.02l0.01,-0.019l0.01,-0.019l0.01,-0.019l0.01,-0.019l0.011,-0.019l0.011,-0.019l0.011,-0.018l0.011,-0.019l0.012,-0.018l0.012,-0.018l0.012,-0.018l0.012,-0.018l0.012,-0.017l0.013,-0.018l0.013,-0.017l0.013,-0.017l0.013,-0.017l0.013,-0.017l0.014,-0.017l0.014,-0.016l0.014,-0.017l0.014,-0.016l0.014,-0.016l0.015,-0.016l0.015,-0.016l0.015,-0.016l0.015,-0.016l0.015,-0.015l0.015,-0.015l0.016,-0.015l0.015,-0.015l0.016,-0.014l0.016,-0.014l0.016,-0.014l0.016,-0.014l0.016,-0.014l0.016,-0.013l0.016,-0.013l0.017,-0.013l0.016,-0.012l0.017,-0.013l0.017,-0.012l0.017,-0.012l0.017,-0.011l0.017,-0.012l0.017,-0.011l0.017,-0.011l0.018,-0.011l0.017,-0.01l0.018,-0.01l0.017,-0.01l0.018,-0.01l0.018,-0.01l0.018,-0.009l0.018,-0.009l0.018,-0.009l0.018,-0.008l0.019,-0.009l0.018,-0.008l0.019,-0.008l0.018,-0.007l0.019,-0.008l0.019,-0.007l0.019,-0.007l0.019,-0.007l0.019,-0.006l0.019,-0.006l0.019,-0.006l0.02,-0.006l0.019,-0.006l0.02,-0.005l0.019,-0.005l0.02,-0.005l0.02,-0.005l0.02,-0.004l0.02,-0.004l0.02,-0.004l0.02,-0.004l0.02,-0.003l0.02,-0.004l0.02,-0.003l0.021,-0.002l0.02,-0.003l0.021,-0.002l0.021,-0.002l0.02,-0.002l0.021,-0.002l0.021,-0.002l0.025,-0.001l1.669,0l0,0.955Z" style="fill:#0089ec;"/></g><path d="M154.5,77.25l5.25,0l-11.25,13.5l10.5,13.5l-5.25,0l-7.5,-9.75l-9,9.75l-5.25,0l11.25,-12.75l-12,-14.25c0,0 4.599,5.039 9.75,5.25c1.044,0.043 4.5,5.25 4.5,5.25l9,-10.5Z" style="fill:#0089ec;"/><path d="M78.861,103.624l4.5,0l0,-16.5l19.5,17.25l0,-27l-4.5,0l0,17.25l-19.5,-17.25l0,26.25Z" style="fill:#0089ec;"/><g transform="matrix(5.74652,0,0,4.30989,-2633.66,-2126.41)"><text x="465.998px" y="510.623px" style="font-family:Asgalt;font-size:11.746px;fill:#00cd3a;">P<tspan x="470.262px 474.515px " y="510.623px 510.623px ">EA</tspan></text><path d="M467.471,504.538l0.021,0l0.02,0.001l0.02,0l0.02,0.001l0.02,0.002l0.02,0.001l0.02,0.002l0.02,0.002l0.02,0.002l0.02,0.002l0.019,0.003l0.02,0.003l0.019,0.003l0.02,0.003l0.019,0.004l0.019,0.004l0.02,0.004l0.019,0.004l0.019,0.005l0.019,0.005l0.019,0.005l0.019,0.005l0.018,0.005l0.019,0.006l0.019,0.006l0.018,0.006l0.019,0.007l0.018,0.006l0.018,0.007l0.019,0.007l0.018,0.008l0.018,0.008l0.018,0.007l0.018,0.009l0.018,0.008l0.017,0.009l0.018,0.008l0.017,0.01l0.018,0.009l0.017,0.009l0.018,0.01l0.017,0.01l0.017,0.011l0.017,0.01l0.017,0.011l0.017,0.011l0.016,0.011l0.017,0.012l0.017,0.011l0.016,0.012l0.017,0.013l0.016,0.012l0.016,0.013l0.016,0.013l0.016,0.013l0.016,0.013l0.016,0.014l0.015,0.014l0.016,0.014l0.015,0.014l0.016,0.015l0.015,0.014l0.015,0.015l0.015,0.016l0.015,0.015l0.015,0.015l0.014,0.016l0.014,0.016l0.014,0.016l0.014,0.016l0.014,0.016l0.013,0.016l0.014,0.017l0.013,0.017l0.013,0.016l0.012,0.017l0.013,0.018l0.012,0.017l0.012,0.017l0.012,0.018l0.011,0.018l0.012,0.018l0.011,0.018l0.011,0.018l0.01,0.018l0.011,0.019l0.01,0.019l0.01,0.018l0.01,0.019l0.01,0.02l0.009,0.019l0.009,0.019l0.009,0.02l0.009,0.02l0.008,0.02l0.008,0.02l0.008,0.02l0.008,0.02l0.007,0.021l0.007,0.021l0.007,0.02l0.007,0.021l0.006,0.021l0.007,0.021l0.005,0.022l0.006,0.021l0.005,0.022l0.006,0.021l0.004,0.022l0.005,0.022l0.004,0.022l0.004,0.022l0.004,0.022l0.004,0.022l0.003,0.022l0.003,0.023l0.003,0.022l0.002,0.023l0.002,0.022l0.002,0.023l0.002,0.023l0.001,0.023l0.002,0.022l0,0.023l0.001,0.023l0,0.023l0.001,0.023l-0.001,0.024l0,0.023l-0.001,0.023l0,0.022l-0.002,0.023l-0.001,0.023l-0.002,0.023l-0.002,0.023l-0.002,0.022l-0.002,0.023l-0.003,0.022l-0.003,0.023l-0.003,0.022l-0.004,0.022l-0.004,0.022l-0.004,0.022l-0.004,0.022l-0.005,0.022l-0.004,0.022l-0.006,0.021l-0.005,0.022l-0.006,0.021l-0.005,0.021l-0.007,0.022l-0.006,0.021l-0.007,0.021l-0.007,0.02l-0.007,0.021l-0.007,0.02l-0.008,0.021l-0.008,0.02l-0.008,0.02l-0.008,0.02l-0.009,0.02l-0.009,0.019l-0.009,0.02l-0.009,0.019l-0.01,0.019l-0.01,0.019l-0.01,0.019l-0.01,0.019l-0.011,0.019l-0.01,0.018l-0.011,0.018l-0.011,0.018l-0.012,0.018l-0.011,0.018l-0.012,0.018l-0.012,0.017l-0.012,0.017l-0.013,0.017l-0.012,0.017l-0.013,0.017l-0.013,0.017l-0.014,0.017l-0.013,0.016l-0.014,0.016l-0.014,0.016l-0.014,0.016l-0.014,0.016l-0.014,0.015l-0.015,0.016l-0.015,0.015l-0.015,0.016l-0.015,0.015l-0.015,0.014l-0.016,0.015l-0.015,0.014l-0.016,0.014l-0.015,0.014l-0.016,0.014l-0.016,0.013l-0.016,0.013l-0.016,0.013l-0.016,0.013l-0.016,0.012l-0.017,0.012l-0.016,0.012l-0.017,0.012l-0.017,0.012l-0.016,0.011l-0.017,0.011l-0.017,0.011l-0.017,0.01l-0.017,0.011l-0.017,0.01l-0.018,0.009l-0.017,0.01l-0.018,0.009l-0.017,0.009l-0.018,0.009l-0.017,0.009l-0.018,0.008l-0.018,0.008l-0.018,0.008l-0.018,0.008l-0.018,0.007l-0.019,0.008l-0.018,0.007l-0.018,0.006l-0.019,0.007l-0.018,0.006l-0.019,0.006l-0.019,0.006l-0.018,0.005l-0.019,0.005l-0.019,0.005l-0.019,0.005l-0.019,0.005l-0.019,0.004l-0.02,0.004l-0.019,0.004l-0.019,0.004l-0.02,0.003l-0.019,0.003l-0.02,0.003l-0.019,0.003l-0.02,0.002l-0.02,0.002l-0.02,0.002l-0.02,0.002l-0.02,0.001l-0.02,0.002l-0.02,0.001l-0.02,0l-0.02,0.001l-0.021,0l-0.02,0l-0.772,0l0,-0.954l0.772,0l0.012,0l0.012,0l0.011,0l0.012,-0.001l0.011,0l0.012,-0.001l0.011,-0.001l0.012,-0.001l0.011,-0.001l0.011,-0.001l0.011,-0.002l0.011,-0.001l0.011,-0.002l0.011,-0.001l0.011,-0.002l0.011,-0.002l0.01,-0.003l0.011,-0.002l0.01,-0.002l0.011,-0.003l0.01,-0.002l0.011,-0.003l0.01,-0.003l0.01,-0.003l0.01,-0.003l0.01,-0.003l0.01,-0.004l0.01,-0.003l0.01,-0.004l0.01,-0.004l0.01,-0.004l0.009,-0.004l0.01,-0.004l0.01,-0.004l0.009,-0.004l0.01,-0.005l0.009,-0.005l0.009,-0.004l0.01,-0.005l0.009,-0.005l0.009,-0.005l0.009,-0.005l0.009,-0.006l0.009,-0.005l0.009,-0.006l0.009,-0.006l0.009,-0.005l0.009,-0.006l0.009,-0.007l0.009,-0.006l0.008,-0.006l0.009,-0.007l0.009,-0.006l0.008,-0.007l0.009,-0.007l0.008,-0.007l0.009,-0.007l0.008,-0.007l0.008,-0.008l0.009,-0.007l0.008,-0.008l0.008,-0.008l0.009,-0.008l0.008,-0.008l0.008,-0.008l0.008,-0.008l0.007,-0.008l0.008,-0.008l0.007,-0.008l0.007,-0.008l0.007,-0.009l0.007,-0.008l0.007,-0.008l0.006,-0.008l0.007,-0.008l0.006,-0.008l0.006,-0.008l0.006,-0.008l0.006,-0.009l0.005,-0.008l0.006,-0.008l0.005,-0.008l0.005,-0.008l0.005,-0.008l0.005,-0.008l0.005,-0.008l0.004,-0.008l0.004,-0.008l0.005,-0.008l0.004,-0.008l0.004,-0.008l0.004,-0.008l0.004,-0.008l0.003,-0.008l0.004,-0.008l0.003,-0.009l0.003,-0.008l0.004,-0.008l0.003,-0.008l0.003,-0.008l0.002,-0.008l0.003,-0.008l0.003,-0.008l0.002,-0.008l0.002,-0.008l0.003,-0.008l0.002,-0.009l0.002,-0.008l0.002,-0.008l0.002,-0.009l0.002,-0.008l0.001,-0.008l0.002,-0.009l0.001,-0.008l0.002,-0.009l0.001,-0.009l0.001,-0.008l0.001,-0.009l0.001,-0.009l0.001,-0.009l0.001,-0.009l0,-0.009l0.001,-0.01l0,-0.009l0.001,-0.009l0,-0.01l0,-0.009l0,-0.01l0,-0.01l0,-0.009l0,-0.01l-0.001,-0.009l0,-0.009l-0.001,-0.01l0,-0.009l-0.001,-0.009l-0.001,-0.009l-0.001,-0.009l-0.001,-0.008l-0.001,-0.009l-0.001,-0.009l-0.002,-0.008l-0.001,-0.009l-0.002,-0.008l-0.001,-0.008l-0.002,-0.009l-0.002,-0.008l-0.002,-0.008l-0.002,-0.008l-0.002,-0.009l-0.002,-0.008l-0.003,-0.008l-0.002,-0.008l-0.003,-0.008l-0.002,-0.008l-0.003,-0.008l-0.003,-0.008l-0.003,-0.008l-0.003,-0.008l-0.004,-0.007l-0.003,-0.008l-0.003,-0.008l-0.004,-0.008l-0.004,-0.008l-0.004,-0.008l-0.004,-0.008l-0.004,-0.008l-0.004,-0.008l-0.004,-0.008l-0.005,-0.007l-0.005,-0.008l-0.004,-0.008l-0.005,-0.008l-0.005,-0.008l-0.006,-0.008l-0.005,-0.008l-0.006,-0.008l-0.005,-0.008l-0.006,-0.008l-0.006,-0.008l-0.006,-0.008l-0.007,-0.008l-0.006,-0.008l-0.007,-0.008l-0.007,-0.008l-0.007,-0.008l-0.007,-0.008l-0.007,-0.008l-0.007,-0.008l-0.008,-0.008l-0.008,-0.007l-0.008,-0.008l-0.008,-0.008l-0.008,-0.008l-0.008,-0.008l-0.009,-0.007l-0.008,-0.008l-0.008,-0.007l-0.009,-0.007l-0.008,-0.007l-0.009,-0.007l-0.008,-0.007l-0.009,-0.006l-0.008,-0.007l-0.009,-0.006l-0.009,-0.007l-0.009,-0.006l-0.008,-0.006l-0.009,-0.006l-0.009,-0.005l-0.009,-0.006l-0.009,-0.006l-0.009,-0.005l-0.009,-0.005l-0.01,-0.005l-0.009,-0.005l-0.009,-0.005l-0.009,-0.005l-0.01,-0.005l-0.009,-0.004l-0.01,-0.005l-0.009,-0.004l-0.01,-0.004l-0.009,-0.004l-0.01,-0.004l-0.01,-0.004l-0.01,-0.004l-0.01,-0.003l-0.01,-0.004l-0.01,-0.003l-0.01,-0.003l-0.01,-0.004l-0.01,-0.003l-0.011,-0.002l-0.01,-0.003l-0.01,-0.003l-0.011,-0.002l-0.011,-0.003l-0.01,-0.002l-0.011,-0.002l-0.011,-0.002l-0.011,-0.002l-0.01,-0.002l-0.011,-0.001l-0.011,-0.002l-0.012,-0.001l-0.011,-0.001l-0.011,-0.001l-0.011,-0.001l-0.012,-0.001l-0.011,-0.001l-0.012,-0.001l-0.012,0l-0.011,0l-0.012,-0.001l-0.012,0l-0.868,0l0,5.428l-0.807,0l0,-6.381l1.675,0l0.02,0Z" style="fill:#00cd3a;"/><path d="M473.379,505.491l-2.532,0l0,1.755l1.805,0l0,0.954l-1.805,0l0,1.765l2.532,0l0,0.954l-3.338,0l0,-6.381l3.338,0l0,0.953Z" style="fill:#00cd3a;"/><path d="M478.43,510.791l-0.064,0.128l-0.75,0l-1.295,-4.11l-1.284,4.11l-0.751,0l-0.063,-0.127l1.988,-6.377l0.219,0l2,6.376ZM476.313,505.626l0.016,0l-0.008,-0.026l-0.008,0.026Z" style="fill:#00cd3a;"/></g><path d="M48.828,46.639c0,0 27.113,-6.17 29.3,-7.505c10.08,-6.155 13.505,-9.371 21.98,-18.829c4.641,-5.179 8.739,2.968 10.523,7.926c1.964,5.457 5.529,17.723 11.725,29.848c3.471,6.792 11.905,18.184 18.881,22.593c0.237,0.149 -4.816,0.368 -9.924,-5.283c-4.781,-5.287 -11.607,-14.369 -16.464,-25.471c-4.362,-9.969 -9.863,-17.423 -13.057,-18.347c-4.406,-1.275 -6.882,2.126 -19.292,9.672c-2.735,1.662 -11.739,3.209 -15.269,3.537c-8.484,0.789 -7.997,1.257 -18.403,1.859Z" style="fill:#00cd26;"/><path d="M127.862,63.873c0,0 2.354,-2.078 5.37,-5.276c9.368,-9.931 10.74,-15.229 10.268,-14.586c-2.296,3.132 -11.007,12.443 -17.795,16.695c-0.173,0.108 2.157,3.167 2.157,3.167Z" style="fill:#00cd26;"/><path d="M120.111,62.374l0,13.5l5.25,0l0,-5.25c0,0 -2.725,-2.692 -5.25,-8.25Z" style="fill:#00cd26;"/><path d="M119.361,46.624l5.941,0.109c0,0 0.058,13.427 0.059,13.391c0,0 -3.139,-4.319 -6,-13.5Z" style="fill:#0089ec;"/><path d="M134.492,59.182c0,0 9.293,-9.204 11.16,-17.079c0.009,-0.04 2.78,-2.354 3.514,-2.947c4.979,-4.013 5.721,-4.819 8.273,0.269c3.812,7.602 7.984,10.621 11.864,13.303c3.717,2.568 13.322,-7.316 15.526,-1.732c7.212,18.268 18.042,25.156 18.042,25.156c0,0 -8.577,-0.24 -19.873,-19.577c-2.429,-4.158 -9.133,1.897 -13.061,-0.004c-9.33,-4.517 -12.037,-10.164 -16.338,-11.377c-1.553,-0.438 -2.935,-0.231 -4.467,0.434c-3.138,1.36 -3.895,3.57 -5.299,5.133c-1.92,2.138 -9.341,8.421 -9.341,8.421Z" style="fill:#0089ec;"/></svg>